<svg width="112" height="1024" viewBox="0 0 112 1024" fill="none" xmlns="http://www.w3.org/2000/svg">
<path fill-rule="evenodd" clip-rule="evenodd" d="M23.6443 1024L59.1107 1024L59.1107 1003.52L70.9328 1003.52L70.9328 982.187L47.2886 982.187L47.2886 961.707L23.6443 961.707L23.6443 940.373L35.4664 940.373L35.4664 919.893L47.2886 919.893L47.2885 898.56L11.8221 898.56L11.8221 878.08L94.5771 878.08L94.5771 856.747L82.755 856.747L82.755 836.267L94.5771 836.267L94.5771 814.933L35.4664 814.933L35.4664 794.453L47.2885 794.453L47.2885 773.12L59.1107 773.12L59.1107 752.64L47.2885 752.64L47.2885 731.307L35.4664 731.307L35.4664 710.827L-1.36892e-05 710.827L-1.46218e-05 689.493L35.4664 689.493L35.4664 669.013V669.013L35.4664 647.68L47.2885 647.68L47.2885 627.2L-1.73447e-05 627.2L-1.82772e-05 605.867L11.8221 605.867L11.8221 585.387L35.4664 585.387L35.4664 564.053L23.6443 564.053L23.6443 543.573L94.5771 543.573L94.5771 522.24L-2.19326e-05 522.24L-2.28278e-05 501.76V501.76L-2.37603e-05 480.427V480.427L-2.46556e-05 459.947L94.5771 459.947L94.5771 438.613L106.399 438.613L106.399 418.133L11.8221 418.133L11.8221 396.8L70.9328 396.8L70.9328 376.32L106.399 376.32L106.399 354.987L-2.92435e-05 354.987L-3.01387e-05 334.507L35.4664 334.507L35.4664 313.173V313.173L35.4664 292.693V292.693L35.4664 271.36L23.6442 271.36L23.6442 250.88V250.88L23.6442 229.547V229.547L23.6442 209.067L106.399 209.067L106.399 187.733L82.7549 187.733L82.7549 167.253L106.399 167.253L106.399 145.92L-3.83821e-05 145.92L-3.92773e-05 125.44L82.7549 125.44L82.7549 104.107V104.107L82.7549 83.6268L23.6442 83.6268L23.6442 62.2934L94.5771 62.2934L94.5771 41.8134L59.1107 41.8134L59.1107 20.4801L23.6442 20.4801L23.6442 9.62413e-05L106.399 9.26239e-05L106.399 20.4801V20.4801L106.399 41.8134V41.8134L106.399 62.2934V62.2934L106.399 83.6268V83.6268L106.399 104.107V104.107L106.399 125.44V125.44L106.399 145.92V145.92L106.399 167.253V167.253L106.399 187.733V187.733L106.399 209.067V209.067L106.399 229.547V229.547L106.399 250.88V250.88L106.399 271.36V271.36L106.399 292.693V292.693L106.399 313.173V313.173L106.399 334.507V334.507L106.399 354.987V354.987L106.399 376.32V376.32L106.399 396.8V396.8L106.399 418.133V418.133L106.399 438.613V438.613L106.399 459.947V459.947L106.399 480.427V480.427L106.399 501.76V501.76L106.399 522.24V522.24L106.399 543.573V543.573L106.399 564.053V564.053L106.399 585.387V585.387L106.399 605.867V605.867L106.399 627.2V627.2L106.399 647.68V647.68L106.399 669.013V669.013L106.399 689.493V689.493L106.399 710.827V710.827L106.399 731.307V731.307L106.399 752.64V752.64L106.399 773.12V773.12L106.399 794.453V794.453L106.399 814.933V814.933L106.399 836.267V836.267L106.399 856.747V856.747L106.399 878.08V878.08L106.399 898.56V898.56L106.399 919.893V919.893L106.399 940.373V940.373L106.399 961.707V961.707L106.399 982.187V982.187L106.399 1003.52V1003.52L106.399 1024V1024L23.6443 1024Z" fill="#A8D0FF"/>
<path fill-rule="evenodd" clip-rule="evenodd" d="M35.9288 1024L68.4232 1024L68.4232 1003.52L79.2546 1003.52L79.2546 982.187L57.5917 982.187L57.5917 961.707L35.9288 961.707L35.9288 940.374L46.7602 940.374L46.7602 919.894L57.5917 919.894L57.5917 898.56L25.0973 898.56L25.0973 878.08L100.918 878.08L100.918 856.747L90.0861 856.747L90.0861 836.267L100.918 836.267L100.918 814.934L46.7602 814.934L46.7602 794.454L57.5917 794.454L57.5917 773.12L68.4231 773.12L68.4231 752.64L57.5917 752.64L57.5917 731.307L46.7602 731.307L46.7602 710.827L14.2659 710.827L14.2659 689.494L46.7602 689.494L46.7602 669.014V669.014L46.7602 647.68L57.5917 647.68L57.5917 627.2L14.2659 627.2L14.2659 605.867L25.0973 605.867L25.0973 585.387L46.7602 585.387L46.7602 564.054L35.9288 564.054L35.9288 543.574L100.918 543.574L100.918 522.24L14.2658 522.24L14.2658 501.76V501.76L14.2658 480.427V480.427L14.2658 459.947L100.918 459.947L100.918 438.613L111.749 438.613L111.749 418.133L25.0973 418.134L25.0973 396.8L79.2546 396.8L79.2546 376.32L111.749 376.32L111.749 354.987L14.2658 354.987L14.2658 334.507L46.7602 334.507L46.7602 313.173V313.173L46.7602 292.693V292.693L46.7602 271.36L35.9288 271.36L35.9288 250.88V250.88L35.9287 229.547V229.547L35.9287 209.067L111.749 209.067L111.749 187.733L90.086 187.733L90.086 167.253L111.749 167.253L111.749 145.92L14.2658 145.92L14.2658 125.44L90.086 125.44L90.086 104.107V104.107L90.086 83.6268L35.9287 83.6268L35.9287 62.2935L100.917 62.2935L100.917 41.8135L68.4231 41.8135L68.4231 20.4802L35.9287 20.4802L35.9287 0.000157363L111.749 0.000154049L111.749 20.4802V20.4802L111.749 41.8135V41.8135L111.749 62.2935V62.2935L111.749 83.6268V83.6268L111.749 104.107V104.107L111.749 125.44V125.44L111.749 145.92V145.92L111.749 167.253V167.253L111.749 187.733V187.733L111.749 209.067V209.067L111.749 229.547V229.547L111.749 250.88V250.88L111.749 271.36V271.36L111.749 292.693V292.693L111.749 313.173V313.173L111.749 334.507V334.507L111.749 354.987V354.987L111.749 376.32V376.32L111.749 396.8V396.8L111.749 418.133V418.133L111.749 438.613V438.613L111.749 459.947V459.947L111.749 480.427V480.427L111.749 501.76V501.76L111.749 522.24V522.24L111.749 543.574V543.574L111.749 564.054V564.054L111.749 585.387V585.387L111.749 605.867V605.867L111.749 627.2V627.2L111.749 647.68V647.68L111.749 669.014V669.014L111.749 689.494V689.494L111.749 710.827V710.827L111.749 731.307V731.307L111.749 752.64V752.64L111.749 773.12V773.12L111.749 794.454V794.454L111.749 814.934V814.934L111.749 836.267V836.267L111.749 856.747V856.747L111.749 878.08V878.08L111.749 898.56V898.56L111.749 919.894V919.894L111.749 940.374V940.374L111.749 961.707V961.707L111.749 982.187V982.187L111.749 1003.52V1003.52L111.749 1024V1024L35.9288 1024Z" fill="#F8FBFF"/>
</svg>
