<svg width="1440" height="188" viewBox="0 0 1440 188" fill="none" xmlns="http://www.w3.org/2000/svg">
<path fill-rule="evenodd" clip-rule="evenodd" d="M0 39.7778V99.4444H28.8V119.333H58.8V79.5556H87.6V39.7778H117.6V59.6667H146.4V79.5556H176.4V19.8889H205.2V159.111H235.2V139.222H264V159.111H294V59.6667H322.8V79.5556H352.8V99.4444H381.6V79.5556H411.6V59.6667H440.4V0H470.4V59.6667H499.2H529.2V79.5556H558V0H588V19.8889H616.8V59.6667H646.8V39.7778H675.6V159.111H705.6V0H734.4H764.4H793.2V159.111H823.2V179H852V19.8889H882V119.333H910.8V179H940.8V0H969.6V59.6667H999.6H1028.4H1058.4V39.7778H1087.2H1117.2H1146V179H1176V139.222H1204.8V179H1234.8V0H1263.6V139.222H1293.6H1322.4V39.7778H1352.4V159.111H1381.2V99.4444H1411.2V39.7778H1440V179H1411.2H1381.2H1352.4H1322.4H1293.6H1263.6H1234.8H1204.8H1176H1146H1117.2H1087.2H1058.4H1028.4H999.6H969.6H940.8H910.8H882H852H823.2H793.2H764.4H734.4H705.6H675.6H646.8H616.8H588H558H529.2H499.2H470.4H440.4H411.6H381.6H352.8H322.8H294H264H235.2H205.2H176.4H146.4H117.6H87.6H58.8H28.8H0V39.7778Z" fill="#A8D0FF"/>
<path fill-rule="evenodd" clip-rule="evenodd" d="M0 60.4444V115.111H28.8V133.333H58.8V96.8889H87.6V60.4444H117.6V78.6667H146.4V96.8889H176.4V42.2222H205.2V169.778H235.2V151.556H264V169.778H294V78.6667H322.8V96.8889H352.8V115.111H381.6V96.8889H411.6V78.6667H440.4V24H470.4V78.6667H499.2V78.6667H529.2V96.8889H558V24H588V42.2222H616.8V78.6667H646.8V60.4444H675.6V169.778H705.6V24H734.4V24H764.4V24H793.2V169.778H823.2V188H852V42.2222H882V133.333H910.8V188H940.8V24H969.6V78.6667H999.6V78.6667H1028.4V78.6667H1058.4V60.4444H1087.2V60.4444H1117.2V60.4444H1146V188H1176V151.556H1204.8V188H1234.8V24H1263.6V151.556H1293.6V151.556H1322.4V60.4444H1352.4V169.778H1381.2V115.111H1411.2V60.4444H1440V188H1411.2V188H1381.2V188H1352.4V188H1322.4V188H1293.6V188H1263.6V188H1234.8V188H1204.8V188H1176V188H1146V188H1117.2V188H1087.2V188H1058.4V188H1028.4V188H999.6V188H969.6V188H940.8V188H910.8V188H882V188H852V188H823.2V188H793.2V188H764.4V188H734.4V188H705.6V188H675.6V188H646.8V188H616.8V188H588V188H558V188H529.2V188H499.2V188H470.4V188H440.4V188H411.6V188H381.6V188H352.8V188H322.8V188H294V188H264V188H235.2V188H205.2V188H176.4V188H146.4V188H117.6V188H87.6V188H58.8V188H28.8V188H0V188V60.4444Z" fill="#80BAFF"/>
</svg>
