<svg width="442" height="916" viewBox="0 0 442 916" fill="none" xmlns="http://www.w3.org/2000/svg">
<g opacity="0.5">
<path d="M210.903 142.89L156.244 177.742C153.761 179.325 150.452 178.593 148.869 176.11L147.063 173.278C145.295 169.654 146.483 165.204 149.961 162.986C153.446 160.765 157.982 161.565 160.515 164.701L197.142 141.347C198.653 140.383 199.097 138.374 198.134 136.863L195.043 132.016L201.39 127.969L206.226 135.554L210.613 142.434L210.903 142.89Z" fill="#0071D9"/>
<path d="M53.5597 211.993C53.707 212.224 53.5974 212.536 53.3306 212.614L41.8719 216.303C40.1685 216.848 38.8461 214.774 40.062 213.465L48.2374 204.626C48.4248 204.424 48.7536 204.456 48.901 204.687L51.2285 208.337L53.5597 211.993Z" fill="#0071D9"/>
<path d="M74.3272 204.602L56.6184 213.052C55.0948 213.773 53.2708 213.252 52.364 211.83L50.6902 209.205L50.1953 208.429L48.5177 205.798C47.6109 204.376 47.9083 202.502 49.2053 201.425L64.3372 188.935L69.0866 196.383L69.5815 197.16L74.3272 204.602Z" fill="#0071D9"/>
<path d="M74.3272 204.602L56.6184 213.052C55.0948 213.773 53.2708 213.252 52.364 211.83L50.6902 209.205L50.1953 208.429L48.5177 205.798C47.6675 204.465 47.8746 202.724 48.9829 201.626L50.4829 203.978L50.9779 204.754L52.6554 207.385C53.5623 208.808 55.0366 209.551 56.0943 209.118L67.5653 202.821L63.6471 196.676L63.1521 195.9L60.6509 191.977L64.3372 188.935L69.0866 196.383L69.5815 197.16L74.3272 204.602Z" fill="#0071D9"/>
<path d="M60.6508 191.977L64.3372 188.935L74.3272 204.602L70.0137 206.661L60.6508 191.977Z" fill="#0071D9"/>
<path d="M233.616 102.328L221.581 110.002C218.18 112.171 213.657 111.17 211.485 107.763L210.03 105.482C207.858 102.074 208.858 97.5521 212.26 95.3833L224.295 87.7094C227.702 85.5369 232.224 86.5376 234.397 89.9449L235.852 92.2263C238.024 95.6336 237.024 100.156 233.616 102.328Z" fill="#0071D9"/>
<path d="M233.616 102.328L221.581 110.002C218.18 112.171 213.658 111.17 211.485 107.763L210.03 105.482C207.858 102.074 208.858 97.5521 212.26 95.3833L218.002 91.722C218.137 92.7444 218.489 93.7537 219.078 94.6781L220.537 96.9655C222.709 100.373 227.231 101.373 230.639 99.2009L236.932 95.1882C237.299 97.9212 236.093 100.749 233.616 102.328Z" fill="#0071D9"/>
<path d="M68.2752 198.026L67.7689 197.232C64.0774 191.443 65.7841 183.753 71.5736 180.062L202.272 96.7258C208.067 93.0305 215.753 94.7312 219.445 100.521L219.951 101.315C223.646 107.11 221.945 114.796 216.15 118.491L85.4515 201.827C79.6621 205.518 71.9704 203.821 68.2752 198.026Z" fill="#0071D9"/>
<path d="M72.071 182.437L209.359 94.8992C210.799 93.981 212.719 94.4569 213.55 95.9692C214.317 97.3554 213.798 99.1033 212.465 99.9534L80.2672 184.245C77.4999 186.01 73.8318 185.198 72.071 182.437Z" fill="#0071D9"/>
<path d="M222.265 114.592L79.3302 205.73C76.9184 207.268 73.7161 206.559 72.1783 204.147L63.8696 191.117C62.3318 188.705 63.0405 185.502 65.4523 183.965L66.1752 183.504C72.4176 192.693 84.8824 195.313 94.3222 189.295L223.521 106.915L223.854 107.436C225.392 109.848 224.683 113.05 222.265 114.592Z" fill="#0071D9"/>
<path d="M186.8 128.604L180.652 118.963C177.928 114.69 179.184 109.013 183.457 106.289L184.049 105.911C188.322 103.187 193.999 104.443 196.723 108.716L202.87 118.357C205.598 122.635 204.342 128.312 200.07 131.036L199.477 131.414C195.204 134.138 189.528 132.882 186.8 128.604Z" fill="#0071D9"/>
<path d="M200.58 114.766L198.661 115.99C197.232 116.901 195.33 116.48 194.416 115.046L187.279 103.852L189.193 102.632C190.627 101.717 192.529 102.138 193.443 103.572L200.58 114.766Z" fill="#0071D9"/>
<path d="M205.213 127.757L194.333 134.694C192.899 135.608 190.997 135.187 190.083 133.753L177.373 113.819C176.458 112.385 176.879 110.483 178.313 109.569L180.612 108.103L190.727 123.966C191.641 125.4 193.543 125.821 194.977 124.906L203.558 119.435L206.154 123.506C207.068 124.94 206.647 126.842 205.213 127.757Z" fill="#0071D9"/>
<path d="M235.122 91.0826L232.734 92.6053C229.931 94.3925 226.215 93.57 224.428 90.7671C223.914 89.9612 223.614 89.0856 223.519 88.2044L224.295 87.7094C227.702 85.5369 232.224 86.5376 234.397 89.9449L235.122 91.0826Z" fill="#0071D9"/>
<path d="M210.903 142.89L156.244 177.742C153.761 179.325 150.452 178.593 148.869 176.11L147.063 173.278C145.295 169.654 146.483 165.204 149.961 162.986C153.446 160.765 157.982 161.565 160.515 164.701L197.142 141.347C198.653 140.383 199.097 138.374 198.134 136.863L195.043 132.016L201.39 127.969L206.226 135.554L210.613 142.434L210.903 142.89Z" fill="#0071D9"/>
<path d="M53.5597 211.993C53.707 212.224 53.5974 212.536 53.3306 212.614L41.8719 216.303C40.1685 216.848 38.8461 214.774 40.062 213.465L48.2374 204.626C48.4248 204.424 48.7536 204.456 48.901 204.687L51.2285 208.337L53.5597 211.993Z" fill="#0071D9"/>
<path d="M74.3272 204.602L56.6184 213.052C55.0948 213.773 53.2708 213.252 52.364 211.83L50.6902 209.205L50.1953 208.429L48.5177 205.798C47.6109 204.376 47.9083 202.502 49.2053 201.425L64.3372 188.935L69.0866 196.383L69.5815 197.16L74.3272 204.602Z" fill="#0071D9"/>
<path d="M74.3272 204.602L56.6184 213.052C55.0948 213.773 53.2708 213.252 52.364 211.83L50.6902 209.205L50.1953 208.429L48.5177 205.798C47.6675 204.465 47.8746 202.724 48.9829 201.626L50.4829 203.978L50.9779 204.754L52.6554 207.385C53.5623 208.808 55.0366 209.551 56.0943 209.118L67.5653 202.821L63.6471 196.676L63.1521 195.9L60.6509 191.977L64.3372 188.935L69.0866 196.383L69.5815 197.16L74.3272 204.602Z" fill="#0071D9"/>
<path d="M60.6508 191.977L64.3372 188.935L74.3272 204.602L70.0137 206.661L60.6508 191.977Z" fill="#0071D9"/>
<path d="M233.616 102.328L221.581 110.002C218.18 112.171 213.657 111.17 211.485 107.763L210.03 105.482C207.858 102.074 208.858 97.5521 212.26 95.3833L224.295 87.7094C227.702 85.5369 232.224 86.5376 234.397 89.9449L235.852 92.2263C238.024 95.6336 237.024 100.156 233.616 102.328Z" fill="#0071D9"/>
<path d="M233.616 102.328L221.581 110.002C218.18 112.171 213.658 111.17 211.485 107.763L210.03 105.482C207.858 102.074 208.858 97.5521 212.26 95.3833L218.002 91.722C218.137 92.7444 218.489 93.7537 219.078 94.6781L220.537 96.9655C222.709 100.373 227.231 101.373 230.639 99.2009L236.932 95.1882C237.299 97.9212 236.093 100.749 233.616 102.328Z" fill="#0071D9"/>
<path d="M68.2752 198.026L67.7689 197.232C64.0774 191.443 65.7841 183.753 71.5736 180.062L202.272 96.7258C208.067 93.0305 215.753 94.7312 219.445 100.521L219.951 101.315C223.646 107.11 221.945 114.796 216.15 118.491L85.4515 201.827C79.6621 205.518 71.9704 203.821 68.2752 198.026Z" fill="#0071D9"/>
<path d="M72.071 182.437L209.359 94.8992C210.799 93.981 212.719 94.4569 213.55 95.9692C214.317 97.3554 213.798 99.1033 212.465 99.9534L80.2672 184.245C77.4999 186.01 73.8318 185.198 72.071 182.437Z" fill="#0071D9"/>
<path d="M222.265 114.592L79.3302 205.73C76.9184 207.268 73.7161 206.559 72.1783 204.147L63.8696 191.117C62.3318 188.705 63.0405 185.502 65.4523 183.965L66.1752 183.504C72.4176 192.693 84.8824 195.313 94.3222 189.295L223.521 106.915L223.854 107.436C225.392 109.848 224.683 113.05 222.265 114.592Z" fill="#0071D9"/>
<path d="M186.8 128.604L180.652 118.963C177.928 114.69 179.184 109.013 183.457 106.289L184.049 105.911C188.322 103.187 193.999 104.443 196.723 108.716L202.87 118.357C205.598 122.635 204.342 128.312 200.07 131.036L199.477 131.414C195.204 134.138 189.528 132.882 186.8 128.604Z" fill="#0071D9"/>
<path d="M200.58 114.766L198.661 115.99C197.232 116.901 195.33 116.48 194.416 115.046L187.279 103.852L189.193 102.632C190.627 101.717 192.529 102.138 193.443 103.572L200.58 114.766Z" fill="#0071D9"/>
<path d="M205.213 127.757L194.333 134.694C192.899 135.608 190.997 135.187 190.083 133.753L177.373 113.819C176.458 112.385 176.879 110.483 178.313 109.569L180.612 108.103L190.727 123.966C191.641 125.4 193.543 125.821 194.977 124.906L203.558 119.435L206.154 123.506C207.068 124.94 206.647 126.842 205.213 127.757Z" fill="#0071D9"/>
<path d="M235.122 91.0826L232.734 92.6053C229.931 94.3925 226.215 93.57 224.428 90.7671C223.914 89.9612 223.614 89.0856 223.519 88.2044L224.295 87.7094C227.702 85.5369 232.224 86.5376 234.397 89.9449L235.122 91.0826Z" fill="#0071D9"/>
<path d="M206.896 123.441L152.237 158.293C149.748 159.88 146.448 159.15 144.861 156.661L143.055 153.829C141.281 150.209 142.475 145.755 145.954 143.537C149.432 141.32 153.974 142.116 156.507 145.252L193.134 121.898C194.645 120.934 195.089 118.925 194.126 117.414L191.035 112.567L197.382 108.52L202.218 116.105L206.605 122.985L206.896 123.441Z" fill="#393954"/>
<path d="M49.5519 192.544C49.6993 192.775 49.5896 193.087 49.3266 193.171L37.864 196.854C36.1607 197.399 34.842 195.331 36.0542 194.016L44.2296 185.177C44.417 184.975 44.7458 185.007 44.8931 185.238L47.2244 188.894L49.5519 192.544Z" fill="#30262D"/>
<path d="M70.3193 185.154L52.6107 193.603C51.0908 194.33 49.2571 193.807 48.3503 192.385L46.6765 189.76L46.1815 188.984L44.504 186.353C43.5971 184.931 43.9006 183.054 45.2013 181.982L60.3293 169.486L65.0787 176.935L65.5737 177.711L70.3193 185.154Z" fill="#C92E41"/>
<path d="M70.3193 185.154L52.6107 193.603C51.0908 194.33 49.2571 193.807 48.3503 192.385L46.6765 189.76L46.1815 188.984L44.504 186.353C43.6538 185.02 43.8668 183.275 44.9729 182.186L46.4692 184.533L46.9679 185.315L48.6417 187.94C49.5485 189.362 51.0288 190.102 52.0844 189.679L63.5575 183.372L59.6431 177.233L59.1443 176.451L56.643 172.528L60.3293 169.486L65.0787 176.935L65.5737 177.711L70.3193 185.154Z" fill="#7F133B"/>
<path d="M56.643 172.528L60.3293 169.486L70.3193 185.154L66.0059 187.212L56.643 172.528Z" fill="#30262D"/>
<path d="M229.603 82.8831L217.573 90.5532C214.166 92.7258 209.644 91.7251 207.471 88.3178L206.017 86.0364C203.844 82.6291 204.845 78.107 208.252 75.9344L220.281 68.2643C223.689 66.0918 228.217 67.0886 230.389 70.4959L231.844 72.7773C234.016 76.1847 233.01 80.7106 229.603 82.8831Z" fill="#4FA2FB"/>
<path d="M229.608 82.8794L217.573 90.5532C214.166 92.7258 209.644 91.7251 207.471 88.3178L206.017 86.0364C203.844 82.6291 204.845 78.107 208.252 75.9345L213.994 72.2732C214.129 73.2956 214.481 74.3049 215.07 75.2293L216.529 77.5166C218.701 80.9239 223.223 81.9245 226.631 79.752L232.924 75.7393C233.291 78.4723 232.085 81.3 229.608 82.8794Z" fill="#3E4FBA"/>
<path d="M64.2712 178.583L63.7611 177.783C60.0696 171.994 61.7704 164.308 67.5658 160.613L198.264 77.2769C204.054 73.5854 211.745 75.2823 215.437 81.0718L215.947 81.8717C219.638 87.6612 217.932 95.3507 212.142 99.0422L81.4437 182.378C75.6483 186.073 67.9626 184.372 64.2712 178.583Z" fill="#C92E41"/>
<path d="M68.0632 162.988L205.351 75.4503C206.785 74.5359 208.711 75.008 209.546 76.5262C210.304 77.9102 209.784 79.6581 208.451 80.5083L76.2535 164.8C73.4921 166.561 69.824 165.749 68.0632 162.988Z" fill="#EC313A"/>
<path d="M218.258 95.1429L75.3224 186.281C72.9106 187.819 69.7083 187.11 68.1705 184.698L59.8618 171.668C58.324 169.256 59.0327 166.054 61.4444 164.516L62.1615 164.059C68.4098 173.244 80.8746 175.865 90.3084 169.849L219.514 87.4657L219.846 87.9872C221.384 90.3989 220.669 93.6051 218.258 95.1429Z" fill="#7F133B"/>
<path d="M182.795 109.161L176.644 99.5137C173.92 95.2412 175.17 89.5681 179.449 86.8401L180.035 86.466C184.314 83.738 189.991 84.9943 192.715 89.2668L198.866 98.9138C201.594 103.192 200.334 108.863 196.056 111.591L195.469 111.965C191.191 114.693 185.523 113.439 182.795 109.161Z" fill="#3E4FBA"/>
<path d="M196.573 95.3169L194.653 96.5411C193.219 97.4555 191.317 97.0346 190.406 95.6065L183.265 84.4068L185.185 83.1826C186.619 82.2683 188.521 82.6891 189.435 84.1232L196.573 95.3169Z" fill="#91D4FF"/>
<path d="M201.205 108.308L190.326 115.245C188.892 116.159 186.99 115.738 186.075 114.304L173.365 94.3701C172.45 92.9361 172.871 91.0341 174.305 90.1197L176.599 88.6575L186.713 104.521C187.628 105.955 189.53 106.376 190.964 105.461L199.55 99.9864L202.146 104.057C203.06 105.491 202.639 107.393 201.205 108.308Z" fill="#393954"/>
<path d="M231.118 71.6397L228.73 73.1623C225.927 74.9495 222.201 74.1249 220.414 71.322C219.9 70.5161 219.61 69.6427 219.511 68.7555L220.281 68.2643C223.689 66.0918 228.217 67.0886 230.389 70.4959L231.118 71.6397Z" fill="#91D4FF"/>
<path d="M206.896 123.441L152.237 158.293C149.748 159.88 146.448 159.15 144.861 156.661L143.055 153.829C141.281 150.209 142.475 145.755 145.954 143.537C149.432 141.32 153.974 142.116 156.507 145.252L193.134 121.898C194.645 120.934 195.089 118.925 194.126 117.414L191.035 112.567L197.382 108.52L202.218 116.105L206.605 122.985L206.896 123.441Z" fill="#393954"/>
<path d="M49.5519 192.544C49.6993 192.775 49.5896 193.087 49.3266 193.171L37.864 196.854C36.1607 197.399 34.842 195.331 36.0542 194.016L44.2296 185.177C44.417 184.975 44.7458 185.007 44.8931 185.238L47.2244 188.894L49.5519 192.544Z" fill="#30262D"/>
<path d="M70.3193 185.154L52.6107 193.603C51.0908 194.33 49.2571 193.807 48.3503 192.385L46.6765 189.76L46.1815 188.984L44.504 186.353C43.5971 184.931 43.9006 183.054 45.2013 181.982L60.3293 169.486L65.0787 176.935L65.5737 177.711L70.3193 185.154Z" fill="#C92E41"/>
<path d="M70.3193 185.154L52.6107 193.603C51.0908 194.33 49.2571 193.807 48.3503 192.385L46.6765 189.76L46.1815 188.984L44.504 186.353C43.6538 185.02 43.8668 183.275 44.9729 182.186L46.4692 184.533L46.9679 185.315L48.6417 187.94C49.5485 189.362 51.0288 190.102 52.0844 189.679L63.5575 183.372L59.6431 177.233L59.1443 176.451L56.643 172.528L60.3293 169.486L65.0787 176.935L65.5737 177.711L70.3193 185.154Z" fill="#7F133B"/>
<path d="M56.643 172.528L60.3293 169.486L70.3193 185.154L66.0059 187.212L56.643 172.528Z" fill="#30262D"/>
<path d="M229.603 82.8831L217.573 90.5532C214.166 92.7258 209.644 91.7251 207.471 88.3178L206.017 86.0364C203.844 82.6291 204.845 78.107 208.252 75.9344L220.281 68.2643C223.689 66.0918 228.217 67.0886 230.389 70.4959L231.844 72.7773C234.016 76.1847 233.01 80.7106 229.603 82.8831Z" fill="#4FA2FB"/>
<path d="M229.608 82.8794L217.573 90.5532C214.166 92.7258 209.644 91.7251 207.471 88.3178L206.017 86.0364C203.844 82.6291 204.845 78.107 208.252 75.9345L213.994 72.2732C214.129 73.2956 214.481 74.3049 215.07 75.2293L216.529 77.5166C218.701 80.9239 223.223 81.9245 226.631 79.752L232.924 75.7393C233.291 78.4723 232.085 81.3 229.608 82.8794Z" fill="#3E4FBA"/>
<path d="M64.2712 178.583L63.7611 177.783C60.0696 171.994 61.7704 164.308 67.5658 160.613L198.264 77.2769C204.054 73.5854 211.745 75.2823 215.437 81.0718L215.947 81.8717C219.638 87.6612 217.932 95.3507 212.142 99.0422L81.4437 182.378C75.6483 186.073 67.9626 184.372 64.2712 178.583Z" fill="#C92E41"/>
<path d="M68.0632 162.988L205.351 75.4503C206.785 74.5359 208.711 75.008 209.546 76.5262C210.304 77.9102 209.784 79.6581 208.451 80.5083L76.2535 164.8C73.4921 166.561 69.824 165.749 68.0632 162.988Z" fill="#EC313A"/>
<path d="M218.258 95.1429L75.3224 186.281C72.9106 187.819 69.7083 187.11 68.1705 184.698L59.8618 171.668C58.324 169.256 59.0327 166.054 61.4444 164.516L62.1615 164.059C68.4098 173.244 80.8746 175.865 90.3084 169.849L219.514 87.4657L219.846 87.9872C221.384 90.3989 220.669 93.6051 218.258 95.1429Z" fill="#7F133B"/>
<path d="M182.795 109.161L176.644 99.5137C173.92 95.2412 175.17 89.5681 179.449 86.8401L180.035 86.466C184.314 83.738 189.991 84.9943 192.715 89.2668L198.866 98.9138C201.594 103.192 200.334 108.863 196.056 111.591L195.469 111.965C191.191 114.693 185.523 113.439 182.795 109.161Z" fill="#3E4FBA"/>
<path d="M196.573 95.3169L194.653 96.5411C193.219 97.4555 191.317 97.0346 190.406 95.6065L183.265 84.4068L185.185 83.1826C186.619 82.2683 188.521 82.6891 189.435 84.1232L196.573 95.3169Z" fill="#91D4FF"/>
<path d="M201.205 108.308L190.326 115.245C188.892 116.159 186.99 115.738 186.075 114.304L173.365 94.3701C172.45 92.9361 172.871 91.0341 174.305 90.1197L176.599 88.6575L186.713 104.521C187.628 105.955 189.53 106.376 190.964 105.461L199.55 99.9864L202.146 104.057C203.06 105.491 202.639 107.393 201.205 108.308Z" fill="#393954"/>
<path d="M231.118 71.6397L228.73 73.1623C225.927 74.9495 222.201 74.1249 220.414 71.322C219.9 70.5161 219.61 69.6427 219.511 68.7555L220.281 68.2643C223.689 66.0918 228.217 67.0886 230.389 70.4959L231.118 71.6397Z" fill="#91D4FF"/>
</g>
<g opacity="0.5">
<path d="M411.618 227.477L372.57 275.849C370.788 278.051 367.566 278.391 365.359 276.615L362.855 274.592C360.143 271.84 359.868 267.429 362.351 264.348C364.839 261.272 369.205 260.611 372.468 262.688L398.643 230.271C399.721 228.938 399.514 226.976 398.171 225.898L393.886 222.434L398.419 216.817L405.127 222.236L411.219 227.154L411.618 227.477Z" fill="#0071D9"/>
<path d="M289.657 338.336C289.867 338.501 289.861 338.816 289.646 338.976L280.351 345.82C278.969 346.837 277.134 345.361 277.842 343.793L282.571 333.261C282.684 333.026 282.992 332.952 283.192 333.118L286.424 335.727L289.657 338.336Z" fill="#0071D9"/>
<path d="M306.289 325.279L292.764 338.366C291.601 339.493 289.782 339.572 288.524 338.556L286.199 336.682L285.513 336.122L283.187 334.247C281.93 333.231 281.623 331.433 282.483 330.055L292.42 314.083L299.009 319.404L299.7 319.958L306.289 325.279Z" fill="#0071D9"/>
<path d="M306.289 325.279L292.764 338.366C291.601 339.493 289.782 339.572 288.524 338.556L286.199 336.682L285.513 336.122L283.187 334.247C282.005 333.294 281.667 331.643 282.337 330.308L284.42 331.991L285.105 332.541L287.431 334.426C288.689 335.442 290.257 335.665 291.094 334.953L299.593 325.723L294.158 321.332L293.478 320.777L290.003 317.976L292.42 314.083L299.009 319.404L299.7 319.958L306.289 325.279Z" fill="#0071D9"/>
<path d="M290.003 317.976L292.42 314.083L306.289 325.279L302.993 328.471L290.003 317.976Z" fill="#0071D9"/>
<path d="M419.888 183.665L411.292 194.312C408.858 197.334 404.444 197.799 401.423 195.366L399.405 193.737C396.393 191.302 395.922 186.884 398.352 183.868L406.954 173.225C409.387 170.204 413.805 169.733 416.817 172.168L418.841 173.801C421.852 176.236 422.323 180.654 419.888 183.665Z" fill="#0071D9"/>
<path d="M419.889 183.665L411.292 194.312C408.862 197.328 404.444 197.799 401.428 195.37L399.405 193.737C396.393 191.302 395.922 186.884 398.352 183.868L402.456 178.79C402.892 179.672 403.522 180.487 404.342 181.149L406.366 182.783C409.377 185.217 413.795 184.746 416.235 181.729L420.727 176.161C421.897 178.537 421.661 181.474 419.889 183.665Z" fill="#0071D9"/>
<path d="M298.777 321.147L298.071 320.579C292.949 316.439 292.151 308.937 296.29 303.806L389.68 188.134C393.82 183.012 401.332 182.213 406.454 186.353L407.16 186.921C412.286 191.056 413.085 198.567 408.951 203.694L315.555 319.361C311.415 324.483 303.904 325.282 298.777 321.147Z" fill="#0071D9"/>
<path d="M297.469 305.807L395.569 184.317C396.593 183.038 398.49 182.887 399.712 184.011C400.826 185.035 400.889 186.786 399.931 187.963L305.465 304.953C303.497 307.402 299.914 307.78 297.469 305.807Z" fill="#0071D9"/>
<path d="M413.318 198.276L311.183 324.774C309.455 326.911 306.332 327.242 304.195 325.514L292.663 316.211C290.526 314.484 290.19 311.356 291.918 309.218L292.427 308.582C300.918 315.034 313.053 313.605 319.793 305.262L412.114 190.922L412.573 191.293C414.709 193.011 415.041 196.144 413.318 198.276Z" fill="#0071D9"/>
<path d="M385.351 221.846L376.82 214.959C373.032 211.908 372.441 206.358 375.497 202.575L375.918 202.056C378.975 198.273 384.515 197.683 388.298 200.74L396.835 207.631C400.613 210.683 401.209 216.228 398.152 220.011L397.731 220.529C394.68 224.317 389.134 224.903 385.351 221.846Z" fill="#0071D9"/>
<path d="M393.651 205.063L392.282 206.757C391.257 208.025 389.398 208.218 388.135 207.198L378.223 199.202L379.597 197.502C380.622 196.233 382.475 196.036 383.743 197.061L393.651 205.063Z" fill="#0071D9"/>
<path d="M401.83 215.456L394.058 225.088C393.033 226.357 391.174 226.549 389.906 225.525L372.265 211.28C370.992 210.261 370.794 208.398 371.819 207.129L373.461 205.095L387.503 216.435C388.766 217.456 390.629 217.257 391.644 215.99L397.784 208.391L401.39 211.31C402.653 212.33 402.855 214.188 401.83 215.456Z" fill="#0071D9"/>
<path d="M417.831 172.981L416.126 175.092C414.121 177.574 410.484 177.962 408.007 175.962C407.295 175.39 406.76 174.681 406.398 173.906L406.954 173.225C409.387 170.204 413.806 169.733 416.817 172.168L417.831 172.981Z" fill="#0071D9"/>
<path d="M401.859 210.183L362.806 258.561C361.029 260.758 357.802 261.103 355.605 259.326L353.095 257.299C350.379 254.552 350.108 250.135 352.587 247.06C355.075 243.983 359.451 243.322 362.708 245.394L388.879 212.983C389.962 211.645 389.75 209.688 388.411 208.605L384.126 205.141L388.664 199.528L395.367 204.943L401.46 209.861L401.859 210.183Z" fill="#393954"/>
<path d="M279.902 321.047C280.102 321.213 280.097 321.528 279.887 321.682L270.587 328.532C269.21 329.553 267.375 328.067 268.078 326.505L272.807 315.973C272.925 315.732 273.232 315.659 273.432 315.825L276.665 318.434L279.902 321.047Z" fill="#30262D"/>
<path d="M296.529 307.986L283.004 321.073C281.841 322.199 280.022 322.279 278.765 321.263L276.439 319.388L275.749 318.833L273.428 316.953C272.17 315.937 271.863 314.139 272.718 312.767L282.661 296.789L289.255 302.114L289.94 302.665L296.529 307.986Z" fill="#FFB33A"/>
<path d="M296.529 307.986L283.004 321.073C281.841 322.199 280.022 322.279 278.765 321.263L276.439 319.388L275.749 318.833L273.428 316.953C272.246 316 271.903 314.355 272.577 313.015L274.66 314.697L275.34 315.253L277.671 317.132C278.929 318.148 280.502 318.376 281.329 317.665L289.833 308.429L284.398 304.039L283.713 303.489L280.243 300.682L282.661 296.789L289.255 302.114L289.94 302.665L296.529 307.986Z" fill="#FA872C"/>
<path d="M280.243 300.682L282.661 296.789L296.529 307.986L293.233 311.177L280.243 300.682Z" fill="#30262D"/>
<path d="M410.129 166.372L401.533 177.029C399.098 180.04 394.68 180.511 391.663 178.072L389.645 176.443C386.634 174.008 386.163 169.59 388.597 166.579L397.194 155.932C399.623 152.916 404.041 152.445 407.063 154.878L409.081 156.507C412.098 158.947 412.564 163.36 410.129 166.372Z" fill="#4FA2FB"/>
<path d="M410.129 166.372L401.533 177.029C399.098 180.04 394.68 180.511 391.669 178.076L389.645 176.443C386.634 174.008 386.163 169.59 388.597 166.579L392.696 161.496C393.133 162.388 393.762 163.193 394.583 163.856L396.606 165.489C399.618 167.924 404.036 167.453 406.471 164.441L410.968 158.867C412.133 161.249 411.901 164.18 410.129 166.372Z" fill="#3E4FBA"/>
<path d="M289.018 303.853L288.316 303.29C283.189 299.145 282.391 291.643 286.53 286.512L379.916 170.845C384.066 165.723 391.568 164.925 396.694 169.059L397.401 169.627C402.522 173.767 403.326 181.274 399.187 186.405L305.791 302.073C301.651 307.194 294.139 307.993 289.018 303.853Z" fill="#FFB33A"/>
<path d="M287.71 288.513L385.809 167.023C386.834 165.755 388.73 165.593 389.953 166.717C391.066 167.741 391.125 169.498 390.171 170.67L295.707 287.669C293.733 290.114 290.15 290.492 287.71 288.513Z" fill="#FFC97B"/>
<path d="M403.559 180.993L301.423 307.48C299.696 309.617 296.568 309.953 294.431 308.226L282.904 298.917C280.767 297.19 280.43 294.062 282.158 291.925L282.673 291.293C291.159 297.74 303.289 296.317 310.033 287.968L402.355 173.628L402.813 174C404.945 175.723 405.287 178.855 403.559 180.993Z" fill="#FA872C"/>
<path d="M375.593 204.562L367.056 197.671C363.272 194.614 362.681 189.064 365.733 185.286L366.159 184.763C369.211 180.985 374.755 180.389 378.538 183.446L387.075 190.337C390.858 193.394 391.449 198.934 388.392 202.717L387.971 203.235C384.92 207.023 379.37 207.614 375.593 204.562Z" fill="#3E4FBA"/>
<path d="M383.892 187.769L382.522 189.464C381.497 190.732 379.64 190.935 378.371 189.91L368.463 181.908L369.833 180.213C370.858 178.945 372.715 178.742 373.984 179.767L383.892 187.769Z" fill="#91D4FF"/>
<path d="M392.066 198.168L384.298 207.795C383.273 209.063 381.41 209.261 380.142 208.236L362.501 193.992C361.233 192.967 361.04 191.109 362.059 189.836L363.701 187.801L377.739 199.147C379.011 200.166 380.865 199.969 381.89 198.701L388.02 191.103L391.63 194.016C392.898 195.041 393.096 196.894 392.066 198.168Z" fill="#393954"/>
<path d="M408.067 155.693L406.362 157.803C404.357 160.286 400.73 160.673 398.247 158.668C397.535 158.096 396.996 157.392 396.638 156.612L397.194 155.932C399.623 152.916 404.041 152.445 407.063 154.878L408.067 155.693Z" fill="#91D4FF"/>
</g>
<g opacity="0.5">
<path fill-rule="evenodd" clip-rule="evenodd" d="M149.076 815.375C150.028 810.724 153.827 807.578 158.102 807.059L207.255 794.634C212.255 793.373 217.496 795.83 219.728 800.476L222.039 805.3C222.946 807.189 222.151 809.457 220.256 810.365C218.363 811.27 216.099 810.468 215.194 808.584L212.88 803.759C212.209 802.353 210.627 801.611 209.119 801.995L170.825 811.675L193.927 823.844L202.58 828.402L228.034 841.81L240.251 848.246L259.908 858.6L246.236 821.547C245.694 820.088 244.191 819.205 242.655 819.443L237.37 820.266C235.299 820.586 233.355 819.168 233.034 817.097C232.714 815.026 234.132 813.082 236.203 812.761L241.488 811.938C246.578 811.149 251.573 814.084 253.361 818.921L271.59 868.315C271.725 868.683 271.8 869.057 271.82 869.429C272.388 872.588 271.521 876.001 269.043 878.568L244.623 903.847C241.389 907.202 236.328 908.012 232.206 905.841L207.928 893.052C203.445 890.69 201.289 885.457 202.819 880.623L213.164 847.924C213.273 847.572 213.401 847.234 213.544 846.905C214.394 844.955 213.721 842.688 211.836 841.696C209.955 840.705 207.705 841.432 206.574 843.234C206.387 843.54 206.177 843.834 205.953 844.126L184.833 871.149C181.711 875.145 176.181 876.329 171.694 873.965L147.42 861.179C143.297 859.007 141.103 854.376 142.037 849.809L149.076 815.375Z" fill="black" fill-opacity="0.15"/>
<path d="M147.02 805.084C146.101 804.601 145.383 803.746 145.105 802.659C144.594 800.625 145.823 798.56 147.858 798.049L198.901 785.14C203.901 783.878 209.147 786.338 211.373 790.985L213.685 795.805C214.59 797.698 213.795 799.966 211.906 800.873C210.013 801.778 207.75 800.975 206.84 799.09L204.526 794.264C203.855 792.858 202.271 792.12 200.766 792.501L149.718 805.408C148.772 805.648 147.82 805.506 147.02 805.084Z" fill="#30262D"/>
<path d="M257.9 863.497C257.1 863.075 256.447 862.367 256.11 861.451L237.88 812.056C237.344 810.595 235.838 809.71 234.301 809.948L229.016 810.771C226.945 811.092 225.001 809.673 224.681 807.602C224.36 805.531 225.777 803.591 227.85 803.267L233.132 802.448C238.224 801.655 243.22 804.589 245.007 809.426L263.235 858.825C263.96 860.79 262.953 862.971 260.985 863.7C259.936 864.088 258.819 863.98 257.9 863.497Z" fill="#30262D"/>
<path d="M260.689 869.073L236.271 894.359C233.035 897.708 227.972 898.521 223.85 896.35L199.572 883.561C195.089 881.2 192.936 875.963 194.466 871.128L204.81 838.429C204.917 838.081 205.047 837.74 205.188 837.414C206.04 835.46 205.367 833.194 203.486 832.203C201.601 831.21 199.352 831.937 198.218 833.743C198.034 834.046 197.825 834.345 197.599 834.631L176.479 861.654C173.358 865.65 167.825 866.838 163.338 864.475L139.064 851.688C134.941 849.517 132.749 844.881 133.681 840.319L140.723 805.88C142.121 799.039 149.691 795.453 155.872 798.709L185.572 814.354L194.224 818.911L219.683 832.322L231.895 838.755L258.035 852.524C264.212 855.778 265.54 864.051 260.689 869.073Z" fill="#C32E41"/>
<path d="M187.991 834.183L172.619 853.858C170.351 856.761 166.322 857.629 163.059 855.91L145.394 846.605C142.677 845.174 141.111 842.29 141.344 839.302C141.361 838.972 141.412 838.654 141.477 838.329L143.217 829.821L145.124 820.496L146.596 813.274C147.609 808.278 153.12 805.672 157.622 808.044L185.54 822.75C186.332 823.167 187.013 823.698 187.577 824.318C190.041 826.977 190.365 831.144 187.991 834.183Z" fill="#DFDFDF"/>
<path d="M178.095 818.828L171.476 822.52L163.695 818.421L170.318 814.731L178.095 818.828Z" fill="#C6C6C6"/>
<path d="M162.687 810.712L156.064 814.401L154.662 813.663C151.839 812.176 148.614 812.652 146.353 814.446L146.597 813.264C147.615 808.286 153.124 805.674 157.622 808.044L162.687 810.712Z" fill="#C6C6C6"/>
<path d="M185.542 822.756C185.894 822.941 186.218 823.152 186.526 823.385C186.218 823.152 185.894 822.941 185.542 822.756Z" fill="#4B94F3"/>
<path d="M187.989 834.187L186.6 835.97C186.933 832.974 185.475 829.894 182.576 828.367L181.412 827.753L187.577 824.318C187.323 824.043 187.038 823.786 186.737 823.542C189.932 826.09 190.61 830.833 187.989 834.187Z" fill="#C6C6C6"/>
<path d="M156.064 814.401L163.695 818.421L143.217 829.821L145.124 820.496L156.064 814.401Z" fill="white"/>
<path d="M170.318 814.731L163.695 818.421L156.064 814.401L162.687 810.712L170.318 814.731Z" fill="#DFDFDF"/>
<path d="M171.476 822.52L181.412 827.753L146.507 847.191L145.394 846.605C142.677 845.174 141.111 842.29 141.344 839.302L171.476 822.52Z" fill="white"/>
<path d="M185.542 822.756C185.542 822.756 185.54 822.75 185.536 822.747L185.54 822.75L185.542 822.756Z" fill="#95DBFF"/>
<path d="M186.526 823.385C186.595 823.437 186.668 823.49 186.737 823.542C186.668 823.49 186.595 823.437 186.526 823.385Z" fill="#95DBFF"/>
<path d="M187.577 824.318L181.412 827.753L171.476 822.52L178.095 818.828L185.536 822.748C185.54 822.75 185.542 822.756 185.542 822.756C185.894 822.941 186.218 823.152 186.526 823.385C186.595 823.437 186.668 823.49 186.737 823.542C187.038 823.786 187.323 824.043 187.577 824.318Z" fill="#DFDFDF"/>
<path d="M251.278 868.415L246.154 873.715L239.542 880.562L233.506 886.806C233.279 887.046 233.042 887.265 232.779 887.466C230.451 889.35 227.183 889.688 224.47 888.259L206.801 878.951C205.138 878.075 203.912 876.656 203.273 874.999C202.641 873.432 202.557 871.632 203.086 869.907L204.313 866.051L207.618 855.611L210.618 846.102C211.781 842.425 215.405 840.338 218.987 840.864C219.822 840.98 220.645 841.241 221.437 841.659L249.355 856.364C250.269 856.846 251.033 857.471 251.642 858.207C254.062 861.075 254.102 865.492 251.278 868.415Z" fill="#DFDFDF"/>
<path d="M221.423 841.656C221.07 841.471 220.713 841.323 220.347 841.201C220.713 841.323 221.07 841.471 221.423 841.656Z" fill="#4B94F3"/>
<path d="M221.429 841.655L221.434 841.657C221.429 841.655 221.423 841.657 221.423 841.657L221.429 841.655Z" fill="#95DBFF"/>
<path d="M220.347 841.201C220.262 841.171 220.181 841.143 220.099 841.116C220.181 841.143 220.262 841.171 220.347 841.201Z" fill="#95DBFF"/>
<path d="M243.256 853.152L236.566 856.806L229.577 853.125L228.761 852.695L235.447 849.039L236.651 849.673L243.256 853.152Z" fill="#C6C6C6"/>
<path d="M249.36 856.373C249.756 856.581 250.117 856.827 250.46 857.089C250.117 856.827 249.756 856.581 249.36 856.373Z" fill="#8F1E41"/>
<path d="M250.71 857.286C251.025 857.553 251.319 857.839 251.579 858.143C251.315 857.837 251.025 857.553 250.71 857.286Z" fill="#8F1E41"/>
<path d="M227.389 844.794L220.702 848.45L219.637 847.889L218.473 847.276C215.574 845.749 212.209 846.288 209.927 848.258L210.608 846.102C211.771 842.425 215.406 840.364 218.983 840.892L218.983 840.862C219.354 840.916 219.727 841.006 220.099 841.116C220.18 841.143 220.262 841.171 220.347 841.201C220.713 841.323 221.07 841.471 221.423 841.656C221.427 841.658 221.429 841.654 221.433 841.657L227.389 844.794Z" fill="#C6C6C6"/>
<path d="M251.278 868.405L250.44 869.275C250.641 866.396 249.21 863.467 246.387 861.979L245.547 861.537L251.634 858.213C254.041 861.084 254.092 865.492 251.278 868.405Z" fill="#C6C6C6"/>
<path d="M220.702 848.45L228.761 852.695L204.313 866.051L207.617 855.611L220.702 848.45Z" fill="white"/>
<path d="M235.447 849.039L228.761 852.695L220.702 848.45L227.389 844.794L228.874 845.576L235.447 849.039Z" fill="#DFDFDF"/>
<path d="M250.46 857.089C250.547 857.154 250.63 857.218 250.71 857.286C250.63 857.218 250.547 857.154 250.46 857.089Z" fill="#E3415B"/>
<path d="M244.985 861.241L245.547 861.537L210.309 880.8L206.801 878.951C205.138 878.075 203.912 876.656 203.273 874.999L236.566 856.806L237.354 857.221L244.985 861.241Z" fill="white"/>
<path d="M249.36 856.373C249.356 856.37 249.354 856.364 249.347 856.36L249.354 856.364C249.358 856.367 249.356 856.37 249.36 856.373Z" fill="#E3415B"/>
<path d="M251.634 858.213C251.616 858.188 251.599 858.164 251.579 858.143C251.599 858.164 251.624 858.182 251.642 858.207L251.634 858.213Z" fill="#E3415B"/>
<path d="M251.634 858.212L245.547 861.537L244.985 861.241L237.354 857.221L236.566 856.806L243.256 853.152L244.282 853.692L249.347 856.36C249.354 856.364 249.356 856.37 249.36 856.373C249.756 856.581 250.117 856.827 250.46 857.089C250.547 857.154 250.63 857.218 250.71 857.286C251.025 857.553 251.319 857.839 251.579 858.143C251.599 858.164 251.616 858.188 251.634 858.212Z" fill="#DFDFDF"/>
</g>
</svg>
