<svg width="132" height="145" viewBox="0 0 132 145" fill="none" xmlns="http://www.w3.org/2000/svg">
<path fill-rule="evenodd" clip-rule="evenodd" d="M61.1499 30.3399C55.9302 30.3144 51.6143 26.2995 51.1091 21.2021C51.0857 21.116 51.0703 21.0267 51.0635 20.9349L51.062 20.9129L51.0601 20.8592L51.0598 20.83V20.2V19.58C51.0598 14.34 55.3398 10.06 60.5798 10.06H61.2H93.0198H96.8799C102.46 10.06 107.02 14.63 107.02 20.2C107.02 25.76 102.492 30.3073 96.9399 30.3398V42.7705C104.701 45.5754 111.614 50.1525 117.19 56.0131C119.805 58.7613 122.125 61.7917 124.102 65.054C128.918 73.0023 131.69 82.3271 131.69 92.3C131.69 102.405 128.842 111.846 123.904 119.863C114.644 134.898 98.0342 144.926 79.0798 144.94H79.0398C49.97 144.94 26.3999 121.37 26.3999 92.3C26.3999 69.5029 40.8853 50.0922 61.1499 42.7687V30.3399Z" fill="black" fill-opacity="0.15"/>
<path d="M70.54 19.56V49.23H34.75V19.56H70.54Z" fill="#DEDAF3"/>
<path d="M47.7 49.23H40.52V19.56H47.7V49.23Z" fill="#FFFEFF"/>
<path d="M70.54 19.56V49.23H52.6799V19.56H70.54Z" fill="#BAB6D9"/>
<path d="M70.4901 20.28H34.8001C29.2301 20.28 24.6602 15.71 24.6602 10.14C24.6602 4.56001 29.2301 0 34.8001 0H70.4901C76.0601 0 80.6301 4.56001 80.6301 10.14C80.6301 15.71 76.0601 20.28 70.4901 20.28Z" fill="#BAB6D9"/>
<path d="M58.5201 12.17H26.0701C25.2901 12.17 24.6602 11.54 24.6602 10.76V9.51001C24.6602 4.28001 28.9401 0 34.1801 0H66.6201C67.4001 0 68.0302 0.630024 68.0302 1.40002V2.65997C68.0302 7.88997 63.7501 12.17 58.5201 12.17Z" fill="#E0DCF5"/>
<path d="M52.8802 7.46002H37.7303C36.2403 7.46002 35.0303 6.24001 35.0303 4.76001C35.0303 3.27001 36.2403 2.04999 37.7303 2.04999H52.8802C54.3602 2.04999 55.5803 3.27001 55.5803 4.76001C55.5803 6.24001 54.3602 7.46002 52.8802 7.46002Z" fill="#FFFEFF"/>
<path d="M105.29 82.23C105.29 111.31 81.72 134.88 52.65 134.88C23.57 134.88 0 111.31 0 82.23C0 53.16 23.57 29.59 52.65 29.59C81.72 29.59 105.29 53.16 105.29 82.23Z" fill="#E0DCF5"/>
<path d="M105.29 82.23C105.29 111.3 81.7399 134.86 52.6799 134.88V29.59C81.7399 29.6 105.29 53.17 105.29 82.23Z" fill="#BAB6D9"/>
<path d="M29.77 57.44H75.52C81.97 57.44 87.78 61.37 90.16 67.37C91.98 71.97 92.98 76.98 92.98 82.23C92.98 104.7 74.61 122.88 52.07 122.57C30.18 122.27 12.39 104.28 12.31 82.39C12.28 77.09 13.29 72.03 15.12 67.39C17.5 61.38 23.31 57.44 29.77 57.44Z" fill="#6BA43E"/>
<path d="M92.9801 82.23C92.9801 104.61 74.7601 122.73 52.3501 122.57V57.44H75.5201C81.9701 57.44 87.7801 61.37 90.1601 67.37C91.9801 71.97 92.9801 76.98 92.9801 82.23Z" fill="#276955"/>
<path d="M56.4299 66.38H28.3199C26.8699 66.38 25.6899 65.2 25.6899 63.74V63.54C25.6899 62.09 26.8699 60.91 28.3199 60.91H56.4299C57.8899 60.91 59.0599 62.09 59.0599 63.54V63.74C59.0599 65.2 57.8899 66.38 56.4299 66.38Z" fill="#9DBE31"/>
<path d="M89.7301 98.13C85.1401 108.83 76.0501 117.14 64.8401 120.69C64.8201 120.31 64.8101 119.92 64.8101 119.53C64.8101 107.58 74.5001 97.89 86.4601 97.89C87.5701 97.89 88.6601 97.97 89.7301 98.13Z" fill="#9DBE31"/>
<path d="M14.9399 67.82C19.5299 57.12 28.6199 48.81 39.8199 45.26C39.8499 45.65 39.8599 46.03 39.8599 46.42C39.8599 58.38 30.16 68.07 18.21 68.07C17.1 68.07 15.9999 67.98 14.9399 67.82Z" fill="#FFFEFF"/>
<path d="M48.2399 94.41C48.2399 99.04 44.4899 102.79 39.8599 102.79C35.2299 102.79 31.48 99.04 31.48 94.41C31.48 89.78 35.2299 86.03 39.8599 86.03C44.4899 86.03 48.2399 89.78 48.2399 94.41Z" fill="#276955"/>
<path d="M44.25 110.75C44.25 112.81 42.58 114.48 40.52 114.48C38.46 114.48 36.79 112.81 36.79 110.75C36.79 108.69 38.46 107.01 40.52 107.01C42.58 107.01 44.25 108.69 44.25 110.75Z" fill="#276955"/>
<path d="M62.0701 110C62.0701 113.58 59.1601 116.49 55.5801 116.49C51.9901 116.49 49.0901 113.58 49.0901 110C49.0901 106.42 51.9901 103.51 55.5801 103.51C59.1601 103.51 62.0701 106.42 62.0701 110Z" fill="#276955"/>
<path d="M61.61 80.56C61.61 83.76 59.02 86.35 55.82 86.35C52.62 86.35 50.02 83.76 50.02 80.56C50.02 77.36 52.62 74.76 55.82 74.76C59.02 74.76 61.61 77.36 61.61 80.56Z" fill="#6BA43E"/>
<path d="M71.4401 71.07C71.4401 72.95 69.9102 74.48 68.0302 74.48C66.1502 74.48 64.6201 72.95 64.6201 71.07C64.6201 69.18 66.1502 67.65 68.0302 67.65C69.9102 67.65 71.4401 69.18 71.4401 71.07Z" fill="#6BA43E"/>
</svg>
