<svg width="194" height="247" viewBox="0 0 194 247" fill="none" xmlns="http://www.w3.org/2000/svg">
<path fill-rule="evenodd" clip-rule="evenodd" d="M49.0181 86.4878H-82.4158C-83.7803 86.4878 -85.1284 86.4188 -86.4568 86.2841C-97.749 85.1391 -107.635 79.2479 -114.08 70.6412C-119.006 64.0722 -121.926 55.9088 -121.926 47.0696C-121.926 25.292 -104.232 7.64365 -82.4158 7.64365H-82.4149H-50.163H-50.1621H-22.7101H21.6148H49.0677H184.02L184.052 7.6437C184.212 7.6442 184.372 7.64846 184.53 7.6564C187.08 7.78414 189.374 8.86425 191.071 10.5585C192.882 12.3575 194 14.8548 194 17.6026C194 23.1058 189.527 27.5615 184.02 27.5615H73.4247L73.376 27.5616H73.4247H73.8203H180.064V39.4334V66.5624H118.32L118.323 66.5699H184.02C184.718 66.5699 185.399 66.6412 186.056 66.777L186.066 66.7749C189.222 67.4313 191.835 69.579 193.127 72.4484C193.557 73.4013 193.84 74.4343 193.949 75.5194C193.983 75.8513 194 76.1881 194 76.5289C194 81.6882 190.069 85.9268 185.04 86.4364C184.704 86.4704 184.364 86.4878 184.02 86.4878L49.0677 86.4879L49.0181 86.4878ZM90.5165 66.5699L90.5131 66.5624H73.5616H73.4247C73.3651 66.5624 73.3054 66.5621 73.2459 66.5616C73.4209 66.5667 73.5965 66.5695 73.7728 66.5699H90.5165ZM187.849 147.581C186.67 147.09 185.377 146.818 184.02 146.818L180.064 146.818V119.689V107.818H184.02C189.527 107.818 194 103.362 194 97.8587C194 95.4678 193.158 93.277 191.753 91.5639C190.126 89.5705 187.743 88.2178 185.039 87.9437C184.704 87.9097 184.364 87.8923 184.02 87.8923H49.0677H21.6148H-22.7101H-50.1621H-50.163H-82.4149H-82.4158C-104.232 87.8923 -121.926 105.548 -121.926 127.326C-121.926 135.748 -119.275 143.551 -114.764 149.953C-108.347 159.072 -98.1566 165.354 -86.4568 166.54C-85.1284 166.675 -83.7803 166.744 -82.4158 166.744H-50.163H-22.7101H21.6148H49.0677H184.02C184.364 166.744 184.704 166.727 185.04 166.692C190.069 166.182 194 161.937 194 156.778C194 156.606 193.996 156.435 193.987 156.265C193.953 155.592 193.851 154.936 193.689 154.304C192.907 151.257 190.714 148.771 187.849 147.581ZM-110.318 179.668C-103.172 172.55 -93.3083 168.148 -82.4149 168.148H-50.163H-50.1621H-22.7101H21.6148H49.0677H184.02C187.448 168.148 190.468 169.875 192.264 172.501C193.36 174.097 194 176.029 194 178.108C194 183.611 189.527 188.067 184.02 188.067H73.6435C73.5116 188.068 73.38 188.071 73.2488 188.075C62.5357 188.169 53.8828 196.862 53.8828 207.574C53.8828 218.338 62.6306 227.075 73.4247 227.075H73.5616C72.5651 224.729 72.0098 222.148 72.0098 219.438C72.0098 208.675 80.7576 199.938 91.5517 199.938H180.064V227.075H116.122C116.122 227.075 116.122 227.075 116.122 227.075H184.02C185.744 227.075 187.363 227.51 188.778 228.28C191.886 229.965 194 233.25 194 237.034L194 237.034C194 238.389 193.729 239.679 193.239 240.856C191.736 244.463 188.172 247 184.02 247H49.0677L48.9748 247H21.6148H-22.7101C-22.9557 247 -23.2008 246.998 -23.4454 246.993H-23.4496C-23.2036 246.998 -22.9571 247 -22.7101 247L-50.163 247H-82.4158C-94.5293 247 -105.369 241.557 -112.616 232.988C-118.422 226.129 -121.926 217.258 -121.926 207.575C-121.926 196.673 -117.488 186.804 -110.318 179.668ZM88.1411 227.075C88.1409 227.075 88.1408 227.075 88.1406 227.075H73.7778L73.8203 227.075H73.2462C73.3056 227.075 73.3651 227.075 73.4247 227.075H88.1411Z" fill="black" fill-opacity="0.15"/>
<path d="M170.989 222.354C172.8 224.153 173.918 226.643 173.918 229.391C173.918 234.894 169.445 239.35 163.938 239.35H-102.498C-113.406 239.35 -123.28 234.939 -130.43 227.804C-137.58 220.677 -142 210.816 -142 199.931C-142 178.161 -124.314 160.513 -102.498 160.513H163.938C166.692 160.513 169.179 161.621 170.989 163.428C172.8 165.227 173.918 167.716 173.918 170.464C173.918 175.975 169.445 180.431 163.938 180.431H53.3426C42.5562 180.431 33.8008 189.16 33.8008 199.931C33.8008 208.828 39.7645 216.327 47.919 218.673C49.6457 219.166 51.4637 219.439 53.3426 219.439H163.938C166.692 219.439 169.179 220.547 170.989 222.354Z" fill="#C92E41"/>
<path d="M48.2992 218.664C50.026 219.157 51.844 219.438 53.7381 219.438H48.6187H48.4818C47.4701 219.438 46.4736 219.355 45.5075 219.211C36.1284 217.776 28.9399 209.692 28.9399 199.93C28.9399 199.93 28.9399 199.93 28.9399 199.923C28.9399 190.169 36.1284 182.085 45.5075 180.65C46.4736 180.506 47.4701 180.43 48.4818 180.43H48.6187H53.7381C51.844 180.43 50.026 180.703 48.2992 181.197C47.7972 181.341 47.3027 181.508 46.8159 181.69C46.8083 181.69 46.8007 181.69 46.8007 181.698C45.8499 182.054 44.937 182.487 44.0699 182.98C44.009 183.018 43.9558 183.049 43.9025 183.079C43.4917 183.322 43.0886 183.572 42.7006 183.838C42.6626 183.861 42.6246 183.891 42.5865 183.914C42.2214 184.172 41.8639 184.438 41.514 184.719C41.4759 184.749 41.4303 184.779 41.3847 184.817C41.0347 185.106 40.7 185.402 40.373 185.713C40.2969 185.781 40.2284 185.842 40.16 185.91C39.8329 186.222 39.521 186.54 39.2243 186.874C39.1787 186.927 39.133 186.973 39.0874 187.026C38.8212 187.33 38.5625 187.641 38.3115 187.967C38.2507 188.036 38.1974 188.104 38.1442 188.172C37.8779 188.522 37.6269 188.878 37.3911 189.243C37.3302 189.334 37.2694 189.432 37.2085 189.523C36.9727 189.895 36.7521 190.275 36.5391 190.662C36.5087 190.73 36.4783 190.791 36.4402 190.852C36.2577 191.201 36.0751 191.565 35.9154 191.93C35.8697 192.028 35.8241 192.12 35.7861 192.218C35.6111 192.62 35.4514 193.023 35.3068 193.44C35.2688 193.547 35.2308 193.653 35.2003 193.767C35.0558 194.192 34.9189 194.624 34.8048 195.065C34.7972 195.11 34.7896 195.163 34.7744 195.209C34.6679 195.626 34.5842 196.051 34.5005 196.477C34.4853 196.575 34.4701 196.682 34.4549 196.788C34.3788 197.236 34.3179 197.691 34.2799 198.154C34.2647 198.253 34.2571 198.351 34.2495 198.458C34.2191 198.943 34.1962 199.429 34.1962 199.915C34.1962 199.923 34.1962 199.923 34.1962 199.93C34.1962 199.938 34.1962 199.938 34.1962 199.946C34.1962 200.439 34.2191 200.925 34.2495 201.403C34.2571 201.502 34.2647 201.608 34.2799 201.707C34.3179 202.17 34.3788 202.625 34.4549 203.08C34.4701 203.179 34.4853 203.278 34.5005 203.384C34.5842 203.817 34.6679 204.234 34.7744 204.652C34.7896 204.697 34.7972 204.75 34.8048 204.796C34.9189 205.236 35.0558 205.669 35.2003 206.102C35.2308 206.208 35.2688 206.314 35.3068 206.42C35.4514 206.838 35.6111 207.248 35.7861 207.642C35.8241 207.741 35.8697 207.832 35.9154 207.931C36.0751 208.295 36.2577 208.66 36.4402 209.009C36.4783 209.069 36.5087 209.138 36.5391 209.198C36.7521 209.586 36.9727 209.965 37.2085 210.337C37.2694 210.428 37.3302 210.527 37.3911 210.618C37.6269 210.982 37.8779 211.339 38.1442 211.688C38.1974 211.757 38.2507 211.825 38.3115 211.893C38.5625 212.22 38.8212 212.531 39.0874 212.834C39.133 212.888 39.1787 212.941 39.2243 212.986C39.521 213.32 39.8329 213.639 40.16 213.95C40.2284 214.019 40.2969 214.087 40.373 214.148C40.7 214.459 41.0347 214.762 41.3847 215.043C41.4303 215.081 41.4759 215.112 41.514 215.142C41.8639 215.423 42.2214 215.688 42.5865 215.947C42.6246 215.977 42.6626 216 42.7006 216.03C43.0886 216.296 43.4917 216.546 43.9025 216.782C43.9558 216.812 44.009 216.85 44.0699 216.873C44.937 217.374 45.8499 217.806 46.8007 218.163C46.8007 218.171 46.8083 218.171 46.8159 218.171C47.3027 218.353 47.7972 218.52 48.2992 218.664Z" fill="#EC313A"/>
<path d="M1.53271 239.356H-42.7921C-57.3211 239.356 -70.0168 231.523 -76.8782 219.856H-32.5534C-25.692 231.523 -12.9963 239.356 1.53271 239.356Z" fill="#951E41"/>
<path d="M173.918 229.39C173.918 234.893 169.445 239.356 163.938 239.356H28.9857C14.4567 239.356 1.76099 231.523 -5.10034 219.856H163.938C164.638 219.856 165.322 219.78 165.984 219.643C170.51 220.584 173.918 224.592 173.918 229.39Z" fill="#951E41"/>
<path d="M28.9855 239.356H1.5326C-12.9964 239.356 -25.6921 231.523 -32.5535 219.856H-5.10053C1.76081 231.523 14.4566 239.356 28.9855 239.356Z" fill="#F9892D"/>
<path d="M159.982 180.43V219.431H53.3427C42.5562 219.431 33.8008 210.701 33.8008 199.93C33.8008 189.159 42.5562 180.43 53.3427 180.43H159.982Z" fill="#DFDFDF"/>
<path d="M53.4796 219.431H53.3427C42.5562 219.431 33.8008 210.701 33.8008 199.93C33.8008 189.159 42.5562 180.43 53.3427 180.43H159.982V192.302H71.4697C60.6756 192.302 51.9278 201.031 51.9278 211.802C51.9278 214.512 52.4831 217.085 53.4796 219.431Z" fill="#C6C6C6"/>
<path d="M-17.8723 165.59H9.58063C-2.4153 172.361 -10.5241 185.197 -10.5241 199.93C-10.5241 207.202 -8.53877 214.003 -5.1005 219.856H-32.5534C-35.9917 214.003 -37.9695 207.202 -37.9695 199.93C-37.9695 185.197 -29.8682 172.361 -17.8723 165.59Z" fill="#FFB43A"/>
<path d="M166.767 165.59H9.58057C15.3161 162.364 21.934 160.504 28.9855 160.504H163.938C168.738 160.504 172.739 163.89 173.697 168.399C171.902 166.668 169.46 165.59 166.767 165.59Z" fill="#EC313A"/>
<path d="M1.53275 160.504C-5.51876 160.504 -12.1367 162.364 -17.8722 165.59H-62.197C-56.4615 162.364 -49.8436 160.504 -42.7921 160.504H1.53275Z" fill="#EC313A"/>
<path d="M28.9856 160.504C21.9341 160.504 15.3162 162.364 9.58062 165.59H-17.8723C-12.1368 162.364 -5.51888 160.504 1.53263 160.504H28.9856Z" fill="#FFD466"/>
<path d="M170.989 142.097C172.8 143.896 173.918 146.386 173.918 149.141C173.918 154.645 169.445 159.1 163.938 159.1H-102.498C-113.406 159.1 -123.28 154.69 -130.43 147.555C-137.58 140.42 -142 130.567 -142 119.682C-142 97.9119 -124.314 80.256 -102.498 80.256H163.938C166.692 80.256 169.179 81.3718 170.989 83.1708C172.8 84.9698 173.918 87.4596 173.918 90.215C173.918 95.7182 169.445 100.174 163.938 100.174H53.3426C42.5562 100.174 33.8008 108.903 33.8008 119.682C33.8008 128.571 39.7645 136.078 47.919 138.416C49.6457 138.909 51.4637 139.182 53.3426 139.182H163.938C166.692 139.182 169.179 140.291 170.989 142.097Z" fill="#6BA43E"/>
<path d="M48.2992 138.408C50.026 138.909 51.844 139.182 53.7381 139.182H48.6187H48.4818C47.4701 139.182 46.4736 139.106 45.5075 138.955C36.1284 137.528 28.9399 129.444 28.9399 119.682V119.674C28.9399 109.913 36.1284 101.829 45.5075 100.402C46.4736 100.25 47.4701 100.174 48.4818 100.174H48.6187H53.7381C51.844 100.174 50.026 100.447 48.2992 100.948C47.7972 101.092 47.3027 101.252 46.8159 101.434C46.8083 101.442 46.8007 101.442 46.8007 101.442C45.8499 101.806 44.937 102.231 44.0699 102.732C44.009 102.762 43.9558 102.793 43.9025 102.823C43.4917 103.066 43.0886 103.316 42.7006 103.582C42.6626 103.605 42.6246 103.635 42.5865 103.666C42.2214 103.916 41.8639 104.182 41.514 104.463C41.4759 104.501 41.4303 104.531 41.3847 104.561C41.0347 104.85 40.7 105.146 40.373 105.457C40.2969 105.525 40.2284 105.594 40.16 105.654C39.8329 105.973 39.521 106.284 39.2243 106.618C39.1787 106.672 39.133 106.725 39.0874 106.77C38.8212 107.074 38.5625 107.393 38.3115 107.712C38.2507 107.78 38.1974 107.848 38.1442 107.924C37.8779 108.266 37.6269 108.622 37.3911 108.987C37.3302 109.078 37.2694 109.176 37.2085 109.275C36.9727 109.647 36.7521 110.027 36.5391 110.406C36.5087 110.467 36.4783 110.535 36.4402 110.596C36.2577 110.953 36.0751 111.317 35.9154 111.674C35.8697 111.772 35.8241 111.864 35.7861 111.962C35.6111 112.365 35.4514 112.767 35.3068 113.184C35.2688 113.298 35.2308 113.405 35.2003 113.511C35.0558 113.943 34.9189 114.376 34.8048 114.809C34.7972 114.862 34.7896 114.907 34.7744 114.953C34.6679 115.37 34.5842 115.796 34.5005 116.221C34.4853 116.327 34.4701 116.426 34.4549 116.532C34.3788 116.98 34.3179 117.443 34.2799 117.898C34.2647 117.997 34.2571 118.103 34.2495 118.202C34.2191 118.688 34.1962 119.173 34.1962 119.667V119.674C34.1962 119.682 34.1962 119.69 34.1962 119.69C34.1962 120.183 34.2191 120.669 34.2495 121.147C34.2571 121.253 34.2647 121.352 34.2799 121.458C34.3179 121.914 34.3788 122.369 34.4549 122.824C34.4701 122.923 34.4853 123.029 34.5005 123.136C34.5842 123.561 34.6679 123.986 34.7744 124.403C34.7896 124.449 34.7972 124.494 34.8048 124.54C34.9189 124.98 35.0558 125.413 35.2003 125.846C35.2308 125.952 35.2688 126.058 35.3068 126.172C35.4514 126.589 35.6111 126.992 35.7861 127.394C35.8241 127.485 35.8697 127.584 35.9154 127.675C36.0751 128.039 36.2577 128.404 36.4402 128.76C36.4783 128.821 36.5087 128.882 36.5391 128.943C36.7521 129.33 36.9727 129.709 37.2085 130.081C37.2694 130.18 37.3302 130.271 37.3911 130.37C37.6269 130.726 37.8779 131.083 38.1442 131.432C38.1974 131.508 38.2507 131.576 38.3115 131.637C38.5625 131.964 38.8212 132.275 39.0874 132.586C39.133 132.632 39.1787 132.685 39.2243 132.738C39.521 133.072 39.8329 133.383 40.16 133.694C40.2284 133.763 40.2969 133.831 40.373 133.899C40.7 134.211 41.0347 134.506 41.3847 134.795C41.4303 134.825 41.4759 134.856 41.514 134.886C41.8639 135.174 42.2214 135.44 42.5865 135.691C42.6246 135.721 42.6626 135.744 42.7006 135.774C43.0886 136.04 43.4917 136.29 43.9025 136.533C43.9558 136.564 44.009 136.594 44.0699 136.624C44.937 137.118 45.8499 137.55 46.8007 137.915C46.8007 137.915 46.8083 137.915 46.8159 137.922C47.3027 138.104 47.7972 138.264 48.2992 138.408Z" fill="#9DBE31"/>
<path d="M1.53271 159.1H-42.7921C-57.3211 159.1 -70.0168 151.267 -76.8782 139.6H-32.5534C-25.692 151.267 -12.9963 159.1 1.53271 159.1Z" fill="#4A8B47"/>
<path d="M173.918 149.141C173.918 154.645 169.445 159.1 163.938 159.1H28.9857C14.4567 159.1 1.76099 151.267 -5.10034 139.6H163.938C164.638 139.6 165.322 139.524 165.984 139.387C170.51 140.336 173.918 144.336 173.918 149.141Z" fill="#4A8B47"/>
<path d="M28.9855 159.1H1.5326C-12.9964 159.1 -25.6921 151.267 -32.5535 139.6H-5.10053C1.76081 151.267 14.4566 159.1 28.9855 159.1Z" fill="#F9892D"/>
<path d="M159.982 100.182V139.175H53.3427C42.5562 139.175 33.8008 130.446 33.8008 119.674C33.8008 108.903 42.5562 100.182 53.3427 100.182H159.982Z" fill="#DFDFDF"/>
<path d="M53.4796 139.175H53.3427C42.5562 139.175 33.8008 130.446 33.8008 119.674C33.8008 108.903 42.5562 100.182 53.3427 100.182H159.982V112.046H71.4697C60.6756 112.046 51.9278 120.775 51.9278 131.546C51.9278 134.256 52.4831 136.837 53.4796 139.175Z" fill="#C6C6C6"/>
<path d="M-17.8723 85.3418H9.58063C-2.4153 92.1051 -10.5241 104.949 -10.5241 119.674C-10.5241 126.946 -8.53877 133.755 -5.1005 139.6H-32.5534C-35.9917 133.755 -37.9695 126.946 -37.9695 119.674C-37.9695 104.949 -29.8682 92.1051 -17.8723 85.3418Z" fill="#FFB43A"/>
<path d="M166.767 85.3417H9.58057C15.3161 82.1081 21.934 80.256 28.9855 80.256H163.938C168.738 80.256 172.739 83.6339 173.697 88.1427C171.902 86.4121 169.46 85.3417 166.767 85.3417Z" fill="#9DBE31"/>
<path d="M1.53275 80.256C-5.51876 80.256 -12.1367 82.1081 -17.8722 85.3417H-62.197C-56.4615 82.1081 -49.8436 80.256 -42.7921 80.256H1.53275Z" fill="#9DBE31"/>
<path d="M28.9856 80.256C21.9341 80.256 15.3162 82.1081 9.58062 85.3417H-17.8723C-12.1368 82.1081 -5.51888 80.256 1.53263 80.256H28.9856Z" fill="#FFD466"/>
<path d="M170.989 61.8411C172.8 63.6477 173.918 66.1374 173.918 68.8852C173.918 74.3885 169.445 78.8442 163.938 78.8442H-102.498C-113.406 78.8442 -123.28 74.434 -130.43 67.2988C-137.58 60.1712 -142 50.3109 -142 39.4258C-142 17.6558 -124.314 0 -102.498 0H163.938C166.692 0 169.179 1.11581 170.989 2.92239C172.8 4.72137 173.918 7.21112 173.918 9.95894C173.918 15.4622 169.445 19.9179 163.938 19.9179H53.3426C42.5562 19.9179 33.8008 28.6547 33.8008 39.4258C33.8008 48.3221 39.7645 55.8217 47.919 58.1596C49.6457 58.6606 51.4637 58.9263 53.3426 58.9263H163.938C166.692 58.9263 169.179 60.0421 170.989 61.8411Z" fill="#FFA01E"/>
<path d="M48.2992 58.1596C50.026 58.653 51.844 58.9262 53.7381 58.9262H48.6187H48.4818C47.4701 58.9262 46.4736 58.8503 45.5075 58.7061C36.1284 57.2714 28.9399 49.1874 28.9399 39.4258C28.9399 39.4258 28.9399 39.4258 28.9399 39.4182C28.9399 29.6642 36.1284 21.5726 45.5075 20.1456C46.4736 20.0014 47.4701 19.9178 48.4818 19.9178H48.6187H53.7381C51.844 19.9178 50.026 20.1987 48.2992 20.6921C47.7972 20.8363 47.3027 21.0033 46.8159 21.1855C46.8083 21.1855 46.8007 21.1854 46.8007 21.193C45.8499 21.5498 44.937 21.9825 44.0699 22.4759C44.009 22.5062 43.9558 22.5366 43.9025 22.5745C43.4917 22.8099 43.0886 23.0603 42.7006 23.326C42.6626 23.3564 42.6246 23.3791 42.5865 23.4095C42.2214 23.6676 41.8639 23.9333 41.514 24.2142C41.4759 24.2445 41.4303 24.2749 41.3847 24.3128C41.0347 24.5937 40.7 24.8973 40.373 25.2009C40.2969 25.2692 40.2284 25.3375 40.16 25.4058C39.8329 25.7095 39.521 26.0359 39.2243 26.3699C39.1787 26.4154 39.133 26.4685 39.0874 26.5217C38.8212 26.8253 38.5625 27.1365 38.3115 27.4629C38.2507 27.5312 38.1974 27.5995 38.1442 27.6679C37.8779 28.017 37.6269 28.3738 37.3911 28.7382C37.3302 28.8292 37.2694 28.9279 37.2085 29.019C36.9727 29.391 36.7521 29.7705 36.5391 30.1576C36.5087 30.2183 36.4783 30.2866 36.4402 30.3398C36.2577 30.6965 36.0751 31.0609 35.9154 31.4253C35.8697 31.524 35.8241 31.615 35.7861 31.7061C35.6111 32.1084 35.4514 32.5183 35.3068 32.9282C35.2688 33.0421 35.2308 33.1483 35.2003 33.2546C35.0558 33.6872 34.9189 34.12 34.8048 34.5602C34.7972 34.6058 34.7896 34.6589 34.7744 34.7044C34.6679 35.1219 34.5842 35.5394 34.5005 35.9721C34.4853 36.0708 34.4701 36.177 34.4549 36.2757C34.3788 36.7236 34.3179 37.1866 34.2799 37.642C34.2647 37.7483 34.2571 37.847 34.2495 37.9532C34.2191 38.4314 34.1962 38.9172 34.1962 39.4106C34.1962 39.4182 34.1962 39.4182 34.1962 39.4182C34.1962 39.4258 34.1962 39.4334 34.1962 39.441C34.1962 39.9268 34.2191 40.4126 34.2495 40.8984C34.2571 40.9971 34.2647 41.1034 34.2799 41.2021C34.3179 41.6651 34.3788 42.1205 34.4549 42.5683C34.4701 42.6746 34.4853 42.7733 34.5005 42.8796C34.5842 43.3046 34.6679 43.7298 34.7744 44.1472C34.7896 44.1928 34.7972 44.2383 34.8048 44.2914C34.9189 44.7317 35.0558 45.1643 35.2003 45.5894C35.2308 45.6957 35.2688 45.8096 35.3068 45.9158C35.4514 46.3257 35.6111 46.7356 35.7861 47.1379C35.8241 47.2366 35.8697 47.3277 35.9154 47.4188C36.0751 47.7907 36.2577 48.1475 36.4402 48.5043C36.4783 48.565 36.5087 48.6257 36.5391 48.6864C36.7521 49.0812 36.9727 49.4607 37.2085 49.825C37.2694 49.9237 37.3302 50.0148 37.3911 50.1135C37.6269 50.4778 37.8779 50.8345 38.1442 51.1837C38.1974 51.252 38.2507 51.3203 38.3115 51.3887C38.5625 51.7075 38.8212 52.0263 39.0874 52.3299C39.133 52.383 39.1787 52.4286 39.2243 52.4818C39.521 52.8158 39.8329 53.1346 40.16 53.4458C40.2284 53.5065 40.2969 53.5748 40.373 53.6431C40.7 53.9543 41.0347 54.2504 41.3847 54.5388C41.4303 54.5692 41.4759 54.6071 41.514 54.6375C41.8639 54.9183 42.2214 55.1841 42.5865 55.4421C42.6246 55.4649 42.6626 55.4953 42.7006 55.518C43.0886 55.7837 43.4917 56.0342 43.9025 56.2771C43.9558 56.3075 44.009 56.3378 44.0699 56.3758C44.937 56.8616 45.8499 57.3018 46.8007 57.6586C46.8007 57.6586 46.8083 57.6662 46.8159 57.6662C47.3027 57.8483 47.7972 58.0078 48.2992 58.1596Z" fill="#FEC04D"/>
<path d="M1.53271 78.8519H-42.7921C-57.3211 78.8519 -70.0168 71.0107 -76.8782 59.3438H-32.5534C-25.692 71.0107 -12.9963 78.8519 1.53271 78.8519Z" fill="#EA7218"/>
<path d="M173.918 68.8852C173.918 74.3885 169.445 78.8518 163.938 78.8518H28.9857C14.4567 78.8518 1.76099 71.0106 -5.10034 59.3437H163.938C164.638 59.3437 165.322 59.2755 165.984 59.1389C170.51 60.0801 173.918 64.0803 173.918 68.8852Z" fill="#EA7218"/>
<path d="M28.9855 78.8519H1.5326C-12.9964 78.8519 -25.6921 71.0107 -32.5535 59.3438H-5.10053C1.76081 71.0107 14.4566 78.8519 28.9855 78.8519Z" fill="#8F1E41"/>
<path d="M159.982 19.9255V58.9263H53.3427C42.5562 58.9263 33.8008 50.1894 33.8008 39.4258C33.8008 28.6547 42.5562 19.9255 53.3427 19.9255H159.982Z" fill="#DFDFDF"/>
<path d="M53.4796 58.9263H53.3427C42.5562 58.9263 33.8008 50.1894 33.8008 39.4258C33.8008 28.6547 42.5562 19.9255 53.3427 19.9255H159.982V31.7897H71.4697C60.6756 31.7897 51.9278 40.5265 51.9278 51.29C51.9278 53.9999 52.4831 56.5808 53.4796 58.9263Z" fill="#C6C6C6"/>
<path d="M-17.8723 5.08563H9.58063C-2.4153 11.8565 -10.5241 24.6923 -10.5241 39.4258C-10.5241 46.6976 -8.53877 53.4988 -5.1005 59.3437H-32.5534C-35.9917 53.4988 -37.9695 46.6976 -37.9695 39.4258C-37.9695 24.6923 -29.8682 11.8565 -17.8723 5.08563Z" fill="#C32E41"/>
<path d="M166.767 5.08571H9.58057C15.3161 1.85208 21.934 0 28.9855 0H163.938C168.738 0 172.739 3.38545 173.697 7.88671C171.902 6.15604 169.46 5.08571 166.767 5.08571Z" fill="#FEC04D"/>
<path d="M1.53275 0C-5.51876 0 -12.1367 1.85208 -17.8722 5.08571H-62.197C-56.4615 1.85208 -49.8436 0 -42.7921 0H1.53275Z" fill="#FEC04D"/>
<path d="M28.9856 0C21.9341 0 15.3162 1.85208 9.58062 5.08571H-17.8723C-12.1368 1.85208 -5.51888 0 1.53263 0H28.9856Z" fill="#EC536D"/>
<path d="M55.967 39.4258H84.4089C93.8261 48.2386 99.341 58.0913 100.961 68.9915L86.6224 59.3058L74.2766 68.9915C70.0777 55.7079 63.977 45.8551 55.967 39.4258Z" fill="#30262D"/>
<path d="M117.818 124.396H146.26C155.677 133.209 161.192 143.061 162.805 153.961L148.466 144.268L136.127 153.961C131.928 140.678 125.828 130.825 117.818 124.396Z" fill="#30262D"/>
<path d="M55.967 204.652H84.4089C93.8261 213.457 99.341 223.317 100.961 234.217L86.6224 224.524L74.2766 234.217C70.0777 220.926 63.977 211.073 55.967 204.652Z" fill="#30262D"/>
</svg>
