<svg width="163" height="181" viewBox="0 0 163 181" fill="none" xmlns="http://www.w3.org/2000/svg">
<path fill-rule="evenodd" clip-rule="evenodd" d="M145.57 10.06L162.101 25.94C162.49 26.17 162.78 26.54 162.9 26.98L162.97 27.07L162.971 178.4L162.97 178.81C162.97 179.78 162.18 180.57 161.21 180.57H40.3105C40.0391 180.57 39.7754 180.509 39.5396 180.393L39.4771 180.36L39.4404 180.34C39.3535 180.288 39.2705 180.229 39.1934 180.163C39.1143 180.095 39.0405 180.02 38.9746 179.94C38.9561 179.917 38.938 179.894 38.9204 179.87L38.8506 179.78L26.9102 164.43L26.9004 164.41L26.8877 164.394C26.5859 164.078 26.4004 163.65 26.4004 163.18V11.83C26.4004 10.85 27.1904 10.06 28.1602 10.06H145.57Z" fill="black" fill-opacity="0.15"/>
<path d="M136.57 17V168.74C136.57 169.71 135.78 170.51 134.81 170.51H13.92C13.6 170.51 13.3 170.42 13.04 170.27C12.84 170.15 12.66 169.99 12.52 169.8L12.45 169.71L0.51001 154.36L0.5 154.35L0.459961 154.29L1.03998 153.41L12.16 136.73V17.39C12.16 16.42 12.95 15.63 13.92 15.63H113.94L123.96 0.58L124.11 0.780001L124.12 0.799999L135.7 15.88C136.09 16.1 136.38 16.48 136.5 16.91L136.57 17Z" fill="#29489B"/>
<path d="M134.81 170.51H13.92C13.6 170.51 13.3 170.42 13.04 170.27C12.84 170.15 12.66 169.99 12.52 169.8L12.45 169.71L0.51001 154.36L0.5 154.35L0.459961 154.29L1.03998 153.41L121.43 154.87L134.81 170.51Z" fill="#283674"/>
<path d="M124.41 1.76V153.11C124.41 154.08 123.62 154.87 122.65 154.87H1.76001C0.79001 154.87 0 154.08 0 153.11V1.76C0 0.79 0.79001 0 1.76001 0H122.65C123.62 0 124.41 0.79 124.41 1.76Z" fill="#59A1F6"/>
<path d="M124.41 1.75V153.11C124.41 154.08 123.62 154.87 122.65 154.87H1.76001C0.79001 154.87 0 154.08 0 153.11C0 140.5 4.15 128.24 11.81 118.22L91.88 13.48C98.38 4.98 108.47 0 119.17 0H122.65C123.62 0 124.41 0.78 124.41 1.75Z" fill="#3162C2"/>
<path d="M112.58 31.56V46.39C112.58 50.44 109.3 53.72 105.25 53.72H20.6198C16.5698 53.72 13.2798 50.44 13.2798 46.39V31.56C13.2798 27.52 16.5698 24.23 20.6198 24.23H105.25C109.3 24.23 112.58 27.52 112.58 31.56Z" fill="white"/>
<path d="M112.58 31.56V46.39C112.58 50.44 109.3 53.72 105.25 53.72H61.1201L83.6702 24.23H105.25C109.3 24.23 112.58 27.52 112.58 31.56Z" fill="#E0DCF5"/>
<path d="M112.58 31.56V33.13C112.58 29.08 109.3 25.79 105.25 25.79H20.6198C16.5698 25.79 13.2798 29.08 13.2798 33.13V31.56C13.2798 27.51 16.5698 24.23 20.6198 24.23H105.25C109.3 24.23 112.58 27.51 112.58 31.56Z" fill="#737194"/>
<path d="M136.57 168.34V168.74C136.57 169.71 135.78 170.51 134.81 170.51L121.43 154.87H122.65C123.62 154.87 124.41 154.09 124.41 153.11L136.57 168.34Z" fill="#3162C2"/>
<path d="M24.1196 77.98H19.2896C16.4496 77.98 14.1396 75.67 14.1396 72.83V72.44C14.1396 69.59 16.4496 67.29 19.2896 67.29H24.1196C26.9596 67.29 29.2697 69.59 29.2697 72.44V72.83C29.2697 75.67 26.9596 77.98 24.1196 77.98Z" fill="#737194"/>
<path d="M23.2598 77.19H18.4398C15.5898 77.19 13.2798 74.89 13.2798 72.05V71.66C13.2798 68.81 15.5898 66.51 18.4398 66.51H23.2598C26.1098 66.51 28.4098 68.81 28.4098 71.66V72.05C28.4098 74.89 26.1098 77.19 23.2598 77.19Z" fill="white"/>
<path d="M44.9498 77.98H40.1198C37.2798 77.98 34.9697 75.67 34.9697 72.83V72.44C34.9697 69.59 37.2798 67.29 40.1198 67.29H44.9498C47.7898 67.29 50.0997 69.59 50.0997 72.44V72.83C50.0997 75.67 47.7898 77.98 44.9498 77.98Z" fill="#737194"/>
<path d="M44.0896 77.19H39.2596C36.4196 77.19 34.1196 74.89 34.1196 72.05V71.66C34.1196 68.81 36.4196 66.51 39.2596 66.51H44.0896C46.9296 66.51 49.2396 68.81 49.2396 71.66V72.05C49.2396 74.89 46.9296 77.19 44.0896 77.19Z" fill="white"/>
<path d="M65.7798 77.98H60.9498C58.0998 77.98 55.7998 75.67 55.7998 72.83V72.44C55.7998 69.59 58.0998 67.29 60.9498 67.29H65.7798C68.6198 67.29 70.9297 69.59 70.9297 72.44V72.83C70.9297 75.67 68.6198 77.98 65.7798 77.98Z" fill="#737194"/>
<path d="M64.92 77.19H60.0899C57.2499 77.19 54.9399 74.89 54.9399 72.05V71.66C54.9399 68.81 57.2499 66.51 60.0899 66.51H64.92C67.76 66.51 70.0699 68.81 70.0699 71.66V72.05C70.0699 74.89 67.76 77.19 64.92 77.19Z" fill="white"/>
<path d="M86.6099 77.98H81.7799C78.9399 77.98 76.6299 75.67 76.6299 72.83V72.44C76.6299 69.59 78.9399 67.29 81.7799 67.29H86.6099C89.4499 67.29 91.7499 69.59 91.7499 72.44V72.83C91.7499 75.67 89.4499 77.98 86.6099 77.98Z" fill="#737194"/>
<path d="M85.75 77.19H80.92C78.08 77.19 75.77 74.89 75.77 72.05V71.66C75.77 68.81 78.08 66.51 80.92 66.51H85.75C88.59 66.51 90.9 68.81 90.9 71.66V72.05C90.9 74.89 88.59 77.19 85.75 77.19Z" fill="white"/>
<path d="M107.429 77.98H102.609C99.7595 77.98 97.4595 75.67 97.4595 72.83V72.44C97.4595 69.59 99.7595 67.29 102.609 67.29H107.429C110.279 67.29 112.579 69.59 112.579 72.44V72.83C112.579 75.67 110.279 77.98 107.429 77.98Z" fill="#EA5443"/>
<path d="M106.58 77.19H101.75C98.8996 77.19 96.5996 74.89 96.5996 72.05V71.66C96.5996 68.81 98.8996 66.51 101.75 66.51H106.58C109.42 66.51 111.73 68.81 111.73 71.66V72.05C111.73 74.89 109.42 77.19 106.58 77.19Z" fill="#FDC853"/>
<path d="M24.1196 102.23H19.2896C16.4496 102.23 14.1396 99.92 14.1396 97.08V96.69C14.1396 93.84 16.4496 91.54 19.2896 91.54H24.1196C26.9596 91.54 29.2697 93.84 29.2697 96.69V97.08C29.2697 99.92 26.9596 102.23 24.1196 102.23Z" fill="#737194"/>
<path d="M23.2598 101.45H18.4398C15.5898 101.45 13.2798 99.14 13.2798 96.3V95.91C13.2798 93.06 15.5898 90.76 18.4398 90.76H23.2598C26.1098 90.76 28.4098 93.06 28.4098 95.91V96.3C28.4098 99.14 26.1098 101.45 23.2598 101.45Z" fill="white"/>
<path d="M44.9498 102.23H40.1198C37.2798 102.23 34.9697 99.92 34.9697 97.08V96.69C34.9697 93.84 37.2798 91.54 40.1198 91.54H44.9498C47.7898 91.54 50.0997 93.84 50.0997 96.69V97.08C50.0997 99.92 47.7898 102.23 44.9498 102.23Z" fill="#737194"/>
<path d="M44.0896 101.45H39.2596C36.4196 101.45 34.1196 99.14 34.1196 96.3V95.91C34.1196 93.06 36.4196 90.76 39.2596 90.76H44.0896C46.9296 90.76 49.2396 93.06 49.2396 95.91V96.3C49.2396 99.14 46.9296 101.45 44.0896 101.45Z" fill="white"/>
<path d="M65.7798 102.23H60.9498C58.0998 102.23 55.7998 99.92 55.7998 97.08V96.69C55.7998 93.84 58.0998 91.54 60.9498 91.54H65.7798C68.6198 91.54 70.9297 93.84 70.9297 96.69V97.08C70.9297 99.92 68.6198 102.23 65.7798 102.23Z" fill="#737194"/>
<path d="M64.92 101.45H60.0899C57.2499 101.45 54.9399 99.14 54.9399 96.3V95.91C54.9399 93.06 57.2499 90.76 60.0899 90.76H64.92C67.76 90.76 70.0699 93.06 70.0699 95.91V96.3C70.0699 99.14 67.76 101.45 64.92 101.45Z" fill="white"/>
<path d="M86.6099 102.23H81.7799C78.9399 102.23 76.6299 99.92 76.6299 97.08V96.69C76.6299 93.84 78.9399 91.54 81.7799 91.54H86.6099C89.4499 91.54 91.7499 93.84 91.7499 96.69V97.08C91.7499 99.92 89.4499 102.23 86.6099 102.23Z" fill="#737194"/>
<path d="M85.75 101.45H80.92C78.08 101.45 75.77 99.14 75.77 96.3V95.91C75.77 93.06 78.08 90.76 80.92 90.76H85.75C88.59 90.76 90.9 93.06 90.9 95.91V96.3C90.9 99.14 88.59 101.45 85.75 101.45Z" fill="white"/>
<path d="M107.429 102.23H102.609C99.7595 102.23 97.4595 99.92 97.4595 97.08V96.69C97.4595 93.84 99.7595 91.54 102.609 91.54H107.429C110.279 91.54 112.579 93.84 112.579 96.69V97.08C112.579 99.92 110.279 102.23 107.429 102.23Z" fill="#737194"/>
<path d="M106.58 101.45H101.75C98.8996 101.45 96.5996 99.14 96.5996 96.3V95.91C96.5996 93.06 98.8996 90.76 101.75 90.76H106.58C109.42 90.76 111.73 93.06 111.73 95.91V96.3C111.73 99.14 109.42 101.45 106.58 101.45Z" fill="white"/>
<path d="M50.0996 121.42V123.76C50.0996 126.07 48.2196 127.94 45.9196 127.94H43.5996H39.1496H18.3196C16.0096 127.94 14.1396 126.07 14.1396 123.76V121.42C14.1396 119.12 16.0096 117.25 18.3196 117.25H39.1496H43.5996H45.9196C48.2196 117.25 50.0996 119.12 50.0996 121.42Z" fill="#737194"/>
<path d="M49.2398 120.64V122.98C49.2398 125.28 47.3698 127.15 45.0598 127.15H41.6798H38.2898H17.4598C15.1598 127.15 13.2798 125.28 13.2798 122.98V120.64C13.2798 118.34 15.1598 116.47 17.4598 116.47H38.2898H41.6798H45.0598C47.3698 116.47 49.2398 118.34 49.2398 120.64Z" fill="white"/>
<path d="M65.7798 127.94H60.9498C58.0998 127.94 55.7998 125.63 55.7998 122.79V122.4C55.7998 119.55 58.0998 117.25 60.9498 117.25H65.7798C68.6198 117.25 70.9297 119.55 70.9297 122.4V122.79C70.9297 125.63 68.6198 127.94 65.7798 127.94Z" fill="#737194"/>
<path d="M64.92 127.15H60.0899C57.2499 127.15 54.9399 124.85 54.9399 122V121.62C54.9399 118.77 57.2499 116.47 60.0899 116.47H64.92C67.76 116.47 70.0699 118.77 70.0699 121.62V122C70.0699 124.85 67.76 127.15 64.92 127.15Z" fill="white"/>
<path d="M86.6099 127.94H81.7799C78.9399 127.94 76.6299 125.63 76.6299 122.79V122.4C76.6299 119.55 78.9399 117.25 81.7799 117.25H86.6099C89.4499 117.25 91.7499 119.55 91.7499 122.4V122.79C91.7499 125.63 89.4499 127.94 86.6099 127.94Z" fill="#737194"/>
<path d="M85.75 127.15H80.92C78.08 127.15 75.77 124.85 75.77 122V121.62C75.77 118.77 78.08 116.47 80.92 116.47H85.75C88.59 116.47 90.9 118.77 90.9 121.62V122C90.9 124.85 88.59 127.15 85.75 127.15Z" fill="white"/>
<path d="M107.429 127.94H102.609C99.7595 127.94 97.4595 125.63 97.4595 122.79V122.4C97.4595 119.55 99.7595 117.25 102.609 117.25H107.429C110.279 117.25 112.579 119.55 112.579 122.4V122.79C112.579 125.63 110.279 127.94 107.429 127.94Z" fill="#737194"/>
<path d="M106.58 127.15H101.75C98.8996 127.15 96.5996 124.85 96.5996 122V121.62C96.5996 118.77 98.8996 116.47 101.75 116.47H106.58C109.42 116.47 111.73 118.77 111.73 121.62V122C111.73 124.85 109.42 127.15 106.58 127.15Z" fill="white"/>
</svg>
