<svg width="183" height="299" viewBox="0 0 183 299" fill="none" xmlns="http://www.w3.org/2000/svg">
<path fill-rule="evenodd" clip-rule="evenodd" d="M109.052 45.5387C108.158 54.2451 105.524 60.9108 101.146 65.5359C100.521 66.1966 99.8596 66.8157 99.1631 67.3931C94.283 73.1495 92.0206 78.6355 92.3727 83.8546C92.423 84.6002 92.5266 85.3403 92.6836 86.075L96.5713 86.075H119.768H178.063L182.653 86.075C182.81 85.3403 182.914 84.6002 182.964 83.8546C183.317 78.6355 181.055 73.1495 176.179 67.3931C170.602 62.7736 167.307 55.4888 166.285 45.5387V33.5549C166.285 21.8376 159.165 11.7385 148.94 7.34804C147.479 6.72085 145.955 6.21014 144.38 5.82787C144.38 5.82786 144.38 5.82788 144.38 5.82787C142.261 5.24111 140.024 5.0074 137.666 5.0074C136.844 5.0074 136.136 5.0074 135.428 5.12177C129.942 5.56104 124.881 7.55061 120.691 10.6463H99.7761H94.6125C91.9417 10.6463 89.5134 11.8584 87.8594 13.7543C86.7509 14.5551 85.8122 15.6212 85.1525 16.9167L33.7007 117.066L26.9071 118.964C26.7453 119.009 26.6207 119.125 26.5581 119.269C23.5987 120.775 21.7036 123.816 21.7036 127.119C21.7036 127.929 21.7983 128.745 22.0675 129.555L23.9112 136.121L14.1127 155.194C11.8948 159.56 13.6592 164.94 18.0353 167.158C22.4114 169.37 27.8093 167.61 30.0273 163.244L30.997 161.357L55.1276 247.295C55.5421 248.945 56.4059 250.295 57.5899 251.411V284.883H54.9283H35.6843C35.5516 284.883 35.4194 284.887 35.2878 284.895C33.314 285.011 31.4826 285.988 30.2864 287.578L21.7036 299H40.9526H60.9991H69.8809H92.1901H109.171L100.589 287.578C99.3176 285.882 97.3189 284.883 95.1907 284.883H78.2094H75.4333V250.815L80.9259 249.279C81.205 249.205 81.3744 248.906 81.2947 248.623L47.6724 128.9L99.2354 28.5375H109.499C109.205 30.1674 109.052 31.8442 109.052 33.5549V45.5387Z" fill="black" fill-opacity="0.15"/>
<path d="M67.7674 244.277L51.6136 248.787C51.3295 248.872 51.0304 248.703 50.9507 248.419L13.3798 114.617C13.2951 114.334 13.4645 114.041 13.7486 113.961L29.8974 109.446C30.1815 109.366 30.4806 109.531 30.5603 109.814L68.1362 243.621C68.216 243.899 68.0465 244.197 67.7674 244.277Z" fill="#CD7024"/>
<path d="M46.5101 228.121H60.2016C61.343 228.121 62.2801 229.051 62.2801 230.19V287.608C62.2801 288.747 61.343 289.676 60.2016 289.676H46.5101C45.3687 289.676 44.4316 288.747 44.4316 287.608V230.19C44.4316 229.051 45.3687 228.121 46.5101 228.121Z" fill="#F9892D"/>
<path d="M4.87704 162.15C0.500913 159.937 -1.25851 154.552 0.959459 150.186L71.9943 11.9143C74.2172 7.54835 79.6101 5.78806 83.9863 8.00085C88.3674 10.2136 90.1318 15.5989 87.9138 19.9648L16.869 158.237C14.6511 162.603 9.25317 164.363 4.87704 162.15Z" fill="#FFB43A"/>
<path d="M86.4088 22.8986C86.1995 22.7743 86.0699 22.5704 85.8556 22.461C81.4794 20.2483 76.0816 22.0085 73.8636 26.3745L4.32901 161.718C0.421394 159.321 -1.14863 154.333 0.959687 150.186L71.9945 11.9143C74.2175 7.54835 79.6104 5.78806 83.9865 8.00085C88.3676 10.2136 90.132 15.5989 87.914 19.9648L86.4088 22.8986Z" fill="#F9892D"/>
<path d="M15.0697 113.618C19.7798 112.26 24.759 115.065 26.03 119.764L27.3857 124.553L59.0852 237.41C59.3593 238.22 59.449 239.036 59.449 239.846C59.449 243.735 56.8224 247.35 52.9297 248.434C50.0289 249.245 46.9487 248.524 44.7756 246.714C43.4199 245.54 42.423 244.093 41.9695 242.288L8.90925 124.553C8.64011 123.737 8.54541 122.927 8.54541 122.111C8.54541 118.228 11.1771 114.702 15.0697 113.618Z" fill="#FFB43A"/>
<path d="M15.0697 113.618C19.7798 112.26 24.759 115.065 26.03 119.764L27.3857 124.553C24.2456 125.274 22.5261 124.488 22.227 122.201C21.5891 120.217 19.7798 118.859 17.8808 118.859C17.4223 118.859 17.0634 118.949 16.6098 119.038C14.1676 119.67 12.7172 122.201 13.4399 124.642L45.8671 238.852C46.5001 242.919 45.7724 245.271 44.7756 246.713C43.4199 245.54 42.423 244.093 41.9694 242.288L8.90925 124.553C8.64011 123.737 8.54541 122.927 8.54541 122.111C8.54541 118.228 11.1771 114.702 15.0697 113.618Z" fill="#F9892D"/>
<path d="M81.4594 5.63889H125.29C130.185 5.63889 134.262 9.70644 134.262 14.5845C134.262 19.4626 130.185 23.5302 125.29 23.5302H81.4594C76.5649 23.5302 72.4878 19.4626 72.4878 14.5845C72.4878 9.70644 76.5649 5.63889 81.4594 5.63889Z" fill="#FFB43A"/>
<path d="M81.4594 5.63889H86.623C86.3788 8.71193 84.8985 10.1888 82.1821 10.0694C79.7348 10.0694 77.6564 12.0535 77.6564 14.5845C77.6564 17.1156 79.7348 19.1046 82.1821 19.1046H108.992C111.524 19.1046 113.607 17.1156 113.607 14.5845H117.415C120.132 15.6089 122.155 16.4542 123.481 17.1156C125.475 18.1101 123.845 21.5411 124.478 23.5302H81.4594C76.5649 23.5302 72.4878 19.4626 72.4878 14.5845C72.4878 9.70644 76.5649 5.63889 81.4594 5.63889Z" fill="#F9892D"/>
<path d="M82.1972 10.0396C84.7092 10.0396 86.7477 12.0734 86.7477 14.5845C86.7477 17.0957 84.7092 19.1245 82.1972 19.1245C79.6801 19.1245 77.6416 17.0957 77.6416 14.5845C77.6416 12.0734 79.6801 10.0396 82.1972 10.0396Z" fill="#2B2B3D"/>
<path d="M80.024 10.6661C79.72 11.2778 79.5057 11.9391 79.5057 12.6701C79.5057 15.1812 81.5442 17.215 84.0612 17.215C84.8637 17.215 85.5764 16.9515 86.2344 16.5885C85.4867 18.0752 83.9815 19.1245 82.1972 19.1245C79.6851 19.1245 77.6416 17.0957 77.6416 14.5845C77.6416 12.874 78.6235 11.4419 80.024 10.6661Z" fill="#29202D"/>
<path d="M17.8109 118.844C20.328 118.844 22.3615 120.878 22.3615 123.389C22.3615 125.895 20.328 127.929 17.8109 127.929C15.2939 127.929 13.2554 125.895 13.2554 123.389C13.2554 120.878 15.2939 118.844 17.8109 118.844Z" fill="#2B2B3D"/>
<path d="M15.6378 119.471C15.3338 120.082 15.1195 120.744 15.1195 121.475C15.1195 123.981 17.163 126.015 19.675 126.015C20.4775 126.015 21.1952 125.751 21.8481 125.393C21.1005 126.88 19.5953 127.929 17.8109 127.929C15.2939 127.929 13.2554 125.895 13.2554 123.389C13.2554 121.679 14.2422 120.246 15.6378 119.471Z" fill="#29202D"/>
<path d="M49.8397 233.77C52.3518 233.77 54.3903 235.804 54.3903 238.315C54.3903 240.821 52.3518 242.855 49.8397 242.855C47.3227 242.855 45.2842 240.821 45.2842 238.315C45.2842 235.804 47.3227 233.77 49.8397 233.77Z" fill="#2B2B3D"/>
<path d="M47.6666 234.397C47.3576 235.008 47.1483 235.669 47.1483 236.4C47.1483 238.907 49.1868 240.94 51.7038 240.94C52.5063 240.94 53.219 240.682 53.872 240.319C53.1293 241.806 51.6191 242.855 49.8397 242.855C47.3227 242.855 45.2842 240.821 45.2842 238.315C45.2842 236.604 46.2661 235.172 47.6666 234.397Z" fill="#29202D"/>
<path d="M17.1282 282.571C18.4042 280.875 20.4028 279.875 22.5261 279.875H47.8408H56.7227H82.0325C84.1607 279.875 86.1594 280.875 87.4353 282.571L96.0131 293.998H56.7227H47.8408H8.54541L17.1282 282.571Z" fill="#CD7024"/>
<path d="M65.0562 279.875H82.0323C84.1606 279.875 86.1592 280.875 87.4352 282.571L96.013 293.998H79.0318L70.4491 282.571C69.1781 280.875 67.1744 279.875 65.0562 279.875Z" fill="#F9892D"/>
<path d="M17.1282 282.571C18.4042 280.875 20.4028 279.875 22.5261 279.875H41.7751C39.6518 279.875 37.6482 280.875 36.3772 282.571L27.7944 293.998H8.54541L17.1282 282.571Z" fill="#904913"/>
<path d="M86.0047 62.3857C91.577 57.7662 94.8766 50.4814 95.8933 40.5313V28.5524C95.8933 13.6298 107.551 1.29286 122.27 0.11934C122.977 -1.05959e-06 123.685 0 124.508 0C126.865 0 129.103 0.238683 131.221 0.825445C143.826 3.8786 153.127 15.1564 153.127 28.5524V40.5313C154.149 50.4814 157.443 57.7662 163.021 62.3857C168.593 68.9694 170.751 75.195 169.495 81.0676H79.5252C78.2692 75.195 80.4274 68.9694 86.0047 62.3857Z" fill="#C32E41"/>
<path d="M86.0047 62.3857C91.577 57.7662 94.8766 50.4814 95.8933 40.5313V28.5524C95.8933 13.6298 107.551 1.29286 122.27 0.119339C120.391 1.76526 104.371 15.5094 106.021 39.1241C106.27 42.8088 106.445 46.6525 106.565 50.5361C106.864 60.6453 115.043 68.7307 125.18 68.7307H164.905V81.0676H106.609H83.4129H79.5252C78.2692 75.195 80.4274 68.9694 86.0047 62.3857Z" fill="#8F1E41"/>
<path d="M153.127 28.5524V40.5313C154.149 50.4814 157.444 57.7662 163.021 62.3857C168.593 68.9694 170.751 75.195 169.495 81.0676C157.399 81.0676 147.595 71.2866 147.595 59.2132V32.5454C147.121 18.0554 141.664 7.47872 131.222 0.825439C143.827 3.87859 153.127 15.1564 153.127 28.5524Z" fill="#EC536D"/>
</svg>
