<svg width="524" height="441" viewBox="0 0 524 441" fill="none" xmlns="http://www.w3.org/2000/svg">
<path d="M120.024 387.558L192.014 184.431L252.789 205.915C253.047 205.946 253.306 206.001 253.564 206.044L339.991 236.597C345.632 239.847 348.375 246.549 346.204 252.681L282.697 431.866C280.796 437.223 275.697 440.547 270.154 440.633L120.024 387.558Z" fill="black" fill-opacity="0.15"/>
<g style="mix-blend-mode:multiply" opacity="0.2">
<g style="mix-blend-mode:multiply" opacity="0.2">
<path d="M171.234 214.332C171.271 214.209 171.338 214.105 171.424 214L171.215 214.596C171.215 214.504 171.209 214.418 171.234 214.332ZM163.957 234.864C163.975 234.815 164.012 234.772 164.037 234.723C164.055 234.674 164.098 234.637 164.129 234.594L163.938 235.128C163.938 235.042 163.932 234.95 163.957 234.864ZM156.679 255.402C156.716 255.279 156.784 255.169 156.87 255.071L156.661 255.666C156.661 255.574 156.655 255.488 156.679 255.402ZM148.843 277.519C148.855 277.47 148.892 277.433 148.91 277.39C148.935 277.335 148.972 277.286 149.015 277.243L148.818 277.777C148.818 277.691 148.818 277.599 148.843 277.519ZM141.227 298.998C141.258 298.905 141.307 298.826 141.363 298.752C141.375 298.733 141.393 298.721 141.399 298.709L141.209 299.262C141.209 299.176 141.203 299.084 141.227 298.998ZM133.729 320.162C133.766 320.04 133.833 319.929 133.919 319.831L133.704 320.427C133.704 320.334 133.704 320.248 133.729 320.162Z" fill="#F9763D"/>
</g>
</g>
<path d="M103.784 381.371L102 369.121L108.428 350.991L111.467 363.831L103.784 381.371Z" fill="#6C569E"/>
<path d="M103.784 381.371L175.773 178.244L236.549 199.729C236.807 199.759 237.066 199.821 237.33 199.858L323.757 230.416C329.392 233.66 332.135 240.363 329.964 246.494L266.463 425.679C264.562 431.043 259.457 434.367 253.914 434.446L103.784 381.371Z" fill="#CC3B23"/>
<path d="M103.612 377.243L175.608 174.11L236.383 195.594C236.642 195.625 236.9 195.68 237.158 195.723L323.591 226.275C329.22 229.525 331.969 236.234 329.798 242.359L266.291 421.545C264.397 426.902 259.291 430.232 253.748 430.312L103.612 377.243Z" fill="#F2F3F9"/>
<path d="M102 369.121L173.99 166L234.765 187.484C235.024 187.509 235.282 187.564 235.546 187.613L321.973 218.166C327.602 221.409 330.358 228.118 328.186 234.25L264.679 413.435C262.785 418.792 257.673 422.122 252.131 422.196L102 369.121Z" fill="#FBC241"/>
<path d="M103.612 377.243L102 369.121L252.131 422.196L253.748 430.312L103.612 377.243Z" fill="#A1BACE"/>
<path d="M159.152 206.8C158.974 206.732 158.808 206.616 158.685 206.45C158.574 206.302 157.627 204.951 158.064 203.433C158.353 202.413 159.165 201.639 160.469 201.123L160.696 201.062C160.789 201.049 163.022 200.742 164.787 202.161C165.993 203.132 166.669 204.619 166.805 206.591C166.842 207.144 166.423 207.623 165.864 207.666C165.304 207.697 164.83 207.279 164.793 206.726C164.701 205.344 164.283 204.342 163.538 203.74C162.628 203.003 161.441 203.022 161.09 203.046C160.641 203.237 160.13 203.544 160.007 203.986C159.854 204.471 160.174 205.074 160.315 205.258C160.635 205.713 160.53 206.339 160.087 206.659C159.804 206.867 159.46 206.904 159.152 206.8Z" fill="#3D2C33"/>
<path d="M151.875 227.332C151.697 227.271 151.531 227.154 151.408 226.982C151.297 226.834 150.349 225.489 150.786 223.965C151.081 222.952 151.887 222.171 153.191 221.661L153.419 221.6C153.505 221.588 155.744 221.274 157.51 222.694C158.715 223.664 159.392 225.157 159.527 227.123C159.564 227.682 159.14 228.161 158.592 228.198C158.026 228.229 157.553 227.811 157.516 227.258C157.424 225.882 157.005 224.881 156.261 224.272C155.351 223.529 154.163 223.554 153.813 223.578C153.364 223.769 152.853 224.082 152.724 224.518C152.576 225.004 152.902 225.606 153.031 225.796C153.351 226.245 153.253 226.877 152.804 227.197C152.527 227.4 152.176 227.443 151.875 227.332Z" fill="#3D2C33"/>
<path d="M144.598 247.87C144.42 247.803 144.254 247.686 144.131 247.52C144.02 247.366 143.073 246.021 143.509 244.504C143.798 243.484 144.61 242.71 145.915 242.193L146.136 242.138C146.228 242.12 148.467 241.806 150.233 243.232C151.439 244.202 152.115 245.689 152.251 247.655C152.287 248.214 151.869 248.693 151.309 248.73C150.75 248.767 150.276 248.349 150.239 247.797C150.147 246.42 149.728 245.413 148.984 244.805C148.074 244.067 146.886 244.086 146.536 244.116C146.087 244.307 145.576 244.614 145.453 245.05C145.299 245.536 145.619 246.138 145.755 246.328C146.081 246.777 145.976 247.409 145.527 247.735C145.25 247.932 144.906 247.975 144.598 247.87Z" fill="#3D2C33"/>
<path d="M136.761 269.981C136.583 269.92 136.417 269.803 136.294 269.631C136.183 269.484 135.236 268.138 135.672 266.614C135.962 265.601 136.774 264.821 138.078 264.304L138.305 264.249C138.391 264.237 140.63 263.923 142.396 265.343C143.602 266.313 144.278 267.806 144.414 269.772C144.451 270.331 144.026 270.811 143.472 270.847C142.913 270.878 142.439 270.46 142.402 269.914C142.31 268.531 141.885 267.53 141.147 266.922C140.237 266.178 139.05 266.203 138.699 266.234C138.25 266.424 137.739 266.731 137.61 267.167C137.463 267.653 137.782 268.255 137.918 268.445C138.238 268.894 138.139 269.527 137.69 269.846C137.413 270.049 137.063 270.086 136.761 269.981Z" fill="#3D2C33"/>
<path d="M129.145 291.465C128.967 291.398 128.801 291.281 128.678 291.115C128.567 290.968 127.62 289.622 128.057 288.105C128.346 287.085 129.158 286.305 130.462 285.789L130.69 285.733C130.782 285.715 133.015 285.408 134.78 286.827C135.986 287.798 136.663 289.291 136.798 291.257C136.835 291.816 136.416 292.289 135.857 292.332C135.303 292.362 134.823 291.945 134.786 291.392C134.694 290.016 134.276 289.008 133.531 288.406C132.621 287.663 131.434 287.687 131.083 287.712C130.634 287.902 130.124 288.209 130.001 288.652C129.847 289.137 130.167 289.739 130.308 289.93C130.628 290.378 130.523 291.011 130.074 291.33C129.798 291.533 129.447 291.57 129.145 291.465Z" fill="#3D2C33"/>
<path d="M121.647 312.63C121.469 312.563 121.303 312.446 121.18 312.28C121.069 312.126 120.116 310.781 120.559 309.264C120.848 308.244 121.66 307.463 122.964 306.947L123.191 306.892C123.277 306.88 125.517 306.566 127.282 307.992C128.488 308.963 129.164 310.449 129.3 312.421C129.337 312.974 128.912 313.454 128.365 313.49C127.799 313.521 127.325 313.109 127.288 312.557C127.196 311.174 126.778 310.173 126.033 309.571C125.123 308.827 123.936 308.846 123.585 308.87C123.136 309.067 122.625 309.374 122.502 309.81C122.349 310.302 122.668 310.898 122.804 311.088C123.124 311.543 123.025 312.169 122.576 312.489C122.299 312.692 121.949 312.735 121.647 312.63Z" fill="#3D2C33"/>
<path d="M107.991 358.222L105.697 357.411L168.515 180.173L170.803 180.984L107.991 358.222Z" fill="#F6F5FC"/>
<path d="M171.578 206.923C170.84 209.018 168.533 210.111 166.442 209.374C164.338 208.631 163.243 206.333 163.987 204.238C164.732 202.143 167.026 201.049 169.124 201.787C171.227 202.53 172.322 204.828 171.578 206.923Z" fill="#423D42"/>
<path d="M163.963 228.419C163.219 230.514 160.918 231.608 158.82 230.871C156.723 230.127 155.628 227.83 156.366 225.735C157.11 223.64 159.411 222.54 161.509 223.283C163.606 224.027 164.707 226.324 163.963 228.419Z" fill="#423D42"/>
<path d="M156.341 249.916C155.603 252.011 153.296 253.111 151.199 252.367C149.101 251.63 148.006 249.326 148.75 247.231C149.489 245.136 151.795 244.037 153.893 244.78C155.984 245.523 157.086 247.821 156.341 249.916Z" fill="#423D42"/>
<path d="M148.726 271.413C147.981 273.508 145.681 274.607 143.583 273.864C141.485 273.121 140.39 270.823 141.129 268.728C141.873 266.633 144.174 265.539 146.271 266.283C148.369 267.02 149.464 269.318 148.726 271.413Z" fill="#423D42"/>
<path d="M141.104 292.909C140.36 295.01 138.059 296.104 135.961 295.361C133.864 294.617 132.769 292.326 133.513 290.231C134.257 288.129 136.552 287.036 138.65 287.779C140.747 288.517 141.848 290.814 141.104 292.909Z" fill="#423D42"/>
<path d="M133.489 314.412C132.745 316.501 130.444 317.6 128.346 316.857C126.249 316.12 125.154 313.816 125.892 311.727C126.636 309.632 128.937 308.532 131.034 309.27C133.132 310.013 134.227 312.317 133.489 314.412Z" fill="#423D42"/>
<path d="M165.863 207.666C165.304 207.697 164.83 207.279 164.793 206.726C164.701 205.344 164.282 204.342 163.538 203.74C162.628 203.003 161.441 203.022 161.09 203.046C160.641 203.237 160.13 203.544 160.007 203.986C159.952 204.158 159.97 204.342 160.007 204.521L159.577 204.367L160.752 201.056C161.053 201.019 163.114 200.816 164.787 202.161C165.993 203.132 166.669 204.619 166.805 206.591C166.841 207.144 166.423 207.623 165.863 207.666Z" fill="#3D2C33"/>
<path d="M158.593 228.198C158.027 228.229 157.553 227.811 157.516 227.258C157.424 225.882 157.006 224.881 156.261 224.272C155.351 223.529 154.164 223.554 153.813 223.578C153.413 223.75 152.977 224.021 152.798 224.383L152.515 224.285L153.475 221.594C153.776 221.551 155.837 221.348 157.51 222.694C158.716 223.664 159.392 225.157 159.528 227.123C159.565 227.682 159.14 228.161 158.593 228.198Z" fill="#3D2C33"/>
<path d="M151.309 248.73C150.749 248.767 150.276 248.349 150.239 247.796C150.147 246.42 149.728 245.413 148.984 244.805C148.073 244.067 146.886 244.086 146.536 244.116C146.265 244.227 145.994 244.387 145.779 244.583L145.373 244.436L146.197 242.126C146.493 242.089 148.559 241.886 150.233 243.232C151.438 244.202 152.115 245.689 152.25 247.655C152.287 248.214 151.869 248.693 151.309 248.73Z" fill="#3D2C33"/>
<path d="M143.473 270.847C142.913 270.878 142.439 270.46 142.402 269.914C142.31 268.531 141.886 267.53 141.147 266.922C140.237 266.178 139.05 266.203 138.699 266.234C138.287 266.406 137.844 266.682 137.666 267.057L137.395 266.958L138.355 264.243C138.656 264.206 140.723 263.997 142.396 265.343C143.602 266.313 144.278 267.806 144.414 269.772C144.451 270.331 144.026 270.811 143.473 270.847Z" fill="#3D2C33"/>
<path d="M135.857 292.332C135.303 292.362 134.824 291.945 134.787 291.392C134.694 290.016 134.276 289.008 133.532 288.406C132.621 287.663 131.434 287.687 131.083 287.712C130.721 287.865 130.339 288.099 130.124 288.406L129.829 288.301L130.745 285.727C131.04 285.684 133.107 285.482 134.78 286.827C135.986 287.798 136.663 289.291 136.798 291.257C136.835 291.816 136.417 292.289 135.857 292.332Z" fill="#3D2C33"/>
<path d="M128.365 313.49C127.799 313.521 127.325 313.109 127.288 312.557C127.196 311.174 126.778 310.173 126.033 309.571C125.123 308.827 123.936 308.846 123.585 308.87C123.136 309.067 122.625 309.374 122.502 309.81C122.478 309.866 122.484 309.927 122.478 309.982L122.183 309.878L123.247 306.886C123.548 306.843 125.609 306.64 127.282 307.992C128.488 308.963 129.164 310.449 129.3 312.421C129.337 312.974 128.912 313.454 128.365 313.49Z" fill="#3D2C33"/>
<path d="M297.103 287.884L167.974 242.236L182.534 201.16L311.658 246.807L297.103 287.884Z" fill="white"/>
<path fill-rule="evenodd" clip-rule="evenodd" d="M72.0502 23.8174L74.465 17.4628C75.3471 15.1417 74.1785 12.5466 71.8544 11.6657L71.0744 11.37L70.2984 11.0758C70.1531 11.0208 70.0068 10.9737 69.8599 10.9344C67.6563 10.3453 65.3209 11.5071 64.494 13.6831L64.293 14.2119L62.8648 17.9702L62.8647 17.9701L61.5113 21.5314C60.8066 21.5163 60.1343 21.9147 59.8228 22.5816C58.5547 23.4337 57.529 24.6728 56.945 26.2095L54.4784 32.7001C53.6985 32.682 52.9573 33.1501 52.6646 33.9203L52.1691 35.2241L52.6497 35.4063C52.0867 35.959 51.6314 36.639 51.333 37.4241L51.1796 37.8278C50.9197 38.5119 50.8019 39.2151 50.8116 39.905L50.4433 39.7654L49.8481 41.3317C49.5554 42.1019 49.799 42.9433 50.3946 43.4466L23.1106 115.243C22.6105 116.559 22.4982 117.927 22.7175 119.223C22.3814 119.136 22.0464 119.036 21.7131 118.92L21.526 119.413C21.0091 120.773 21.4873 122.266 22.6006 123.094L22.1028 125.122L22.103 125.122L19.9302 133.979C19.9156 134.039 19.9039 134.099 19.8948 134.159L19.8941 134.159C19.8246 134.62 19.916 135.077 20.1326 135.465C20.2553 135.685 20.4183 135.883 20.6154 136.046L19.8461 143.266C19.7274 144.357 21.1421 144.893 21.7822 144L26.0053 138.078C26.7609 138.091 27.4878 137.685 27.8602 136.985L32.118 128.919L32.1183 128.919L33.0891 127.079C34.4833 127.213 35.8505 126.411 36.3714 125.04L37.9561 120.87L65.2498 49.0481C66.0006 49.0343 66.7024 48.5721 66.9852 47.8277L67.4301 46.6571L69.657 47.5013C70.6876 47.892 71.2067 49.0447 70.8155 50.074L61.3338 75.0248C58.9318 74.4099 56.4003 75.6809 55.4983 78.0545C54.5978 80.424 55.6474 83.0525 57.8515 84.1881L59.7835 84.9205C61.477 85.5624 63.3783 84.7084 64.0211 83.017L78.1709 45.7825L77.8597 45.6646L73.1672 43.8858L69.073 42.3339L69.8017 40.4164C70.0846 39.6721 69.8665 38.8612 69.314 38.3533L71.7904 31.8369L73.3735 27.671C73.929 26.2094 73.3397 24.5975 72.0502 23.8174Z" fill="black" fill-opacity="0.15"/>
<path fill-rule="evenodd" clip-rule="evenodd" d="M99.0239 43.5023L101.258 37.3773C101.853 35.7509 101.405 33.9971 100.251 32.8484L100.251 32.8487C99.8205 32.4192 99.2916 32.0743 98.6826 31.8522L97.9313 31.5789L97.932 31.5768L97.1797 31.3055C96.6137 31.0991 96.0323 31.0187 95.4664 31.05C93.795 31.1423 92.2584 32.2092 91.6499 33.8831L91.6331 33.9292L91.4625 34.3892C91.4631 34.3898 91.4637 34.3904 91.4643 34.3911L88.8875 41.4436C88.2107 41.4394 87.5714 41.8297 87.2836 42.4724C86.0773 43.3051 85.1084 44.5058 84.5676 45.9858L82.2841 52.2457C81.5382 52.2393 80.8366 52.6966 80.566 53.4375L80.1051 54.699L80.5672 54.8669C80.0357 55.4037 79.6087 56.0609 79.3327 56.8168L79.191 57.2019C78.9499 57.8621 78.8457 58.5391 78.8639 59.2016L78.508 59.072L77.9575 60.5813C77.687 61.322 77.9308 62.1261 78.5071 62.6004L53.2638 131.803C52.8013 133.073 52.7111 134.387 52.9376 135.626C52.6133 135.547 52.2898 135.455 51.9678 135.348L51.798 135.82C51.3182 137.133 51.7966 138.559 52.8764 139.339L50.4584 149.809C50.4446 149.868 50.4338 149.926 50.4256 149.985L50.4238 149.985C50.3953 150.195 50.4014 150.404 50.4384 150.605C50.5223 151.067 50.7702 151.487 51.1371 151.784L50.4951 158.717C50.3958 159.769 51.7575 160.262 52.3595 159.396L56.3367 153.667C57.0606 153.669 57.7519 153.271 58.0978 152.594L62.0782 144.806L62.079 144.806L62.989 143.025C64.3277 143.135 65.626 142.35 66.1092 141.028L67.5418 137.101L67.5596 137.053L67.575 137.011L92.8309 67.7839C93.55 67.7609 94.2167 67.3106 94.4783 66.5943L94.8898 65.4653L97.0334 66.2467C98.0298 66.6059 98.5415 67.705 98.1793 68.6946L89.405 92.7452C87.0923 92.1872 84.6834 93.44 83.848 95.7233C83.0167 98.0082 84.0561 100.517 86.1826 101.577L88.0429 102.255C89.681 102.848 91.4886 102.009 92.0866 100.375L105.174 64.4881L104.877 64.3803L100.352 62.7341L96.4088 61.2978L97.0827 59.4489C97.3444 58.7326 97.124 57.9592 96.59 57.48L98.8829 51.1952C98.9068 51.1293 98.9298 51.0634 98.9518 50.9973L100.345 47.1774C100.859 45.7728 100.272 44.2315 99.0239 43.5023Z" fill="black" fill-opacity="0.15"/>
<path d="M69.0459 37.6728L54.8961 74.9073C54.2518 76.6027 52.356 77.4543 50.6585 76.8108L48.7265 76.0784C46.5209 74.9468 45.4728 72.3143 46.3733 69.9448C47.2737 67.5753 49.8067 66.3002 52.2087 66.9151L61.6905 41.9643C62.0817 40.935 61.5626 39.7823 60.5319 39.3916L57.2257 38.1383L58.8687 33.815L64.0421 35.7761L68.7346 37.5549L69.0459 37.6728Z" fill="#393954"/>
<path d="M16.8373 129.476C16.9949 129.536 17.0554 129.73 16.9567 129.868L12.6566 135.89C12.0165 136.784 10.6059 136.249 10.7206 135.156L11.5043 127.801C11.5222 127.632 11.6961 127.527 11.8538 127.587L14.3476 128.532L16.8373 129.476Z" fill="#30262D"/>
<path d="M24.3637 118.212L18.7347 128.875C18.2524 129.791 17.1558 130.207 16.1857 129.839L14.3952 129.16L13.8658 128.96L12.0712 128.279C11.1012 127.912 10.5609 126.876 10.8088 125.87L13.6772 114.161L18.7577 116.087L19.2872 116.287L24.3637 118.212Z" fill="#C92E41"/>
<path d="M24.3637 118.212L18.7347 128.875C18.2524 129.791 17.1558 130.207 16.1857 129.839L14.3952 129.16L13.8658 128.96L12.0712 128.279C11.1618 127.935 10.6257 126.997 10.7711 126.055L12.3716 126.661L12.9052 126.864L14.6956 127.542C15.6657 127.91 16.6678 127.731 17.0329 127.135L20.3737 119.816L16.1864 118.229L15.6529 118.027L12.9772 117.013L13.6772 114.161L18.7577 116.087L19.2872 116.287L24.3637 118.212Z" fill="#7F133B"/>
<path d="M12.9772 117.013L13.6772 114.161L24.3637 118.212L22.9928 120.809L12.9772 117.013Z" fill="#30262D"/>
<path d="M65.3374 9.35712L62.2234 17.5516C61.3413 19.8727 58.743 21.0398 56.4189 20.1589L54.8629 19.569C52.5388 18.6881 51.3703 16.093 52.2523 13.7719L55.3664 5.57746C56.2485 3.25636 58.8483 2.08517 61.1723 2.96613L62.7284 3.55598C65.0524 4.43693 66.2195 7.03602 65.3374 9.35712Z" fill="#4FA2FB"/>
<path d="M65.3393 9.35308L62.2237 17.5516C61.3417 19.8727 58.7433 21.0399 56.4193 20.1589L54.8632 19.5691C52.5392 18.6881 51.3706 16.093 52.2527 13.7719L53.7392 9.86039C54.1816 10.3144 54.7261 10.6825 55.3566 10.9215L56.9167 11.5129C59.2407 12.3938 61.839 11.2267 62.7211 8.90555L64.3502 4.61859C65.536 5.83007 65.9805 7.66575 65.3393 9.35308Z" fill="#3E4FBA"/>
<path d="M18.9654 117.195L18.4198 116.988C14.4709 115.491 12.4848 111.081 13.9851 107.133L47.8194 18.0998C49.3182 14.156 53.7357 12.1683 57.6845 13.6651L58.2302 13.872C62.179 15.3688 64.1636 19.7834 62.6649 23.7272L28.8305 112.76C27.3303 116.708 22.9142 118.692 18.9654 117.195Z" fill="#C92E41"/>
<path d="M15.1036 108.12L50.6438 14.5983C51.015 13.6215 52.1387 13.1469 53.1084 13.5884C53.9908 13.9921 54.3772 15.0437 54.032 15.952L19.8095 106.007C19.0947 107.888 16.9871 108.834 15.1036 108.12Z" fill="#EC313A"/>
<path d="M64.248 19.5613L27.2459 116.93C26.6215 118.573 24.7815 119.4 23.1365 118.776L14.2487 115.407C12.6037 114.784 11.7761 112.946 12.4004 111.303L12.5861 110.815C19.0442 113.046 26.1557 109.761 28.5978 103.334L62.0456 15.3183L62.4013 15.4531C64.0463 16.0767 64.8723 17.9184 64.248 19.5613Z" fill="#7F133B"/>
<path d="M51.9092 39.4852L45.3293 36.991C42.4151 35.8863 40.9465 32.6326 42.0541 29.7181L42.206 29.3185C43.3135 26.404 46.5754 24.9388 49.4895 26.0435L56.0695 28.5377C58.9877 29.6439 60.4507 32.9001 59.3431 35.8146L59.1912 36.2142C58.0837 39.1287 54.8274 40.5914 51.9092 39.4852Z" fill="#3E4FBA"/>
<path d="M53.6162 27.6077L53.1191 28.9156C52.7479 29.8925 51.655 30.3834 50.681 30.0142L43.042 27.1185L43.539 25.8106C43.9103 24.8337 45.0031 24.3428 45.9812 24.7136L53.6162 27.6077Z" fill="#91D4FF"/>
<path d="M60.6762 32.3067L57.8597 39.718C57.4885 40.6949 56.3956 41.1858 55.4175 40.8151L41.821 35.6611C40.8429 35.2903 40.3513 34.1989 40.7226 33.222L41.3162 31.6598L52.1361 35.7612C53.1142 36.132 54.2071 35.6411 54.5783 34.6642L56.8011 28.815L59.5778 29.8676C60.5559 30.2383 61.0474 31.3298 60.6762 32.3067Z" fill="#393954"/>
<path d="M61.9524 3.26183L61.3342 4.8886C60.6086 6.79796 58.4674 7.75972 56.5557 7.03504C56.006 6.82667 55.5418 6.50294 55.167 6.10222L55.3664 5.57746C56.2485 3.25636 58.8483 2.08517 61.1723 2.96613L61.9524 3.26183Z" fill="#91D4FF"/>
<path d="M96.0487 56.3784L82.9597 92.2693C82.3632 93.8997 80.554 94.7425 78.9216 94.1468L77.0572 93.4678C74.9292 92.4117 73.8913 89.8986 74.7211 87.6177C75.5564 85.3343 77.9709 84.079 80.2796 84.6355L89.0524 60.5889C89.4161 59.5954 88.9028 58.5003 87.908 58.137L84.7239 56.9762L86.2468 52.8106L91.2266 54.6244L95.7521 56.2706L96.0487 56.3784Z" fill="#393954"/>
<path d="M47.1621 145.086C47.3117 145.143 47.3712 145.327 47.2796 145.458L43.2322 151.29C42.6342 152.158 41.2701 151.659 41.3679 150.611L42.0219 143.549C42.0423 143.385 42.2066 143.282 42.3562 143.338L44.7571 144.211L47.1621 145.086Z" fill="#30262D"/>
<path d="M54.2363 134.186L48.9725 144.484C48.5202 145.37 47.4773 145.778 46.543 145.438L44.8161 144.811L44.3038 144.626L42.5783 143.995C41.6441 143.655 41.1071 142.671 41.3316 141.703L43.9342 130.437L48.8331 132.221L49.3414 132.404L54.2363 134.186Z" fill="#FFB33A"/>
<path d="M54.2363 134.186L48.9725 144.484C48.5202 145.37 47.4773 145.778 46.543 145.438L44.8161 144.811L44.3038 144.626L42.5783 143.995C41.7007 143.676 41.1735 142.788 41.2985 141.875L42.8461 142.439L43.3528 142.626L45.0839 143.255C46.0181 143.595 46.9791 143.414 47.3189 142.836L50.4275 135.776L46.39 134.305L45.8818 134.122L43.3029 133.181L43.9342 130.437L48.8331 132.221L49.3414 132.404L54.2363 134.186Z" fill="#FA872C"/>
<path d="M43.3029 133.181L43.9342 130.437L54.2363 134.186L52.9537 136.697L43.3029 133.181Z" fill="#30262D"/>
<path d="M92.1326 29.2676L89.2534 37.1725C88.4365 39.4074 85.9591 40.5604 83.7173 39.7429L82.2183 39.1978C79.9805 38.3818 78.8261 35.9076 79.643 33.6727L82.5247 25.7734C83.3376 23.5369 85.8149 22.3839 88.0582 23.1974L89.5574 23.7425C91.7992 24.56 92.9495 27.0327 92.1326 29.2676Z" fill="#4FA2FB"/>
<path d="M92.1326 29.2676L89.2535 37.1724C88.4365 39.4074 85.9592 40.5604 83.7214 39.7444L82.2183 39.1977C79.9805 38.3818 78.8261 35.9076 79.6431 33.6726L81.0156 29.9026C81.4481 30.3344 81.9744 30.6771 82.5837 30.8988L84.0869 31.4455C86.3247 32.2615 88.802 31.1085 89.6189 28.8736L91.1255 24.7387C92.2781 25.8914 92.7276 27.6412 92.1326 29.2676Z" fill="#3E4FBA"/>
<path d="M49.0412 133.279L48.5209 133.09C44.7113 131.702 42.7521 127.5 44.1385 123.694L75.4407 37.8802C76.8352 34.0769 81.0421 32.1202 84.8492 33.5033L85.3737 33.6929C89.1792 35.08 91.1424 39.2832 89.756 43.0895L58.4482 128.906C57.0593 132.706 52.8468 134.666 49.0412 133.279Z" fill="#FFB33A"/>
<path d="M45.2237 124.622L78.1086 34.4857C78.4524 33.5446 79.5239 33.0733 80.4594 33.4834C81.3115 33.8572 81.6956 34.8663 81.3738 35.7373L49.7094 122.54C49.0479 124.354 47.038 125.287 45.2237 124.622Z" fill="#FFC97B"/>
<path d="M91.222 39.0733L56.9834 132.918C56.4038 134.504 54.6503 135.322 53.0623 134.743L44.4993 131.626C42.9113 131.047 42.0925 129.296 42.6721 127.71L42.846 127.24C49.069 129.299 55.8449 126.058 58.1065 119.863L89.0537 35.0325L89.3947 35.1572C90.9787 35.7345 91.8016 37.4873 91.222 39.0733Z" fill="#FA872C"/>
<path d="M79.6427 58.3382L73.3012 56.0313C70.4905 55.0075 69.0406 51.8994 70.0642 49.0962L70.2074 48.7072C71.231 45.904 74.339 44.4544 77.1497 45.4783L83.4911 47.7851C86.3019 48.809 87.7493 51.9115 86.7241 54.7187L86.5824 55.1037C85.5613 57.9124 82.4493 59.3605 79.6427 58.3382Z" fill="#3E4FBA"/>
<path d="M81.126 46.9257L80.6667 48.1832C80.3229 49.1243 79.2822 49.6119 78.3399 49.2686L70.9794 46.5893L71.4387 45.3318C71.7825 44.3907 72.8232 43.9031 73.7655 44.2465L81.126 46.9257Z" fill="#91D4FF"/>
<path d="M87.9559 51.3433L85.353 58.4847C85.0092 59.4258 83.9644 59.9118 83.0222 59.5685L69.9174 54.7995C68.9751 54.4562 68.4925 53.4143 68.8322 52.4716L69.3827 50.9623L79.8126 54.7635C80.7564 55.1028 81.7956 54.6193 82.1394 53.6782L84.1934 48.0421L86.8747 49.017C87.817 49.3603 88.3012 50.3982 87.9559 51.3433Z" fill="#393954"/>
<path d="M88.8048 23.4712L88.2329 25.037C87.5607 26.8788 85.527 27.8259 83.6828 27.1545C83.1543 26.9634 82.7001 26.662 82.3368 26.2795L82.5245 25.7734C83.3374 23.5369 85.8148 22.3839 88.0581 23.1973L88.8048 23.4712Z" fill="#91D4FF"/>
<path d="M69.0459 37.6728L54.8961 74.9073C54.2518 76.6027 52.356 77.4543 50.6585 76.8108L48.7265 76.0784C46.5209 74.9468 45.4728 72.3143 46.3733 69.9448C47.2737 67.5753 49.8067 66.3002 52.2087 66.9151L61.6905 41.9643C62.0817 40.935 61.5626 39.7823 60.5319 39.3916L57.2257 38.1383L58.8687 33.815L64.0421 35.7761L68.7346 37.5549L69.0459 37.6728Z" fill="#393954"/>
<path d="M16.8373 129.476C16.9949 129.536 17.0554 129.73 16.9567 129.868L12.6566 135.89C12.0165 136.784 10.6059 136.249 10.7206 135.156L11.5043 127.801C11.5222 127.632 11.6961 127.527 11.8538 127.587L14.3476 128.532L16.8373 129.476Z" fill="#30262D"/>
<path d="M24.3637 118.212L18.7347 128.875C18.2524 129.791 17.1558 130.207 16.1857 129.839L14.3952 129.16L13.8658 128.96L12.0712 128.279C11.1012 127.912 10.5609 126.876 10.8088 125.87L13.6772 114.161L18.7577 116.087L19.2872 116.287L24.3637 118.212Z" fill="#C92E41"/>
<path d="M24.3637 118.212L18.7347 128.875C18.2524 129.791 17.1558 130.207 16.1857 129.839L14.3952 129.16L13.8658 128.96L12.0712 128.279C11.1618 127.935 10.6257 126.997 10.7711 126.055L12.3716 126.661L12.9052 126.864L14.6956 127.542C15.6657 127.91 16.6678 127.731 17.0329 127.135L20.3737 119.816L16.1864 118.229L15.6529 118.027L12.9772 117.013L13.6772 114.161L18.7577 116.087L19.2872 116.287L24.3637 118.212Z" fill="#7F133B"/>
<path d="M12.9772 117.013L13.6772 114.161L24.3637 118.212L22.9928 120.809L12.9772 117.013Z" fill="#30262D"/>
<path d="M65.3374 9.35712L62.2234 17.5516C61.3413 19.8727 58.743 21.0398 56.4189 20.1589L54.8629 19.569C52.5388 18.6881 51.3703 16.093 52.2523 13.7719L55.3664 5.57746C56.2485 3.25636 58.8483 2.08517 61.1723 2.96613L62.7284 3.55598C65.0524 4.43693 66.2195 7.03602 65.3374 9.35712Z" fill="#4FA2FB"/>
<path d="M65.3393 9.35308L62.2237 17.5516C61.3417 19.8727 58.7433 21.0399 56.4193 20.1589L54.8632 19.5691C52.5392 18.6881 51.3706 16.093 52.2527 13.7719L53.7392 9.86039C54.1816 10.3144 54.7261 10.6825 55.3566 10.9215L56.9167 11.5129C59.2407 12.3938 61.839 11.2267 62.7211 8.90555L64.3502 4.61859C65.536 5.83007 65.9805 7.66575 65.3393 9.35308Z" fill="#3E4FBA"/>
<path d="M18.9654 117.195L18.4198 116.988C14.4709 115.491 12.4848 111.081 13.9851 107.133L47.8194 18.0998C49.3182 14.156 53.7357 12.1683 57.6845 13.6651L58.2302 13.872C62.179 15.3688 64.1636 19.7834 62.6649 23.7272L28.8305 112.76C27.3303 116.708 22.9142 118.692 18.9654 117.195Z" fill="#C92E41"/>
<path d="M15.1036 108.12L50.6438 14.5983C51.015 13.6215 52.1387 13.1469 53.1084 13.5884C53.9908 13.9921 54.3772 15.0437 54.032 15.952L19.8095 106.007C19.0947 107.888 16.9871 108.834 15.1036 108.12Z" fill="#EC313A"/>
<path d="M64.248 19.5613L27.2459 116.93C26.6215 118.573 24.7815 119.4 23.1365 118.776L14.2487 115.407C12.6037 114.784 11.7761 112.946 12.4004 111.303L12.5861 110.815C19.0442 113.046 26.1557 109.761 28.5978 103.334L62.0456 15.3183L62.4013 15.4531C64.0463 16.0767 64.8723 17.9184 64.248 19.5613Z" fill="#7F133B"/>
<path d="M51.9092 39.4852L45.3293 36.991C42.4151 35.8863 40.9465 32.6326 42.0541 29.7181L42.206 29.3185C43.3135 26.404 46.5754 24.9388 49.4895 26.0435L56.0695 28.5377C58.9877 29.6439 60.4507 32.9001 59.3431 35.8146L59.1912 36.2142C58.0837 39.1287 54.8274 40.5914 51.9092 39.4852Z" fill="#3E4FBA"/>
<path d="M53.6162 27.6077L53.1191 28.9156C52.7479 29.8925 51.655 30.3834 50.681 30.0142L43.042 27.1185L43.539 25.8106C43.9103 24.8337 45.0031 24.3428 45.9812 24.7136L53.6162 27.6077Z" fill="#91D4FF"/>
<path d="M60.6762 32.3067L57.8597 39.718C57.4885 40.6949 56.3956 41.1858 55.4175 40.8151L41.821 35.6611C40.8429 35.2903 40.3513 34.1989 40.7226 33.222L41.3162 31.6598L52.1361 35.7612C53.1142 36.132 54.2071 35.6411 54.5783 34.6642L56.8011 28.815L59.5778 29.8676C60.5559 30.2383 61.0474 31.3298 60.6762 32.3067Z" fill="#393954"/>
<path d="M61.9524 3.26183L61.3342 4.8886C60.6086 6.79796 58.4674 7.75972 56.5557 7.03504C56.006 6.82667 55.5418 6.50294 55.167 6.10222L55.3664 5.57746C56.2485 3.25636 58.8483 2.08517 61.1723 2.96613L61.9524 3.26183Z" fill="#91D4FF"/>
<path d="M96.0487 56.3784L82.9597 92.2693C82.3632 93.8997 80.554 94.7425 78.9216 94.1468L77.0572 93.4678C74.9292 92.4117 73.8913 89.8986 74.7211 87.6177C75.5564 85.3343 77.9709 84.079 80.2796 84.6355L89.0524 60.5889C89.4161 59.5954 88.9028 58.5003 87.908 58.137L84.7239 56.9762L86.2468 52.8106L91.2266 54.6244L95.7521 56.2706L96.0487 56.3784Z" fill="#393954"/>
<path d="M47.1621 145.086C47.3117 145.143 47.3712 145.327 47.2796 145.458L43.2322 151.29C42.6342 152.158 41.2701 151.659 41.3679 150.611L42.0219 143.549C42.0423 143.385 42.2066 143.282 42.3562 143.338L44.7571 144.211L47.1621 145.086Z" fill="#30262D"/>
<path d="M54.2363 134.186L48.9725 144.484C48.5202 145.37 47.4773 145.778 46.543 145.438L44.8161 144.811L44.3038 144.626L42.5783 143.995C41.6441 143.655 41.1071 142.671 41.3316 141.703L43.9342 130.437L48.8331 132.221L49.3414 132.404L54.2363 134.186Z" fill="#FFB33A"/>
<path d="M54.2363 134.186L48.9725 144.484C48.5202 145.37 47.4773 145.778 46.543 145.438L44.8161 144.811L44.3038 144.626L42.5783 143.995C41.7007 143.676 41.1735 142.788 41.2985 141.875L42.8461 142.439L43.3528 142.626L45.0839 143.255C46.0181 143.595 46.9791 143.414 47.3189 142.836L50.4275 135.776L46.39 134.305L45.8818 134.122L43.3029 133.181L43.9342 130.437L48.8331 132.221L49.3414 132.404L54.2363 134.186Z" fill="#FA872C"/>
<path d="M43.3029 133.181L43.9342 130.437L54.2363 134.186L52.9537 136.697L43.3029 133.181Z" fill="#30262D"/>
<path d="M92.1326 29.2676L89.2534 37.1725C88.4365 39.4074 85.9591 40.5604 83.7173 39.7429L82.2183 39.1978C79.9805 38.3818 78.8261 35.9076 79.643 33.6727L82.5247 25.7734C83.3376 23.5369 85.8149 22.3839 88.0582 23.1974L89.5574 23.7425C91.7992 24.56 92.9495 27.0327 92.1326 29.2676Z" fill="#4FA2FB"/>
<path d="M92.1326 29.2676L89.2535 37.1724C88.4365 39.4074 85.9592 40.5604 83.7214 39.7444L82.2183 39.1977C79.9805 38.3818 78.8261 35.9076 79.6431 33.6726L81.0156 29.9026C81.4481 30.3344 81.9744 30.6771 82.5837 30.8988L84.0869 31.4455C86.3247 32.2615 88.802 31.1085 89.6189 28.8736L91.1255 24.7387C92.2781 25.8914 92.7276 27.6412 92.1326 29.2676Z" fill="#3E4FBA"/>
<path d="M49.0412 133.279L48.5209 133.09C44.7113 131.702 42.7521 127.5 44.1385 123.694L75.4407 37.8802C76.8352 34.0769 81.0421 32.1202 84.8492 33.5033L85.3737 33.6929C89.1792 35.08 91.1424 39.2832 89.756 43.0895L58.4482 128.906C57.0593 132.706 52.8468 134.666 49.0412 133.279Z" fill="#FFB33A"/>
<path d="M45.2237 124.622L78.1086 34.4857C78.4524 33.5446 79.5239 33.0733 80.4594 33.4834C81.3115 33.8572 81.6956 34.8663 81.3738 35.7373L49.7094 122.54C49.0479 124.354 47.038 125.287 45.2237 124.622Z" fill="#FFC97B"/>
<path d="M91.222 39.0733L56.9834 132.918C56.4038 134.504 54.6503 135.322 53.0623 134.743L44.4993 131.626C42.9113 131.047 42.0925 129.296 42.6721 127.71L42.846 127.24C49.069 129.299 55.8449 126.058 58.1065 119.863L89.0537 35.0325L89.3947 35.1572C90.9787 35.7345 91.8016 37.4873 91.222 39.0733Z" fill="#FA872C"/>
<path d="M79.6427 58.3382L73.3012 56.0313C70.4905 55.0075 69.0406 51.8994 70.0642 49.0962L70.2074 48.7072C71.231 45.904 74.339 44.4544 77.1497 45.4783L83.4911 47.7851C86.3019 48.809 87.7493 51.9115 86.7241 54.7187L86.5824 55.1037C85.5613 57.9124 82.4493 59.3605 79.6427 58.3382Z" fill="#3E4FBA"/>
<path d="M81.126 46.9257L80.6667 48.1832C80.3229 49.1243 79.2822 49.6119 78.3399 49.2686L70.9794 46.5893L71.4387 45.3318C71.7825 44.3907 72.8232 43.9031 73.7655 44.2465L81.126 46.9257Z" fill="#91D4FF"/>
<path d="M87.9559 51.3433L85.353 58.4847C85.0092 59.4258 83.9644 59.9118 83.0222 59.5685L69.9174 54.7995C68.9751 54.4562 68.4925 53.4143 68.8322 52.4716L69.3827 50.9623L79.8126 54.7635C80.7564 55.1028 81.7956 54.6193 82.1394 53.6782L84.1934 48.0421L86.8747 49.017C87.817 49.3603 88.3012 50.3982 87.9559 51.3433Z" fill="#393954"/>
<path d="M88.8048 23.4712L88.2329 25.037C87.5607 26.8788 85.527 27.8259 83.6828 27.1545C83.1543 26.9634 82.7001 26.662 82.3368 26.2795L82.5245 25.7734C83.3374 23.5369 85.8148 22.3839 88.0581 23.1973L88.8048 23.4712Z" fill="#91D4FF"/>
<path fill-rule="evenodd" clip-rule="evenodd" d="M481.216 192.641C482 193.341 483.215 193.247 483.875 192.435C484.157 192.089 484.436 191.741 484.711 191.392C484.881 191.286 485.037 191.152 485.17 190.988C512.432 157.529 508.781 108.24 476.245 79.196C446.343 52.5029 402.158 51.9388 371.724 75.9303L371.723 75.9299C371.576 76.0465 371.428 76.1636 371.282 76.2812C369.723 77.5275 368.201 78.8388 366.72 80.2147C365.804 81.0646 364.904 81.9394 364.021 82.8399C363.872 82.9912 363.755 83.1612 363.669 83.3419C363.353 83.654 363.038 83.9692 362.726 84.2874C361.992 85.0334 362.03 86.2452 362.814 86.9453L481.216 192.641ZM409.252 100.049C408.766 101.105 408.984 102.41 409.912 103.239L459.739 147.718C460.67 148.55 461.999 148.618 462.997 148.01C473.147 133.182 470.957 112.783 457.187 100.491C443.417 88.1993 422.869 88.3078 409.252 100.049Z" fill="black" fill-opacity="0.15"/>
<path fill-rule="evenodd" clip-rule="evenodd" d="M468.438 200.401C467.774 201.217 466.564 201.315 465.78 200.615L347.373 94.9154C346.589 94.2153 346.551 93.0034 347.289 92.2529C377.528 61.4597 426.981 59.569 459.517 88.6131C492.049 117.653 495.696 166.946 468.438 200.401ZM443.006 157.131C444.226 158.22 446.109 158.006 447.063 156.682C457.777 141.806 455.735 120.949 441.751 108.465C426.996 95.2945 404.454 96.3568 391.006 110.711L443.006 157.131Z" fill="#EA7218"/>
<path fill-rule="evenodd" clip-rule="evenodd" d="M469.73 198.958C469.065 199.774 467.855 199.872 467.071 199.172L348.664 93.4725C347.88 92.7724 347.843 91.5605 348.58 90.81C378.824 60.0122 428.273 58.1261 460.809 87.1702C493.34 116.21 496.992 165.499 469.73 198.958ZM444.298 155.688C445.518 156.777 447.405 156.558 448.359 155.235C459.068 140.363 457.03 119.501 443.046 107.018C429.058 94.5308 408.072 94.8402 394.473 107.132C393.263 108.227 393.256 110.124 394.476 111.213L444.298 155.688Z" fill="#FFA01E"/>
<path d="M475.739 190.537C473.937 193.436 471.939 196.25 469.73 198.958C469.065 199.774 467.855 199.872 467.071 199.172L348.664 93.4725C347.88 92.7724 347.843 91.5605 348.58 90.81C351.028 88.3147 353.604 86.0166 356.287 83.9041L475.739 190.537Z" fill="#FEC04D"/>
<path d="M449.744 183.704L456.081 176.622C456.737 175.89 457.858 175.827 458.587 176.478C459.316 177.129 459.379 178.248 458.723 178.981L452.385 186.062L449.744 183.704Z" fill="#DFDFDF"/>
<path d="M443.923 178.509L447.24 174.803C447.891 174.075 449.012 174.012 449.741 174.663C450.47 175.314 450.538 176.437 449.886 177.165L446.57 180.871L443.923 178.509Z" fill="#DFDFDF"/>
<path d="M437.401 172.687L443.739 165.605C444.395 164.872 445.515 164.809 446.245 165.46C446.974 166.111 447.037 167.23 446.381 167.963L440.043 175.045L437.401 172.687Z" fill="#DFDFDF"/>
<path d="M431.581 167.491L434.897 163.785C435.549 163.057 436.67 162.994 437.399 163.645C438.128 164.296 438.196 165.419 437.544 166.148L434.227 169.853L431.581 167.491Z" fill="#DFDFDF"/>
<path d="M425.06 161.669L431.397 154.588C432.053 153.855 433.173 153.792 433.903 154.443C434.632 155.094 434.695 156.213 434.039 156.946L427.701 164.027L425.06 161.669Z" fill="#DFDFDF"/>
<path d="M419.239 156.474L422.556 152.768C423.207 152.04 424.328 151.977 425.057 152.628C425.786 153.279 425.854 154.402 425.202 155.13L421.886 158.836L419.239 156.474Z" fill="#DFDFDF"/>
<path d="M412.718 150.652L419.055 143.57C419.711 142.837 420.832 142.775 421.561 143.426C422.29 144.076 422.353 145.196 421.697 145.928L415.36 153.01L412.718 150.652Z" fill="#DFDFDF"/>
<path d="M406.897 145.456L410.214 141.751C410.866 141.022 411.986 140.96 412.715 141.61C413.445 142.261 413.512 143.385 412.86 144.113L409.544 147.819L406.897 145.456Z" fill="#DFDFDF"/>
<path d="M400.376 139.634L406.714 132.553C407.369 131.82 408.49 131.757 409.219 132.408C409.948 133.059 410.011 134.178 409.355 134.911L403.018 141.993L400.376 139.634Z" fill="#DFDFDF"/>
<path d="M394.556 134.439L397.872 130.733C398.524 130.005 399.644 129.942 400.374 130.593C401.103 131.244 401.17 132.367 400.518 133.095L397.202 136.801L394.556 134.439Z" fill="#DFDFDF"/>
<path d="M388.034 128.617L394.371 121.535C395.027 120.802 396.148 120.74 396.877 121.391C397.606 122.042 397.669 123.161 397.013 123.894L390.675 130.975L388.034 128.617Z" fill="#DFDFDF"/>
<path d="M382.213 123.421L385.53 119.716C386.182 118.987 387.302 118.925 388.031 119.576C388.765 120.231 388.828 121.35 388.176 122.078L384.86 125.784L382.213 123.421Z" fill="#DFDFDF"/>
<path d="M375.692 117.599L382.029 110.518C382.685 109.785 383.806 109.722 384.535 110.373C385.264 111.024 385.327 112.143 384.671 112.876L378.334 119.958L375.692 117.599Z" fill="#DFDFDF"/>
<path d="M369.872 112.404L373.188 108.698C373.84 107.97 374.96 107.907 375.689 108.558C376.423 109.213 376.486 110.332 375.834 111.061L372.518 114.766L369.872 112.404Z" fill="#DFDFDF"/>
<path d="M363.35 106.582L369.687 99.5004C370.343 98.7675 371.464 98.7048 372.193 99.3557C372.922 100.007 372.985 101.126 372.329 101.859L365.991 108.94L363.35 106.582Z" fill="#DFDFDF"/>
</svg>
