<svg width="935" height="275" viewBox="0 0 935 275" fill="none" xmlns="http://www.w3.org/2000/svg">
<g clip-path="url(#clip0_626_558)">
<path d="M221.8 165.6C216.4 174.2 215 182.3 218.1 192.3C225.3 215.5 230.6 239.2 235.1 263.1C235.7 266.6 237.2 270.6 233.9 273.2C229.8 276.5 226.2 273.1 222.9 271C195.8 253.2 168.3 236 139.9 220.4C131.5 215.7 132.2 211.6 137.2 204.6C151.4 185 166.8 166.5 185.8 151.9C197.8 142.7 225.8 124.7 254.7 117.7C243.4 133.3 232.1 149.1 221.8 165.6Z" fill="#0085FF"/>
<path d="M272.4 93.9C269.2 98.3 265.9 102.6 262.7 107C230.2 114.4 208.4 125.4 192.6 135.6C192.6 135.6 192.6 135.6 192.5 135.6C137.1 165.5 85.0999 218 40.6999 270.9C38.2999 273.7 33.6999 272.6 32.8999 269C31.9999 264.7 32.7999 260.9 33.2999 257.3C43.5999 178.5 67.6999 104.7 113.6 39C121.5 27.6 130.9 17.1 140.2 6.9C149.7 -3.4 154.3 -2.3 159 10.7C165.7 29.4 169.3 48.9 173.8 68.2C175.9 77.3 170 81.1 163.8 85.3C131.7 106.7 103.4 132.2 80.8999 163.8C78.8999 166.7 77.0999 169.9 75.0999 172.9C73.8999 174.7 74.4999 175.3 75.5999 175.6C80.7999 175.4 83.4999 171.4 86.4999 168.5C135.7 120 196.2 90.5 265.8 82.1C269.6 81.6 274.8 79.1 277.3 82.8C280.5 87.4 274.9 90.5 272.4 93.9Z" fill="#0085FF"/>
<path d="M32.5 156.7C31.9 158.5 30.3 159.6 26.3 159.4C24.8 159.3 23.3 158.9 21.8 158.4C16.9 156.7 9.79996 154.3 2.89996 151.2C-2.10004 148.9 -4.41074e-05 145.3 3.39996 143C7.79996 139.9 12.6 137.3 17.2 134.8C24.4 130.9 34 122.6 38.1 129C43 136.3 35.4 147.4 32.5 156.7Z" fill="#0085FF"/>
</g>
<path d="M316.25 96.5625H347.188V117.797H326.164C309.195 117.703 300.711 125.391 300.711 140.859C300.711 144.141 300.711 147.656 300.711 151.406C300.711 166.453 309.195 173.977 326.164 173.977H347.188V195H316.25C290.75 195 278 178.594 278 145.781C278 112.969 290.75 96.5625 316.25 96.5625ZM380.516 96.5625V173.766H421.578V195H376.367C363.945 195 357.734 188.32 357.734 174.961V96.5625H380.516ZM460.32 180.305L454.695 194.93H432.125L466.93 102.047C467.773 100.219 469.039 98.7422 470.727 97.6172C472.414 96.5391 474.289 96 476.352 96C478.367 96 480.266 96.5391 482.047 97.6172C483.828 98.7422 485.117 100.219 485.914 102.047L521.211 195H498.57L492.875 180.305H460.32ZM484.578 159L476.422 138.117L468.406 159H484.578ZM530.492 195H572.539C574.695 195 576.641 194.812 578.375 194.438C582.875 193.641 586.859 192.023 590.328 189.586C594.453 186.68 597.5 182.789 599.469 177.914C601.484 173.086 602.188 167.93 601.578 162.445C601.25 151.008 596.141 143.414 586.25 139.664L554.188 132.281C551.188 131.25 549.688 128.578 549.688 124.266C549.688 120 551.961 117.867 556.508 117.867H594.336V96.4922H555.594C553.672 96.6797 551.773 96.9375 549.898 97.2656C544.414 98.2031 540.008 99.8438 536.68 102.188C532.93 105 530 108.469 527.891 112.594C525.828 116.719 524.82 121.102 524.867 125.742C524.914 130.664 526.062 135.234 528.312 139.453C530.562 143.719 533.656 147.164 537.594 149.789C540.266 151.617 543.57 153.023 547.508 154.008L572.469 159C575.469 159.844 576.969 162.492 576.969 166.945C576.969 171.398 574.719 173.625 570.219 173.625H530.492V195ZM611.773 195H653.82C655.977 195 657.922 194.812 659.656 194.438C664.156 193.641 668.141 192.023 671.609 189.586C675.734 186.68 678.781 182.789 680.75 177.914C682.766 173.086 683.469 167.93 682.859 162.445C682.531 151.008 677.422 143.414 667.531 139.664L635.469 132.281C632.469 131.25 630.969 128.578 630.969 124.266C630.969 120 633.242 117.867 637.789 117.867H675.617V96.4922H636.875C634.953 96.6797 633.055 96.9375 631.18 97.2656C625.695 98.2031 621.289 99.8438 617.961 102.188C614.211 105 611.281 108.469 609.172 112.594C607.109 116.719 606.102 121.102 606.148 125.742C606.195 130.664 607.344 135.234 609.594 139.453C611.844 143.719 614.938 147.164 618.875 149.789C621.547 151.617 624.852 153.023 628.789 154.008L653.75 159C656.75 159.844 658.25 162.492 658.25 166.945C658.25 171.398 656 173.625 651.5 173.625H611.773V195ZM709.508 195.07V117.867H686.656V96.5625H754.156V117.867H732.43V195.07H709.508ZM771.805 180.305L766.18 194.93H743.609L778.414 102.047C779.258 100.219 780.523 98.7422 782.211 97.6172C783.898 96.5391 785.773 96 787.836 96C789.852 96 791.75 96.5391 793.531 97.6172C795.312 98.7422 796.602 100.219 797.398 102.047L832.695 195H810.055L804.359 180.305H771.805ZM796.062 159L787.906 138.117L779.891 159H796.062ZM890.633 130.523L880.227 144.023C876.336 148.711 876.336 155.039 880.227 163.008L896.609 194.93L923.609 195.07L902.375 157.031C901.297 154.453 901.508 152.156 903.008 150.141L911.656 139.945C915.922 135.211 918.102 128.977 918.195 121.242C918.289 113.461 916.016 107.391 911.375 103.031C906.781 98.625 900.828 96.4688 893.516 96.5625H843.312L843.383 195.07H865.461V117.023H893.445V117.094C893.68 117.047 893.891 117.023 894.078 117.023C894.969 117.023 895.719 117.375 896.328 118.078C896.984 118.734 897.312 119.555 897.312 120.539C897.312 121.477 895.086 124.805 890.633 130.523Z" fill="#0085FF"/>
<defs>
<clipPath id="clip0_626_558">
<rect width="278.3" height="274.6" fill="white"/>
</clipPath>
</defs>
</svg>
