<svg width="935" height="290" viewBox="0 0 935 290" fill="none" xmlns="http://www.w3.org/2000/svg">
<g clip-path="url(#clip0_626_559)">
<path d="M221.8 165.6C216.4 174.2 215 182.3 218.1 192.3C225.3 215.5 230.6 239.2 235.1 263.1C235.7 266.6 237.2 270.6 233.9 273.2C229.8 276.5 226.2 273.1 222.9 271C195.8 253.2 168.3 236 139.9 220.4C131.5 215.7 132.2 211.6 137.2 204.6C151.4 185 166.8 166.5 185.8 151.9C197.8 142.7 225.8 124.7 254.7 117.7C243.4 133.3 232.1 149.1 221.8 165.6Z" fill="white"/>
<path d="M272.4 93.9C269.2 98.3 265.9 102.6 262.7 107C230.2 114.4 208.4 125.4 192.6 135.6C192.6 135.6 192.6 135.6 192.5 135.6C137.1 165.5 85.0999 218 40.6999 270.9C38.2999 273.7 33.6999 272.6 32.8999 269C31.9999 264.7 32.7999 260.9 33.2999 257.3C43.5999 178.5 67.6999 104.7 113.6 39C121.5 27.6 130.9 17.1 140.2 6.9C149.7 -3.4 154.3 -2.3 159 10.7C165.7 29.4 169.3 48.9 173.8 68.2C175.9 77.3 170 81.1 163.8 85.3C131.7 106.7 103.4 132.2 80.8999 163.8C78.8999 166.7 77.0999 169.9 75.0999 172.9C73.8999 174.7 74.4999 175.3 75.5999 175.6C80.7999 175.4 83.4999 171.4 86.4999 168.5C135.7 120 196.2 90.5 265.8 82.1C269.6 81.6 274.8 79.1 277.3 82.8C280.5 87.4 274.9 90.5 272.4 93.9Z" fill="white"/>
<path d="M32.5 156.7C31.9 158.5 30.3 159.6 26.3 159.4C24.8 159.3 23.3 158.9 21.8 158.4C16.9 156.7 9.79996 154.3 2.89996 151.2C-2.10004 148.9 -4.41074e-05 145.3 3.39996 143C7.79996 139.9 12.6 137.3 17.2 134.8C24.4 130.9 34 122.6 38.1 129C43 136.3 35.4 147.4 32.5 156.7Z" fill="white"/>
</g>
<path d="M316.25 148.562H347.188V169.797H326.164C309.195 169.703 300.711 177.391 300.711 192.859C300.711 196.141 300.711 199.656 300.711 203.406C300.711 218.453 309.195 225.977 326.164 225.977H347.188V247H316.25C290.75 247 278 230.594 278 197.781C278 164.969 290.75 148.562 316.25 148.562ZM380.516 148.562V225.766H421.578V247H376.367C363.945 247 357.734 240.32 357.734 226.961V148.562H380.516ZM460.32 232.305L454.695 246.93H432.125L466.93 154.047C467.773 152.219 469.039 150.742 470.727 149.617C472.414 148.539 474.289 148 476.352 148C478.367 148 480.266 148.539 482.047 149.617C483.828 150.742 485.117 152.219 485.914 154.047L521.211 247H498.57L492.875 232.305H460.32ZM484.578 211L476.422 190.117L468.406 211H484.578ZM530.492 247H572.539C574.695 247 576.641 246.812 578.375 246.438C582.875 245.641 586.859 244.023 590.328 241.586C594.453 238.68 597.5 234.789 599.469 229.914C601.484 225.086 602.188 219.93 601.578 214.445C601.25 203.008 596.141 195.414 586.25 191.664L554.188 184.281C551.188 183.25 549.688 180.578 549.688 176.266C549.688 172 551.961 169.867 556.508 169.867H594.336V148.492H555.594C553.672 148.68 551.773 148.938 549.898 149.266C544.414 150.203 540.008 151.844 536.68 154.188C532.93 157 530 160.469 527.891 164.594C525.828 168.719 524.82 173.102 524.867 177.742C524.914 182.664 526.062 187.234 528.312 191.453C530.562 195.719 533.656 199.164 537.594 201.789C540.266 203.617 543.57 205.023 547.508 206.008L572.469 211C575.469 211.844 576.969 214.492 576.969 218.945C576.969 223.398 574.719 225.625 570.219 225.625H530.492V247ZM611.773 247H653.82C655.977 247 657.922 246.812 659.656 246.438C664.156 245.641 668.141 244.023 671.609 241.586C675.734 238.68 678.781 234.789 680.75 229.914C682.766 225.086 683.469 219.93 682.859 214.445C682.531 203.008 677.422 195.414 667.531 191.664L635.469 184.281C632.469 183.25 630.969 180.578 630.969 176.266C630.969 172 633.242 169.867 637.789 169.867H675.617V148.492H636.875C634.953 148.68 633.055 148.938 631.18 149.266C625.695 150.203 621.289 151.844 617.961 154.188C614.211 157 611.281 160.469 609.172 164.594C607.109 168.719 606.102 173.102 606.148 177.742C606.195 182.664 607.344 187.234 609.594 191.453C611.844 195.719 614.938 199.164 618.875 201.789C621.547 203.617 624.852 205.023 628.789 206.008L653.75 211C656.75 211.844 658.25 214.492 658.25 218.945C658.25 223.398 656 225.625 651.5 225.625H611.773V247ZM709.508 247.07V169.867H686.656V148.562H754.156V169.867H732.43V247.07H709.508ZM771.805 232.305L766.18 246.93H743.609L778.414 154.047C779.258 152.219 780.523 150.742 782.211 149.617C783.898 148.539 785.773 148 787.836 148C789.852 148 791.75 148.539 793.531 149.617C795.312 150.742 796.602 152.219 797.398 154.047L832.695 247H810.055L804.359 232.305H771.805ZM796.062 211L787.906 190.117L779.891 211H796.062ZM890.633 182.523L880.227 196.023C876.336 200.711 876.336 207.039 880.227 215.008L896.609 246.93L923.609 247.07L902.375 209.031C901.297 206.453 901.508 204.156 903.008 202.141L911.656 191.945C915.922 187.211 918.102 180.977 918.195 173.242C918.289 165.461 916.016 159.391 911.375 155.031C906.781 150.625 900.828 148.469 893.516 148.562H843.312L843.383 247.07H865.461V169.023H893.445V169.094C893.68 169.047 893.891 169.023 894.078 169.023C894.969 169.023 895.719 169.375 896.328 170.078C896.984 170.734 897.312 171.555 897.312 172.539C897.312 173.477 895.086 176.805 890.633 182.523Z" fill="white"/>
<defs>
<clipPath id="clip0_626_559">
<rect width="278.3" height="274.6" fill="white"/>
</clipPath>
</defs>
</svg>
