<svg width="258" height="520" viewBox="0 0 258 520" fill="none" xmlns="http://www.w3.org/2000/svg">
<path fill-rule="evenodd" clip-rule="evenodd" d="M155.454 139.364L122.184 147.324C98.2135 153.054 74.0335 138.214 68.3035 114.244L56.0635 63.0738C50.3235 39.0938 65.1635 14.9238 89.1435 9.19378L122.414 1.23369C146.384 -4.50631 170.554 10.3338 176.294 34.3138L188.534 85.4837C194.264 109.454 179.424 133.624 155.454 139.364ZM92.0735 21.4538C74.8635 25.5738 64.2035 42.9237 68.3235 60.1337L80.5635 111.314C84.6835 128.524 102.044 139.174 119.254 135.064L152.524 127.104C169.734 122.984 180.394 105.624 176.274 88.4137L164.034 37.2437C159.914 20.0337 142.554 9.3737 125.344 13.4937L92.0735 21.4538Z" fill="#393954"/>
<path d="M298.344 413.954L119.034 456.844C67.9036 469.074 16.5436 437.544 4.31358 386.424L2.63359 379.394C-9.59641 328.274 21.9336 276.914 73.0636 264.684L252.374 221.784C303.494 209.554 354.854 241.084 367.084 292.214L368.764 299.244C380.994 350.364 349.474 401.724 298.344 413.954Z" fill="#3E4FBA"/>
<path d="M366.964 291.684L379.574 344.424C385.834 370.594 369.694 396.884 343.524 403.144L73.8536 467.654C47.6836 473.914 21.3835 457.774 15.1235 431.604L2.51355 378.874C8.77355 405.044 35.0635 421.184 61.2335 414.924L330.914 350.414C357.084 344.144 373.224 317.854 366.964 291.684Z" fill="#393954"/>
<path d="M189.094 333.634L180.104 335.784C114.674 351.444 48.9536 311.094 33.2936 245.664L22.1036 198.874C6.45363 133.444 46.8036 67.7138 112.234 52.0638L121.224 49.9138C186.654 34.2638 252.374 74.6138 268.034 140.044L279.224 186.834C294.874 252.254 254.524 317.984 189.094 333.634Z" fill="#3377EF"/>
<path d="M328.554 467.854L116.494 518.583C91.2435 524.624 65.8636 509.054 59.8236 483.804L17.3236 306.124C11.2836 280.864 26.8536 255.504 52.1036 249.454L264.164 198.724C289.424 192.684 314.784 208.264 320.834 233.514L363.334 411.194C369.374 436.444 353.804 461.814 328.554 467.854Z" fill="#4FA2FB"/>
<path d="M315.784 212.434L321.514 236.374C315.094 209.534 288.144 192.994 261.304 199.414L54.9736 248.774C28.1336 255.194 11.5836 282.144 18.0036 308.974L12.2736 285.034C5.86359 258.204 22.4136 231.254 49.2436 224.834L255.574 175.464C282.414 169.054 309.374 185.594 315.784 212.434Z" fill="#91D4FF"/>
<path d="M342.084 322.354L356.924 384.394C363.344 411.224 346.794 438.184 319.964 444.594L113.624 493.954C86.7936 500.374 59.8336 483.824 53.4136 456.994L38.5736 394.964C44.9936 421.794 71.9536 438.344 98.7836 431.924L305.124 382.564C331.954 376.144 348.504 349.184 342.084 322.354Z" fill="#3377EF"/>
<path d="M196.304 154.574L92.6436 179.374C71.5736 184.414 50.4136 171.414 45.3736 150.354L44.6836 147.454C39.6436 126.394 52.6336 105.234 73.6936 100.194L177.364 75.3936C198.424 70.3536 219.584 83.3436 224.624 104.414L225.324 107.304C230.364 128.374 217.374 149.534 196.304 154.574Z" fill="#4FA2FB"/>
<path d="M191.514 72.0036C201.974 69.5036 212.474 74.0736 217.984 82.6336C216.934 92.7536 209.644 101.584 199.184 104.084L67.2236 135.654C56.7636 138.164 46.2635 133.584 40.7535 125.034C41.7935 114.904 49.0835 106.084 59.5535 103.574L191.514 72.0036Z" fill="#3E4FBA"/>
<path d="M137.494 451.834L134.354 452.584C111.544 458.044 88.6237 443.974 83.1637 421.154L77.1037 395.804C71.6437 372.994 85.7136 350.074 108.524 344.614L111.664 343.864C134.474 338.414 157.394 352.484 162.854 375.294L168.914 400.644C174.374 423.464 160.304 446.374 137.494 451.834Z" fill="#91D4FF"/>
<path d="M81.3937 364.274L144.754 349.114C150.934 347.634 157.144 351.444 158.624 357.634L162.554 374.024C165.404 385.954 158.054 397.934 146.124 400.784L103.554 410.974C91.6336 413.824 79.6536 406.464 76.8036 394.544L72.8736 378.144C71.3936 371.964 75.2137 365.754 81.3937 364.274Z" fill="#3377EF"/>
<path d="M78.0437 350.274L141.404 335.114C147.584 333.644 153.804 337.454 155.284 343.634L159.204 360.034C162.054 371.954 154.704 383.934 142.774 386.794L100.214 396.974C88.2836 399.824 76.3036 392.474 73.4536 380.544L69.5336 364.154C68.0536 357.964 71.8637 351.754 78.0437 350.274Z" fill="#91D4FF"/>
<path d="M125.104 405.814L124.574 405.944C120.744 406.854 116.894 404.494 115.984 400.664L112.604 386.534C111.684 382.714 114.054 378.864 117.884 377.944L118.404 377.824C122.234 376.904 126.084 379.264 127.004 383.094L130.384 397.224C131.294 401.054 128.934 404.904 125.104 405.814Z" fill="#393954"/>
<path d="M282.754 417.084L279.614 417.834C256.804 423.294 233.883 409.224 228.423 386.414L222.354 361.054C216.904 338.244 230.974 315.324 253.784 309.864L256.924 309.114C279.733 303.664 302.654 317.734 308.104 340.544L314.174 365.894C319.633 388.714 305.564 411.624 282.754 417.084Z" fill="#91D4FF"/>
<path d="M226.654 329.524L290.014 314.364C296.194 312.884 302.404 316.694 303.884 322.884L307.804 339.274C310.654 351.204 303.304 363.184 291.384 366.034L248.814 376.224C236.894 379.074 224.904 371.714 222.054 359.794L218.134 343.394C216.654 337.214 220.474 331.004 226.654 329.524Z" fill="#3377EF"/>
<path d="M223.304 315.524L286.664 300.374C292.844 298.894 299.054 302.704 300.534 308.884L304.464 325.284C307.314 337.214 299.954 349.194 288.034 352.044L245.474 362.224C233.544 365.074 221.564 357.724 218.714 345.794L214.784 329.404C213.304 323.214 217.124 317.004 223.304 315.524Z" fill="#91D4FF"/>
<path d="M270.364 371.064L269.834 371.194C266.004 372.104 262.164 369.744 261.244 365.914L257.864 351.784C256.944 347.964 259.304 344.114 263.144 343.194L263.664 343.074C267.494 342.154 271.344 344.524 272.254 348.344L275.634 362.474C276.554 366.304 274.194 370.154 270.364 371.064Z" fill="#393954"/>
<path d="M203.824 132.484L75.9436 163.074C73.1336 163.744 70.3036 162.014 69.6336 159.204L69.5437 158.814C68.8637 156.004 70.6036 153.184 73.4136 152.514L201.294 121.914C204.104 121.244 206.924 122.974 207.604 125.784L207.694 126.174C208.364 128.984 206.634 131.804 203.824 132.484Z" fill="#91D4FF"/>
<path fill-rule="evenodd" clip-rule="evenodd" d="M94.5536 198.674L89.9136 199.784C85.7136 200.784 81.5936 197.824 81.2036 193.524L78.0736 158.714C77.9836 157.734 78.6336 156.844 79.5836 156.614L84.2336 155.504C85.1836 155.274 86.1636 155.784 86.5236 156.694L99.4836 189.154C101.094 193.164 98.7636 197.664 94.5536 198.674ZM94.8136 189.324C94.1936 186.734 91.6036 185.144 89.0136 185.764C86.4236 186.374 84.8336 188.974 85.4536 191.564C86.0636 194.144 88.6636 195.744 91.2536 195.124C93.8436 194.504 95.4336 191.904 94.8136 189.324Z" fill="#393954"/>
</svg>
