<svg width="576" height="633" viewBox="0 0 576 633" fill="none" xmlns="http://www.w3.org/2000/svg">
<path d="M88.2999 545.63L205.33 215L304.13 249.97C304.55 250.02 304.97 250.11 305.39 250.18L445.89 299.91C455.06 305.2 459.52 316.11 455.99 326.09L352.75 617.75C349.66 626.47 341.37 631.88 332.36 632.02L88.2999 545.63Z" fill="black" fill-opacity="0.15"/>
<path fill-rule="evenodd" clip-rule="evenodd" d="M484.814 279.379C486.089 280.519 488.063 280.366 489.136 279.045C489.595 278.481 490.048 277.915 490.496 277.346C490.772 277.175 491.025 276.956 491.242 276.689C535.561 222.228 529.625 142.001 476.733 94.7257C428.122 51.2773 356.294 50.3591 306.817 89.4101L306.816 89.4094C306.584 89.5932 306.353 89.7777 306.121 89.9631C303.572 92.003 301.084 94.1499 298.662 96.4034C297.181 97.7806 295.725 99.198 294.296 100.657C294.054 100.903 293.863 101.18 293.724 101.474C293.209 101.982 292.698 102.495 292.19 103.013C290.997 104.227 291.058 106.2 292.333 107.339L484.814 279.379ZM367.826 128.668C367.035 130.387 367.389 132.511 368.898 133.86L449.899 206.259C451.414 207.613 453.574 207.723 455.196 206.734C471.696 182.599 468.136 149.396 445.751 129.388C423.366 109.38 389.961 109.557 367.826 128.668Z" fill="black" fill-opacity="0.15"/>
<path fill-rule="evenodd" clip-rule="evenodd" d="M464.042 292.01C462.962 293.339 460.995 293.498 459.72 292.359L267.232 120.312C265.957 119.173 265.896 117.2 267.095 115.978C316.253 65.8562 396.648 62.7787 449.54 110.054C502.424 157.322 508.354 237.557 464.042 292.01ZM422.698 221.581C424.682 223.353 427.743 223.004 429.293 220.85C446.711 196.636 443.39 162.686 420.657 142.367C396.672 120.929 360.027 122.658 338.164 146.023L422.698 221.581Z" fill="#EA7218"/>
<path fill-rule="evenodd" clip-rule="evenodd" d="M466.141 289.662C465.061 290.99 463.094 291.15 461.819 290.01L269.331 117.963C268.056 116.824 267.995 114.851 269.194 113.63C318.359 63.5002 398.747 60.4301 451.639 107.705C504.523 154.974 510.46 235.2 466.141 289.662ZM424.798 219.232C426.781 221.005 429.849 220.648 431.399 218.494C448.81 194.288 445.496 160.33 422.763 140.012C400.023 119.686 365.908 120.19 343.8 140.197C341.832 141.979 341.821 145.067 343.805 146.84L424.798 219.232Z" fill="#FFA01E"/>
<path d="M475.91 275.955C472.981 280.673 469.732 285.254 466.141 289.662C465.061 290.99 463.094 291.15 461.819 290.01L269.331 117.963C268.056 116.824 267.995 114.851 269.194 113.63C273.173 109.568 277.362 105.828 281.723 102.389L475.91 275.955Z" fill="#FEC04D"/>
<path d="M433.651 264.833L443.953 253.307C445.02 252.114 446.841 252.012 448.027 253.071C449.212 254.131 449.314 255.952 448.248 257.145L437.945 268.672L433.651 264.833Z" fill="#DFDFDF"/>
<path d="M424.189 256.377L429.58 250.345C430.64 249.159 432.462 249.057 433.647 250.117C434.832 251.176 434.942 253.005 433.882 254.19L428.491 260.222L424.189 256.377Z" fill="#DFDFDF"/>
<path d="M413.587 246.9L423.89 235.374C424.956 234.181 426.777 234.078 427.963 235.138C429.148 236.198 429.251 238.019 428.184 239.212L417.882 250.739L413.587 246.9Z" fill="#DFDFDF"/>
<path d="M404.126 238.444L409.517 232.412C410.576 231.226 412.398 231.124 413.583 232.184C414.769 233.243 414.878 235.072 413.819 236.257L408.428 242.289L404.126 238.444Z" fill="#DFDFDF"/>
<path d="M393.523 228.967L403.826 217.441C404.892 216.248 406.714 216.145 407.899 217.205C409.085 218.265 409.187 220.086 408.121 221.279L397.818 232.806L393.523 228.967Z" fill="#DFDFDF"/>
<path d="M384.062 220.511L389.453 214.479C390.513 213.293 392.334 213.191 393.52 214.251C394.705 215.31 394.815 217.138 393.755 218.324L388.364 224.356L384.062 220.511Z" fill="#DFDFDF"/>
<path d="M373.46 211.034L383.762 199.507C384.828 198.314 386.65 198.212 387.835 199.272C389.021 200.332 389.123 202.153 388.057 203.346L377.754 214.873L373.46 211.034Z" fill="#DFDFDF"/>
<path d="M363.998 202.577L369.389 196.546C370.449 195.36 372.27 195.258 373.456 196.318C374.641 197.377 374.751 199.205 373.691 200.391L368.3 206.423L363.998 202.577Z" fill="#DFDFDF"/>
<path d="M353.396 193.101L363.698 181.574C364.765 180.381 366.586 180.279 367.772 181.339C368.957 182.398 369.059 184.22 367.993 185.413L357.69 196.94L353.396 193.101Z" fill="#DFDFDF"/>
<path d="M343.934 184.644L349.326 178.613C350.385 177.427 352.207 177.325 353.392 178.385C354.578 179.444 354.687 181.272 353.628 182.458L348.236 188.49L343.934 184.644Z" fill="#DFDFDF"/>
<path d="M333.332 175.168L343.635 163.641C344.701 162.448 346.522 162.346 347.708 163.406C348.893 164.465 348.996 166.287 347.929 167.48L337.627 179.007L333.332 175.168Z" fill="#DFDFDF"/>
<path d="M323.871 166.711L329.262 160.68C330.321 159.494 332.143 159.392 333.328 160.451C334.521 161.518 334.623 163.339 333.564 164.525L328.173 170.556L323.871 166.711Z" fill="#DFDFDF"/>
<path d="M313.268 157.235L323.571 145.708C324.637 144.515 326.459 144.413 327.644 145.473C328.83 146.532 328.932 148.354 327.866 149.547L317.563 161.073L313.268 157.235Z" fill="#DFDFDF"/>
<path d="M303.807 148.778L309.198 142.746C310.258 141.561 312.079 141.459 313.265 142.518C314.458 143.585 314.56 145.406 313.5 146.592L308.109 152.623L303.807 148.778Z" fill="#DFDFDF"/>
<path d="M293.205 139.302L303.507 127.775C304.574 126.582 306.395 126.48 307.581 127.54C308.766 128.599 308.868 130.421 307.802 131.614L297.499 143.14L293.205 139.302Z" fill="#DFDFDF"/>
<g style="mix-blend-mode:multiply" opacity="0.2">
<g style="mix-blend-mode:multiply" opacity="0.2">
<path d="M171.55 263.67C171.61 263.47 171.72 263.3 171.86 263.13L171.52 264.1C171.52 263.95 171.51 263.81 171.55 263.67ZM159.72 297.09C159.75 297.01 159.81 296.94 159.85 296.86C159.88 296.78 159.95 296.72 160 296.65L159.69 297.52C159.69 297.38 159.68 297.23 159.72 297.09ZM147.89 330.52C147.95 330.32 148.06 330.14 148.2 329.98L147.86 330.95C147.86 330.8 147.85 330.66 147.89 330.52ZM135.15 366.52C135.17 366.44 135.23 366.38 135.26 366.31C135.3 366.22 135.36 366.14 135.43 366.07L135.11 366.94C135.11 366.8 135.11 366.65 135.15 366.52ZM122.77 401.48C122.82 401.33 122.9 401.2 122.99 401.08C123.01 401.05 123.04 401.03 123.05 401.01L122.74 401.91C122.74 401.77 122.73 401.62 122.77 401.48ZM110.58 435.93C110.64 435.73 110.75 435.55 110.89 435.39L110.54 436.36C110.54 436.21 110.54 436.07 110.58 435.93Z" fill="#F9763D"/>
</g>
</g>
<path d="M61.9 535.56L59 515.62L69.45 486.11L74.39 507.01L61.9 535.56Z" fill="#6C569E"/>
<path d="M61.9 535.56L178.93 204.93L277.73 239.9C278.15 239.95 278.57 240.05 279 240.11L419.5 289.85C428.66 295.13 433.12 306.04 429.59 316.02L326.36 607.68C323.27 616.41 314.97 621.82 305.96 621.95L61.9 535.56Z" fill="#CC3B23"/>
<path d="M61.62 528.84L178.66 198.2L277.46 233.17C277.88 233.22 278.3 233.31 278.72 233.38L419.23 283.11C428.38 288.4 432.85 299.32 429.32 309.29L326.08 600.95C323 609.67 314.7 615.09 305.69 615.22L61.62 528.84Z" fill="#F2F3F9"/>
<path d="M59 515.62L176.03 185L274.83 219.97C275.25 220.01 275.67 220.1 276.1 220.18L416.6 269.91C425.75 275.19 430.23 286.11 426.7 296.09L323.46 587.75C320.38 596.47 312.07 601.89 303.06 602.01L59 515.62Z" fill="#FBC241"/>
<path d="M61.62 528.84L59 515.62L303.06 602.01L305.69 615.22L61.62 528.84Z" fill="#A1BACE"/>
<path d="M151.91 251.41C151.62 251.3 151.35 251.11 151.15 250.84C150.97 250.6 149.43 248.4 150.14 245.93C150.61 244.27 151.93 243.01 154.05 242.17L154.42 242.07C154.57 242.05 158.2 241.55 161.07 243.86C163.03 245.44 164.13 247.86 164.35 251.07C164.41 251.97 163.73 252.75 162.82 252.82C161.91 252.87 161.14 252.19 161.08 251.29C160.93 249.04 160.25 247.41 159.04 246.43C157.56 245.23 155.63 245.26 155.06 245.3C154.33 245.61 153.5 246.11 153.3 246.83C153.05 247.62 153.57 248.6 153.8 248.9C154.32 249.64 154.15 250.66 153.43 251.18C152.97 251.52 152.41 251.58 151.91 251.41Z" fill="#3D2C33"/>
<path d="M140.08 284.83C139.79 284.73 139.52 284.54 139.32 284.26C139.14 284.02 137.6 281.83 138.31 279.35C138.79 277.7 140.1 276.43 142.22 275.6L142.59 275.5C142.73 275.48 146.37 274.97 149.24 277.28C151.2 278.86 152.3 281.29 152.52 284.49C152.58 285.4 151.89 286.18 151 286.24C150.08 286.29 149.31 285.61 149.25 284.71C149.1 282.47 148.42 280.84 147.21 279.85C145.73 278.64 143.8 278.68 143.23 278.72C142.5 279.03 141.67 279.54 141.46 280.25C141.22 281.04 141.75 282.02 141.96 282.33C142.48 283.06 142.32 284.09 141.59 284.61C141.14 284.94 140.57 285.01 140.08 284.83Z" fill="#3D2C33"/>
<path d="M128.25 318.26C127.96 318.15 127.69 317.96 127.49 317.69C127.31 317.44 125.77 315.25 126.48 312.78C126.95 311.12 128.27 309.86 130.39 309.02L130.75 308.93C130.9 308.9 134.54 308.39 137.41 310.71C139.37 312.29 140.47 314.71 140.69 317.91C140.75 318.82 140.07 319.6 139.16 319.66C138.25 319.72 137.48 319.04 137.42 318.14C137.27 315.9 136.59 314.26 135.38 313.27C133.9 312.07 131.97 312.1 131.4 312.15C130.67 312.46 129.84 312.96 129.64 313.67C129.39 314.46 129.91 315.44 130.13 315.75C130.66 316.48 130.49 317.51 129.76 318.04C129.31 318.36 128.75 318.43 128.25 318.26Z" fill="#3D2C33"/>
<path d="M115.51 354.25C115.22 354.15 114.95 353.96 114.75 353.68C114.57 353.44 113.03 351.25 113.74 348.77C114.21 347.12 115.53 345.85 117.65 345.01L118.02 344.92C118.16 344.9 121.8 344.39 124.67 346.7C126.63 348.28 127.73 350.71 127.95 353.91C128.01 354.82 127.32 355.6 126.42 355.66C125.51 355.71 124.74 355.03 124.68 354.14C124.53 351.89 123.84 350.26 122.64 349.27C121.16 348.06 119.23 348.1 118.66 348.15C117.93 348.46 117.1 348.96 116.89 349.67C116.65 350.46 117.17 351.44 117.39 351.75C117.91 352.48 117.75 353.51 117.02 354.03C116.57 354.36 116 354.42 115.51 354.25Z" fill="#3D2C33"/>
<path d="M103.13 389.22C102.84 389.11 102.57 388.92 102.37 388.65C102.19 388.41 100.65 386.22 101.36 383.75C101.83 382.09 103.15 380.82 105.27 379.98L105.64 379.89C105.79 379.86 109.42 379.36 112.29 381.67C114.25 383.25 115.35 385.68 115.57 388.88C115.63 389.79 114.95 390.56 114.04 390.63C113.14 390.68 112.36 390 112.3 389.1C112.15 386.86 111.47 385.22 110.26 384.24C108.78 383.03 106.85 383.07 106.28 383.11C105.55 383.42 104.72 383.92 104.52 384.64C104.27 385.43 104.79 386.41 105.02 386.72C105.54 387.45 105.37 388.48 104.64 389C104.19 389.33 103.62 389.39 103.13 389.22Z" fill="#3D2C33"/>
<path d="M90.94 423.67C90.65 423.56 90.38 423.37 90.18 423.1C90 422.85 88.45 420.66 89.17 418.19C89.64 416.53 90.96 415.26 93.08 414.42L93.45 414.33C93.59 414.31 97.23 413.8 100.1 416.12C102.06 417.7 103.16 420.12 103.38 423.33C103.44 424.23 102.75 425.01 101.86 425.07C100.94 425.12 100.17 424.45 100.11 423.55C99.96 421.3 99.28 419.67 98.07 418.69C96.59 417.48 94.66 417.51 94.09 417.55C93.36 417.87 92.53 418.37 92.33 419.08C92.08 419.88 92.6 420.85 92.82 421.16C93.34 421.9 93.18 422.92 92.45 423.44C92 423.77 91.43 423.84 90.94 423.67Z" fill="#3D2C33"/>
<path d="M68.74 497.88L65.0099 496.56L167.13 208.07L170.85 209.39L68.74 497.88Z" fill="#F6F5FC"/>
<path d="M172.11 251.61C170.91 255.02 167.16 256.8 163.76 255.6C160.34 254.39 158.56 250.65 159.77 247.24C160.98 243.83 164.71 242.05 168.12 243.25C171.54 244.46 173.32 248.2 172.11 251.61Z" fill="#423D42"/>
<path d="M159.73 286.6C158.52 290.01 154.78 291.79 151.37 290.59C147.96 289.38 146.18 285.64 147.38 282.23C148.59 278.82 152.33 277.03 155.74 278.24C159.15 279.45 160.94 283.19 159.73 286.6Z" fill="#423D42"/>
<path d="M147.34 321.59C146.14 325 142.39 326.79 138.98 325.58C135.57 324.38 133.79 320.63 135 317.22C136.2 313.81 139.95 312.02 143.36 313.23C146.76 314.44 148.55 318.18 147.34 321.59Z" fill="#423D42"/>
<path d="M134.96 356.58C133.75 359.99 130.01 361.78 126.6 360.57C123.19 359.36 121.41 355.62 122.61 352.21C123.82 348.8 127.56 347.02 130.97 348.23C134.38 349.43 136.16 353.17 134.96 356.58Z" fill="#423D42"/>
<path d="M122.57 391.57C121.36 394.99 117.62 396.77 114.21 395.56C110.8 394.35 109.02 390.62 110.23 387.21C111.44 383.79 115.17 382.01 118.58 383.22C121.99 384.42 123.78 388.16 122.57 391.57Z" fill="#423D42"/>
<path d="M110.19 426.57C108.98 429.97 105.24 431.76 101.83 430.55C98.42 429.35 96.64 425.6 97.84 422.2C99.05 418.79 102.79 417 106.2 418.2C109.61 419.41 111.39 423.16 110.19 426.57Z" fill="#423D42"/>
<path d="M162.82 252.82C161.91 252.87 161.14 252.19 161.08 251.29C160.93 249.04 160.25 247.41 159.04 246.43C157.56 245.23 155.63 245.26 155.06 245.3C154.33 245.61 153.5 246.11 153.3 246.83C153.21 247.11 153.24 247.41 153.3 247.7L152.6 247.45L154.51 242.06C155 242 158.35 241.67 161.07 243.86C163.03 245.44 164.13 247.86 164.35 251.07C164.41 251.97 163.73 252.75 162.82 252.82Z" fill="#3D2C33"/>
<path d="M151 286.24C150.08 286.29 149.31 285.61 149.25 284.71C149.1 282.47 148.42 280.84 147.21 279.85C145.73 278.64 143.8 278.68 143.23 278.72C142.58 279 141.87 279.44 141.58 280.03L141.12 279.87L142.68 275.49C143.17 275.42 146.52 275.09 149.24 277.28C151.2 278.86 152.3 281.29 152.52 284.49C152.58 285.4 151.89 286.18 151 286.24Z" fill="#3D2C33"/>
<path d="M139.16 319.66C138.25 319.72 137.48 319.04 137.42 318.14C137.27 315.9 136.59 314.26 135.38 313.27C133.9 312.07 131.97 312.1 131.4 312.15C130.96 312.33 130.52 312.59 130.17 312.91L129.51 312.67L130.85 308.91C131.33 308.85 134.69 308.52 137.41 310.71C139.37 312.29 140.47 314.71 140.69 317.91C140.75 318.82 140.07 319.6 139.16 319.66Z" fill="#3D2C33"/>
<path d="M126.42 355.66C125.51 355.71 124.74 355.03 124.68 354.14C124.53 351.89 123.84 350.26 122.64 349.27C121.16 348.06 119.23 348.1 118.66 348.15C117.99 348.43 117.27 348.88 116.98 349.49L116.54 349.33L118.1 344.91C118.59 344.85 121.95 344.51 124.67 346.7C126.63 348.28 127.73 350.71 127.95 353.91C128.01 354.82 127.32 355.6 126.42 355.66Z" fill="#3D2C33"/>
<path d="M114.04 390.63C113.14 390.68 112.36 390 112.3 389.1C112.15 386.86 111.47 385.22 110.26 384.24C108.78 383.03 106.85 383.07 106.28 383.11C105.69 383.36 105.07 383.74 104.72 384.24L104.24 384.07L105.73 379.88C106.21 379.81 109.57 379.48 112.29 381.67C114.25 383.25 115.35 385.68 115.57 388.88C115.63 389.79 114.95 390.56 114.04 390.63Z" fill="#3D2C33"/>
<path d="M101.86 425.07C100.94 425.12 100.17 424.45 100.11 423.55C99.96 421.3 99.2799 419.67 98.0699 418.69C96.5899 417.48 94.66 417.51 94.09 417.55C93.36 417.87 92.53 418.37 92.33 419.08C92.29 419.17 92.3 419.27 92.29 419.36L91.81 419.19L93.54 414.32C94.03 414.25 97.38 413.92 100.1 416.12C102.06 417.7 103.16 420.12 103.38 423.33C103.44 424.23 102.75 425.01 101.86 425.07Z" fill="#3D2C33"/>
<path d="M376.17 383.39L166.25 309.09L189.92 242.23L399.83 316.53L376.17 383.39Z" fill="white"/>
<path d="M127.079 123.52L104.077 184.127C103.032 186.88 99.9408 188.27 97.1877 187.225L94.0471 186.033C90.464 184.184 88.7577 179.906 90.2216 176.049C91.6879 172.186 95.8032 170.117 99.708 171.118L115.122 130.505C115.758 128.83 114.914 126.954 113.239 126.318L107.864 124.278L110.535 117.241L118.945 120.433L126.573 123.328L127.079 123.52Z" fill="#0071D9"/>
<path d="M42.2063 272.948C42.4626 273.046 42.5609 273.361 42.3938 273.583L35.4101 283.389C34.3695 284.843 32.0698 283.97 32.2627 282.194L33.5368 270.222C33.5658 269.947 33.8486 269.776 34.1049 269.874L38.1524 271.41L42.2063 272.948Z" fill="#0071D9"/>
<path d="M54.4424 254.613L45.2915 271.97C44.5009 273.459 42.7273 274.131 41.1503 273.532L38.2396 272.428L37.3789 272.101L34.4616 270.994C32.8847 270.395 32.0038 268.715 32.4002 267.077L37.0699 248.019L45.3291 251.154L46.1898 251.481L54.4424 254.613Z" fill="#0071D9"/>
<path d="M54.4424 254.613L45.2915 271.97C44.5009 273.459 42.7273 274.131 41.1503 273.532L38.2396 272.428L37.3789 272.101L34.4616 270.994C32.9832 270.433 32.1091 268.913 32.3415 267.37L34.9499 268.36L35.8107 268.687L38.728 269.794C40.3049 270.393 41.9314 270.108 42.5209 269.129L47.956 257.225L41.1424 254.639L40.2816 254.312L35.932 252.662L37.0699 248.019L45.3291 251.154L46.1898 251.481L54.4424 254.613Z" fill="#0071D9"/>
<path d="M35.932 252.662L37.0699 248.019L54.4424 254.613L52.2137 258.841L35.932 252.662Z" fill="#0071D9"/>
<path d="M121.054 77.4241L115.989 90.7689C114.558 94.5403 110.334 96.4401 106.556 95.0062L104.026 94.0461C100.248 92.6122 98.3481 88.3882 99.7795 84.6167L104.844 71.272C106.278 67.4939 110.502 65.5942 114.28 67.0281L116.81 67.9882C120.588 69.4221 122.488 73.6461 121.054 77.4241Z" fill="#0071D9"/>
<path d="M121.054 77.4241L115.989 90.7689C114.558 94.5403 110.334 96.4401 106.556 95.0062L104.026 94.0461C100.248 92.6122 98.3481 88.3882 99.7795 84.6167L102.196 78.2499C102.915 78.9889 103.8 79.588 104.825 79.977L107.362 80.9396C111.14 82.3735 115.364 80.4737 116.798 76.6957L119.446 69.7178C121.374 71.6897 122.096 74.6777 121.054 77.4241Z" fill="#0071D9"/>
<path d="M45.6599 252.956L44.7795 252.622C38.3601 250.185 35.1339 243 37.5703 236.581L92.5732 91.6612C95.0121 85.2352 102.191 82.0064 108.61 84.4429L109.491 84.777C115.917 87.2159 119.146 94.3949 116.707 100.821L61.7038 245.74C59.2674 252.16 52.0859 255.395 45.6599 252.956Z" fill="#0071D9"/>
<path d="M39.3883 238.188L97.1643 85.9619C97.7703 84.3652 99.5945 83.5993 101.164 84.3154C102.608 84.9685 103.236 86.6802 102.675 88.1586L47.041 234.74C45.8764 237.809 42.4502 239.35 39.3883 238.188Z" fill="#0071D9"/>
<path d="M119.28 94.0401L59.1277 252.528C58.1127 255.202 55.1215 256.547 52.4473 255.532L37.9988 250.048C35.3245 249.033 33.9792 246.042 34.9942 243.368L35.2984 242.566C45.7946 246.204 57.3554 240.858 61.328 230.391L115.7 87.1337L116.278 87.3531C118.952 88.3681 120.298 91.3593 119.28 94.0401Z" fill="#0071D9"/>
<path d="M99.2151 126.468L88.5248 122.41C83.7875 120.612 81.4026 115.31 83.2006 110.572L83.45 109.915C85.248 105.178 90.5506 102.793 95.288 104.591L105.978 108.648C110.722 110.449 113.107 115.752 111.309 120.489L111.06 121.146C109.262 125.883 103.959 128.268 99.2151 126.468Z" fill="#0071D9"/>
<path d="M101.997 107.137L101.189 109.266C100.588 110.85 98.8109 111.649 97.2209 111.045L84.8091 106.334L85.6146 104.212C86.2181 102.622 87.9947 101.823 89.5848 102.426L101.997 107.137Z" fill="#0071D9"/>
<path d="M113.474 114.786L108.895 126.849C108.292 128.439 106.515 129.238 104.925 128.635L82.8217 120.246C81.2316 119.642 80.4326 117.866 81.036 116.276L82.0036 113.726L99.5929 120.402C101.183 121.006 102.96 120.206 103.563 118.616L107.174 109.102L111.688 110.816C113.278 111.419 114.077 113.196 113.474 114.786Z" fill="#0071D9"/>
<path d="M115.542 67.5069L114.537 70.1548C113.357 73.2627 109.886 74.8241 106.778 73.6445C105.884 73.3053 105.121 72.7824 104.518 72.1327L104.844 71.272C106.278 67.4939 110.502 65.5942 114.28 67.0281L115.542 67.5069Z" fill="#0071D9"/>
<path d="M170.977 153.967L149.701 212.38C148.729 215.041 145.79 216.406 143.127 215.44L140.103 214.338C136.646 212.612 134.956 208.528 136.308 204.809C137.666 201.092 141.582 199.053 145.341 199.961L159.605 160.814C160.194 159.203 159.362 157.414 157.743 156.83L152.566 154.94L155.035 148.157L163.137 151.112L170.494 153.792L170.977 153.967Z" fill="#0071D9"/>
<path d="M91.4973 298.354C91.7495 298.442 91.8462 298.742 91.6948 298.963L85.1177 308.449C84.139 309.859 81.9255 309.056 82.0869 307.343L83.1501 295.848C83.1807 295.589 83.448 295.419 83.6911 295.512L87.5941 296.933L91.4973 298.354Z" fill="#0071D9"/>
<path d="M103.004 280.614L94.4468 297.376C93.7114 298.819 92.0159 299.483 90.4972 298.929L87.6898 297.909L86.8595 297.601L84.052 296.581C82.5333 296.027 81.6603 294.425 82.0277 292.843L86.2561 274.513L94.2136 277.413L95.0464 277.714L103.004 280.614Z" fill="#0071D9"/>
<path d="M103.004 280.614L94.4468 297.376C93.7114 298.819 92.0159 299.483 90.4972 298.929L87.6898 297.909L86.8595 297.601L84.052 296.581C82.6253 296.062 81.7707 294.61 81.9715 293.13L84.4873 294.047L85.3136 294.346L88.1251 295.375C89.6438 295.929 91.1996 295.633 91.7611 294.688L96.812 283.202L90.2485 280.809L89.4247 280.504L85.23 278.979L86.2561 274.513L94.2136 277.413L95.0464 277.714L103.004 280.614Z" fill="#0071D9"/>
<path d="M85.23 278.979L86.2561 274.513L103.004 280.614L100.919 284.701L85.23 278.979Z" fill="#0071D9"/>
<path d="M164.61 109.839L159.926 122.697C158.602 126.343 154.577 128.214 150.93 126.89L148.493 126.002C144.855 124.674 142.978 120.647 144.3 117.007L148.991 104.151C150.315 100.505 154.342 98.6279 157.98 99.956L160.424 100.846C164.061 102.174 165.938 106.201 164.61 109.839Z" fill="#0071D9"/>
<path d="M164.61 109.839L159.926 122.697C158.604 126.337 154.577 128.214 150.936 126.892L148.493 126.002C144.855 124.674 142.978 120.647 144.3 117.007L146.538 110.873C147.237 111.566 148.096 112.133 149.087 112.494L151.531 113.384C155.168 114.712 159.196 112.835 160.526 109.191L162.973 102.467C164.849 104.337 165.577 107.192 164.61 109.839Z" fill="#0071D9"/>
<path d="M94.5587 279.137L93.7062 278.829C87.5197 276.571 84.3347 269.732 86.5885 263.536L137.478 123.851C139.735 117.665 146.584 114.476 152.77 116.733L153.623 117.042C159.812 119.293 163.001 126.141 160.749 132.33L109.854 272.013C107.596 278.2 100.748 281.389 94.5587 279.137Z" fill="#0071D9"/>
<path d="M88.3526 265.048L141.812 118.332C142.367 116.792 144.113 116.034 145.634 116.701C147.019 117.309 147.646 118.945 147.12 120.37L95.6408 261.65C94.5721 264.605 91.3046 266.123 88.3526 265.048Z" fill="#0071D9"/>
<path d="M163.126 125.791L107.47 278.55C106.528 281.132 103.68 282.457 101.098 281.514L87.1755 276.448C84.594 275.506 83.2629 272.655 84.2051 270.074L84.4813 269.306C94.6042 272.66 105.622 267.378 109.296 257.301L159.605 119.223L160.16 119.425C162.737 120.359 164.066 123.216 163.126 125.791Z" fill="#0071D9"/>
<path d="M144.302 157.148L133.999 153.396C129.427 151.736 127.07 146.677 128.737 142.107L128.967 141.481C130.634 136.911 135.684 134.559 140.253 136.225L150.562 139.98C155.125 141.644 157.484 146.696 155.818 151.266L155.587 151.892C153.927 156.464 148.871 158.815 144.302 157.148Z" fill="#0071D9"/>
<path d="M146.718 138.581L145.971 140.628C145.412 142.16 143.716 142.944 142.191 142.388L130.223 138.033L130.972 135.98C131.531 134.448 133.221 133.661 134.752 134.22L146.718 138.581Z" fill="#0071D9"/>
<path d="M157.823 145.765L153.589 157.396C153.03 158.927 151.334 159.712 149.802 159.153L128.499 151.391C126.964 150.838 126.173 149.14 126.732 147.608L127.627 145.151L144.585 151.332C146.11 151.888 147.808 151.097 148.358 149.57L151.706 140.392L156.063 141.985C157.588 142.541 158.382 144.233 157.823 145.765Z" fill="#0071D9"/>
<path d="M159.203 100.398L158.273 102.946C157.181 105.944 153.865 107.49 150.874 106.4C150.015 106.088 149.279 105.591 148.686 104.975L148.991 104.151C150.315 100.505 154.342 98.6279 157.98 99.9559L159.203 100.398Z" fill="#0071D9"/>
<path d="M127.079 123.52L104.077 184.127C103.032 186.88 99.9408 188.27 97.1877 187.225L94.0471 186.033C90.464 184.184 88.7577 179.906 90.2216 176.049C91.6879 172.186 95.8032 170.117 99.708 171.118L115.122 130.505C115.758 128.83 114.914 126.954 113.239 126.318L107.864 124.278L110.535 117.241L118.945 120.433L126.573 123.328L127.079 123.52Z" fill="#0071D9"/>
<path d="M42.2063 272.948C42.4626 273.046 42.5609 273.361 42.3938 273.583L35.4101 283.389C34.3695 284.843 32.0698 283.97 32.2627 282.194L33.5368 270.222C33.5658 269.947 33.8486 269.776 34.1049 269.874L38.1524 271.41L42.2063 272.948Z" fill="#0071D9"/>
<path d="M54.4424 254.613L45.2915 271.97C44.5009 273.459 42.7273 274.131 41.1503 273.532L38.2396 272.428L37.3789 272.101L34.4616 270.994C32.8847 270.395 32.0038 268.715 32.4002 267.077L37.0699 248.019L45.3291 251.154L46.1898 251.481L54.4424 254.613Z" fill="#0071D9"/>
<path d="M54.4424 254.613L45.2915 271.97C44.5009 273.459 42.7273 274.131 41.1503 273.532L38.2396 272.428L37.3789 272.101L34.4616 270.994C32.9832 270.433 32.1091 268.913 32.3415 267.37L34.9499 268.36L35.8107 268.687L38.728 269.794C40.3049 270.393 41.9314 270.108 42.5209 269.129L47.956 257.225L41.1424 254.639L40.2816 254.312L35.932 252.662L37.0699 248.019L45.3291 251.154L46.1898 251.481L54.4424 254.613Z" fill="#0071D9"/>
<path d="M35.932 252.662L37.0699 248.019L54.4424 254.613L52.2137 258.841L35.932 252.662Z" fill="#0071D9"/>
<path d="M121.054 77.4241L115.989 90.7689C114.558 94.5403 110.334 96.4401 106.556 95.0062L104.026 94.0461C100.248 92.6122 98.3481 88.3882 99.7795 84.6167L104.844 71.272C106.278 67.4939 110.502 65.5942 114.28 67.0281L116.81 67.9882C120.588 69.4221 122.488 73.6461 121.054 77.4241Z" fill="#0071D9"/>
<path d="M121.054 77.4241L115.989 90.7689C114.558 94.5403 110.334 96.4401 106.556 95.0062L104.026 94.0461C100.248 92.6122 98.3481 88.3882 99.7795 84.6167L102.196 78.2499C102.915 78.9889 103.8 79.588 104.825 79.977L107.362 80.9396C111.14 82.3735 115.364 80.4737 116.798 76.6957L119.446 69.7178C121.374 71.6897 122.096 74.6777 121.054 77.4241Z" fill="#0071D9"/>
<path d="M45.6599 252.956L44.7795 252.622C38.3601 250.185 35.1339 243 37.5703 236.581L92.5732 91.6612C95.0121 85.2352 102.191 82.0064 108.61 84.4429L109.491 84.777C115.917 87.2159 119.146 94.3949 116.707 100.821L61.7038 245.74C59.2674 252.16 52.0859 255.395 45.6599 252.956Z" fill="#0071D9"/>
<path d="M39.3883 238.188L97.1643 85.9619C97.7703 84.3652 99.5945 83.5993 101.164 84.3154C102.608 84.9685 103.236 86.6802 102.675 88.1586L47.041 234.74C45.8764 237.809 42.4502 239.35 39.3883 238.188Z" fill="#0071D9"/>
<path d="M119.28 94.0401L59.1277 252.528C58.1127 255.202 55.1215 256.547 52.4473 255.532L37.9988 250.048C35.3245 249.033 33.9792 246.042 34.9942 243.368L35.2984 242.566C45.7946 246.204 57.3554 240.858 61.328 230.391L115.7 87.1337L116.278 87.3531C118.952 88.3681 120.298 91.3593 119.28 94.0401Z" fill="#0071D9"/>
<path d="M99.2151 126.468L88.5248 122.41C83.7875 120.612 81.4026 115.31 83.2006 110.572L83.45 109.915C85.248 105.178 90.5506 102.793 95.288 104.591L105.978 108.648C110.722 110.449 113.107 115.752 111.309 120.489L111.06 121.146C109.262 125.883 103.959 128.268 99.2151 126.468Z" fill="#0071D9"/>
<path d="M101.997 107.137L101.189 109.266C100.588 110.85 98.8109 111.649 97.2209 111.045L84.8091 106.334L85.6146 104.212C86.2181 102.622 87.9947 101.823 89.5848 102.426L101.997 107.137Z" fill="#0071D9"/>
<path d="M113.474 114.786L108.895 126.849C108.292 128.439 106.515 129.238 104.925 128.635L82.8217 120.246C81.2316 119.642 80.4326 117.866 81.036 116.276L82.0036 113.726L99.5929 120.402C101.183 121.006 102.96 120.206 103.563 118.616L107.174 109.102L111.688 110.816C113.278 111.419 114.077 113.196 113.474 114.786Z" fill="#0071D9"/>
<path d="M115.542 67.5069L114.537 70.1548C113.357 73.2627 109.886 74.8241 106.778 73.6445C105.884 73.3053 105.121 72.7824 104.518 72.1327L104.844 71.272C106.278 67.4939 110.502 65.5942 114.28 67.0281L115.542 67.5069Z" fill="#0071D9"/>
<path d="M170.977 153.967L149.701 212.38C148.729 215.041 145.79 216.406 143.127 215.44L140.103 214.338C136.646 212.612 134.956 208.528 136.308 204.809C137.666 201.092 141.582 199.053 145.341 199.961L159.605 160.814C160.194 159.203 159.362 157.414 157.743 156.83L152.566 154.94L155.035 148.157L163.137 151.112L170.494 153.792L170.977 153.967Z" fill="#0071D9"/>
<path d="M91.4973 298.354C91.7495 298.442 91.8462 298.742 91.6948 298.963L85.1177 308.449C84.139 309.859 81.9255 309.056 82.0869 307.343L83.1501 295.848C83.1807 295.589 83.448 295.419 83.6911 295.512L87.5941 296.933L91.4973 298.354Z" fill="#0071D9"/>
<path d="M103.004 280.614L94.4468 297.376C93.7114 298.819 92.0159 299.483 90.4972 298.929L87.6898 297.909L86.8595 297.601L84.052 296.581C82.5333 296.027 81.6603 294.425 82.0277 292.843L86.2561 274.513L94.2136 277.413L95.0464 277.714L103.004 280.614Z" fill="#0071D9"/>
<path d="M103.004 280.614L94.4468 297.376C93.7114 298.819 92.0159 299.483 90.4972 298.929L87.6898 297.909L86.8595 297.601L84.052 296.581C82.6253 296.062 81.7707 294.61 81.9715 293.13L84.4873 294.047L85.3136 294.346L88.1251 295.375C89.6438 295.929 91.1996 295.633 91.7611 294.688L96.812 283.202L90.2485 280.809L89.4247 280.504L85.23 278.979L86.2561 274.513L94.2136 277.413L95.0464 277.714L103.004 280.614Z" fill="#0071D9"/>
<path d="M85.23 278.979L86.2561 274.513L103.004 280.614L100.919 284.701L85.23 278.979Z" fill="#0071D9"/>
<path d="M164.61 109.839L159.926 122.697C158.602 126.343 154.577 128.214 150.93 126.89L148.493 126.002C144.855 124.674 142.978 120.647 144.3 117.007L148.991 104.151C150.315 100.505 154.342 98.6279 157.98 99.956L160.424 100.846C164.061 102.174 165.938 106.201 164.61 109.839Z" fill="#0071D9"/>
<path d="M164.61 109.839L159.926 122.697C158.604 126.337 154.577 128.214 150.936 126.892L148.493 126.002C144.855 124.674 142.978 120.647 144.3 117.007L146.538 110.873C147.237 111.566 148.096 112.133 149.087 112.494L151.531 113.384C155.168 114.712 159.196 112.835 160.526 109.191L162.973 102.467C164.849 104.337 165.577 107.192 164.61 109.839Z" fill="#0071D9"/>
<path d="M94.5587 279.137L93.7062 278.829C87.5197 276.571 84.3347 269.732 86.5885 263.536L137.478 123.851C139.735 117.665 146.584 114.476 152.77 116.733L153.623 117.042C159.812 119.293 163.001 126.141 160.749 132.33L109.854 272.013C107.596 278.2 100.748 281.389 94.5587 279.137Z" fill="#0071D9"/>
<path d="M88.3526 265.048L141.812 118.332C142.367 116.792 144.113 116.034 145.634 116.701C147.019 117.309 147.646 118.945 147.12 120.37L95.6408 261.65C94.5721 264.605 91.3046 266.123 88.3526 265.048Z" fill="#0071D9"/>
<path d="M163.126 125.791L107.47 278.55C106.528 281.132 103.68 282.457 101.098 281.514L87.1755 276.448C84.594 275.506 83.2629 272.655 84.2051 270.074L84.4813 269.306C94.6042 272.66 105.622 267.378 109.296 257.301L159.605 119.223L160.16 119.425C162.737 120.359 164.066 123.216 163.126 125.791Z" fill="#0071D9"/>
<path d="M144.302 157.148L133.999 153.396C129.427 151.736 127.07 146.677 128.737 142.107L128.967 141.481C130.634 136.911 135.684 134.559 140.253 136.225L150.562 139.98C155.125 141.644 157.484 146.696 155.818 151.266L155.587 151.892C153.927 156.464 148.871 158.815 144.302 157.148Z" fill="#0071D9"/>
<path d="M146.718 138.581L145.971 140.628C145.412 142.16 143.716 142.944 142.191 142.388L130.223 138.033L130.972 135.98C131.531 134.448 133.221 133.661 134.752 134.22L146.718 138.581Z" fill="#0071D9"/>
<path d="M157.823 145.765L153.589 157.396C153.03 158.927 151.334 159.712 149.802 159.153L128.499 151.391C126.964 150.838 126.173 149.14 126.732 147.608L127.627 145.151L144.585 151.332C146.11 151.888 147.808 151.097 148.358 149.57L151.706 140.392L156.063 141.985C157.588 142.541 158.382 144.233 157.823 145.765Z" fill="#0071D9"/>
<path d="M159.203 100.398L158.273 102.946C157.181 105.944 153.865 107.49 150.874 106.4C150.015 106.088 149.279 105.591 148.686 104.975L148.991 104.151C150.315 100.505 154.342 98.6279 157.98 99.9559L159.203 100.398Z" fill="#0071D9"/>
<path d="M112.244 110.32L89.2416 170.927C88.1943 173.686 85.1124 175.072 82.3528 174.025L79.2121 172.833C75.6265 170.991 73.9227 166.706 75.3866 162.849C76.8504 158.992 80.9682 156.917 84.873 157.918L100.287 117.305C100.923 115.63 100.079 113.754 98.4036 113.118L93.0289 111.078L95.6997 104.041L104.11 107.233L111.738 110.128L112.244 110.32Z" fill="#393954"/>
<path d="M27.3714 259.748C27.6276 259.846 27.7259 260.161 27.5654 260.386L20.575 270.188C19.5345 271.643 17.2413 270.772 17.4277 268.994L18.7018 257.022C18.7308 256.747 19.0136 256.576 19.2699 256.674L23.3239 258.212L27.3714 259.748Z" fill="#30262D"/>
<path d="M39.6073 241.413L30.4566 258.769C29.6725 260.261 27.8898 260.937 26.3128 260.339L23.4021 259.234L22.5414 258.907L19.6241 257.8C18.0472 257.202 17.1688 255.515 17.5718 253.879L22.2349 234.819L30.494 237.954L31.3548 238.281L39.6073 241.413Z" fill="#C92E41"/>
<path d="M39.6073 241.413L30.4566 258.769C29.6725 260.261 27.8898 260.937 26.3128 260.339L23.4021 259.234L22.5414 258.907L19.6241 257.8C18.1457 257.239 17.2741 255.713 17.5105 254.179L20.1124 255.167L20.9798 255.496L23.8905 256.601C25.4674 257.199 27.0965 256.908 27.6901 255.938L33.121 244.025L26.314 241.442L25.4466 241.112L21.0969 239.461L22.2349 234.819L30.494 237.954L31.3548 238.281L39.6073 241.413Z" fill="#7F133B"/>
<path d="M21.0969 239.461L22.2349 234.819L39.6073 241.413L37.3787 245.641L21.0969 239.461Z" fill="#30262D"/>
<path d="M106.216 64.2306L101.154 77.5687C99.7201 81.3468 95.4961 83.2465 91.7181 81.8126L89.1884 80.8525C85.4104 79.4186 83.5107 75.1946 84.9446 71.4166L90.007 58.0784C91.4409 54.3004 95.6673 52.394 99.4454 53.828L101.975 54.7881C105.753 56.222 107.65 60.4525 106.216 64.2306Z" fill="#4FA2FB"/>
<path d="M106.219 64.224L101.154 77.5687C99.7201 81.3468 95.4961 83.2465 91.7181 81.8126L89.1885 80.8525C85.4104 79.4186 83.5107 75.1946 84.9446 71.4166L87.3611 65.0497C88.0804 65.7888 88.9655 66.3879 89.9905 66.7769L92.5267 67.7395C96.3048 69.1734 100.529 67.2736 101.963 63.4956L104.611 56.5177C106.539 58.4896 107.261 61.4775 106.219 64.224Z" fill="#3E4FBA"/>
<path d="M30.8315 239.758L29.9445 239.422C23.5251 236.985 20.2963 229.806 22.7353 223.38L77.7382 78.4611C80.1746 72.0417 87.356 68.8063 93.7754 71.2427L94.6624 71.5794C101.082 74.0158 104.308 81.2013 101.872 87.6207L46.8688 232.54C44.4298 238.966 37.2509 242.195 30.8315 239.758Z" fill="#C92E41"/>
<path d="M24.5533 224.988L82.3293 72.7617C82.9328 71.1716 84.7595 70.3991 86.3359 71.1177C87.7703 71.7749 88.3985 73.4867 87.8374 74.965L32.2035 221.547C31.0414 224.609 27.6152 226.15 24.5533 224.988Z" fill="#EC313A"/>
<path d="M104.445 80.8399L44.2927 239.327C43.2777 242.002 40.2865 243.347 37.6123 242.332L23.1637 236.848C20.4895 235.833 19.1442 232.842 20.1592 230.168L20.4609 229.373C30.9596 233.004 42.5204 227.657 46.4905 217.197L100.865 73.9335L101.443 74.153C104.117 75.168 105.46 78.1657 104.445 80.8399Z" fill="#7F133B"/>
<path d="M84.3866 113.27L73.6899 109.21C68.9525 107.412 66.5651 102.116 68.3656 97.3722L68.6125 96.7217C70.413 91.9778 75.7157 89.5929 80.453 91.3909L91.1498 95.4508C95.8937 97.2513 98.272 102.551 96.4715 107.295L96.2246 107.946C94.4241 112.69 89.1305 115.071 84.3866 113.27Z" fill="#3E4FBA"/>
<path d="M87.1615 93.9371L86.3535 96.0659C85.75 97.656 83.9734 98.455 82.3899 97.854L69.9716 93.1407L70.7796 91.0119C71.3831 89.4218 73.1597 88.6228 74.7498 89.2263L87.1615 93.9371Z" fill="#91D4FF"/>
<path d="M98.6386 101.586L94.06 113.649C93.4565 115.239 91.6799 116.038 90.0899 115.435L67.9866 107.046C66.3966 106.442 65.5975 104.665 66.201 103.075L67.1661 100.533L84.7554 107.208C86.3455 107.812 88.1221 107.013 88.7256 105.423L92.3391 95.9022L96.853 97.6154C98.4431 98.2189 99.2421 99.9955 98.6386 101.586Z" fill="#393954"/>
<path d="M100.714 54.3093L99.7085 56.9572C98.529 60.065 95.0482 61.6305 91.9404 60.4509C91.0468 60.1118 90.2922 59.5848 89.6828 58.9326L90.007 58.0784C91.4409 54.3004 95.6673 52.394 99.4454 53.828L100.714 54.3093Z" fill="#91D4FF"/>
<path d="M156.141 140.767L134.863 199.187C133.894 201.84 130.953 203.212 128.299 202.243L125.268 201.137C121.808 199.418 120.121 195.328 121.47 191.615C122.828 187.899 126.753 185.855 130.506 186.761L144.768 147.621C145.359 146.003 144.525 144.221 142.908 143.63L137.731 141.74L140.207 134.96L148.302 137.912L155.659 140.592L156.141 140.767Z" fill="#393954"/>
<path d="M76.6688 285.156C76.9119 285.249 77.0087 285.549 76.8598 285.763L70.2802 295.255C69.3081 296.668 67.0904 295.856 67.2494 294.15L68.3126 282.654C68.3457 282.388 68.6129 282.219 68.856 282.311L72.7592 283.733L76.6688 285.156Z" fill="#30262D"/>
<path d="M88.1688 267.414L79.6117 284.176C78.8764 285.618 77.1809 286.283 75.6622 285.729L72.8548 284.709L72.0219 284.408L69.217 283.381C67.6983 282.827 66.8253 281.225 67.1902 279.65L71.4211 261.313L79.3851 264.215L80.2114 264.514L88.1688 267.414Z" fill="#FFB33A"/>
<path d="M88.1688 267.414L79.6117 284.176C78.8764 285.618 77.181 286.283 75.6623 285.729L72.8548 284.709L72.0219 284.408L69.217 283.381C67.7903 282.862 66.9332 281.416 67.1365 279.93L69.6523 280.847L70.4761 281.152L73.2901 282.175C74.8088 282.729 76.3712 282.435 76.9236 281.495L81.977 270.002L75.4135 267.609L74.5872 267.31L70.3949 265.779L71.4211 261.313L79.3851 264.215L80.2114 264.514L88.1688 267.414Z" fill="#FA872C"/>
<path d="M70.3949 265.779L71.4211 261.313L88.1688 267.414L86.0838 271.501L70.3949 265.779Z" fill="#30262D"/>
<path d="M149.775 96.6388L145.095 109.506C143.767 113.143 139.739 115.02 136.095 113.689L133.658 112.802C130.02 111.474 128.143 107.447 129.471 103.809L134.156 90.9513C135.478 87.311 139.505 85.4343 143.152 86.7583L145.589 87.6457C149.233 88.9763 151.103 93.001 149.775 96.6388Z" fill="#4FA2FB"/>
<path d="M149.775 96.6388L145.095 109.506C143.767 113.143 139.739 115.02 136.101 113.692L133.658 112.802C130.02 111.474 128.143 107.447 129.471 103.809L131.703 97.6725C132.406 98.3753 133.261 98.9331 134.252 99.294L136.696 100.184C140.333 101.512 144.361 99.6353 145.689 95.9975L148.138 89.2672C150.012 91.1435 150.742 93.9916 149.775 96.6388Z" fill="#3E4FBA"/>
<path d="M79.7237 265.937L78.8778 265.631C72.6847 263.371 69.4997 256.532 71.7535 250.336L122.64 110.657C124.907 104.467 131.746 101.282 137.935 103.533L138.788 103.842C144.974 106.1 148.166 112.941 145.912 119.137L95.0161 258.82C92.7583 265.006 85.9102 268.195 79.7237 265.937Z" fill="#FFB33A"/>
<path d="M73.5176 251.848L126.977 105.132C127.536 103.601 129.278 102.833 130.799 103.501C132.184 104.109 132.808 105.752 132.285 107.17L80.8099 248.459C79.7346 251.411 76.4671 252.93 73.5176 251.848Z" fill="#FFC97B"/>
<path d="M148.295 112.6L92.6353 265.35C91.693 267.932 88.8425 269.263 86.261 268.321L72.3405 263.248C69.759 262.306 68.4279 259.455 69.3701 256.874L69.6528 256.109C79.7693 259.46 90.7845 254.184 94.4611 244.101L144.77 106.022L145.325 106.225C147.9 107.165 149.238 110.018 148.295 112.6Z" fill="#FA872C"/>
<path d="M129.471 143.957L119.162 140.202C114.593 138.536 112.235 133.477 113.899 128.914L114.132 128.281C115.796 123.718 120.849 121.358 125.418 123.025L135.727 126.78C140.296 128.446 142.649 133.496 140.983 138.066L140.752 138.692C139.092 143.264 134.033 145.621 129.471 143.957Z" fill="#3E4FBA"/>
<path d="M131.883 125.381L131.136 127.428C130.577 128.96 128.886 129.753 127.354 129.194L115.388 124.833L116.135 122.787C116.694 121.255 118.386 120.461 119.917 121.02L131.883 125.381Z" fill="#91D4FF"/>
<path d="M142.985 132.571L138.754 144.195C138.195 145.727 136.497 146.518 134.965 145.96L113.661 138.197C112.129 137.638 111.345 135.942 111.897 134.408L112.792 131.951L129.747 138.138C131.281 138.691 132.971 137.904 133.53 136.372L136.869 127.198L141.228 128.785C142.76 129.344 143.547 131.033 142.985 132.571Z" fill="#393954"/>
<path d="M144.366 87.204L143.436 89.7527C142.343 92.7507 139.037 94.2921 136.039 93.1994C135.18 92.8883 134.441 92.3976 133.851 91.7751L134.156 90.9513C135.478 87.311 139.505 85.4343 143.152 86.7583L144.366 87.204Z" fill="#91D4FF"/>
<path d="M112.244 110.32L89.2416 170.927C88.1943 173.686 85.1124 175.072 82.3528 174.025L79.2121 172.833C75.6265 170.991 73.9227 166.706 75.3866 162.849C76.8504 158.992 80.9682 156.917 84.873 157.918L100.287 117.305C100.923 115.63 100.079 113.754 98.4036 113.118L93.0289 111.078L95.6997 104.041L104.11 107.233L111.738 110.128L112.244 110.32Z" fill="#393954"/>
<path d="M27.3714 259.748C27.6276 259.846 27.7259 260.161 27.5654 260.386L20.575 270.188C19.5345 271.643 17.2413 270.772 17.4277 268.994L18.7018 257.022C18.7308 256.747 19.0136 256.576 19.2699 256.674L23.3239 258.212L27.3714 259.748Z" fill="#30262D"/>
<path d="M39.6073 241.413L30.4566 258.769C29.6725 260.261 27.8898 260.937 26.3128 260.339L23.4021 259.234L22.5414 258.907L19.6241 257.8C18.0472 257.202 17.1688 255.515 17.5718 253.879L22.2349 234.819L30.494 237.954L31.3548 238.281L39.6073 241.413Z" fill="#C92E41"/>
<path d="M39.6073 241.413L30.4566 258.769C29.6725 260.261 27.8898 260.937 26.3128 260.339L23.4021 259.234L22.5414 258.907L19.6241 257.8C18.1457 257.239 17.2741 255.713 17.5105 254.179L20.1124 255.167L20.9798 255.496L23.8905 256.601C25.4674 257.199 27.0965 256.908 27.6901 255.938L33.121 244.025L26.314 241.442L25.4466 241.112L21.0969 239.461L22.2349 234.819L30.494 237.954L31.3548 238.281L39.6073 241.413Z" fill="#7F133B"/>
<path d="M21.0969 239.461L22.2349 234.819L39.6073 241.413L37.3787 245.641L21.0969 239.461Z" fill="#30262D"/>
<path d="M106.216 64.2306L101.154 77.5687C99.7201 81.3468 95.4961 83.2465 91.7181 81.8126L89.1884 80.8525C85.4104 79.4186 83.5107 75.1946 84.9446 71.4166L90.007 58.0784C91.4409 54.3004 95.6673 52.394 99.4454 53.828L101.975 54.7881C105.753 56.222 107.65 60.4525 106.216 64.2306Z" fill="#4FA2FB"/>
<path d="M106.219 64.224L101.154 77.5687C99.7201 81.3468 95.4961 83.2465 91.7181 81.8126L89.1885 80.8525C85.4104 79.4186 83.5107 75.1946 84.9446 71.4166L87.3611 65.0497C88.0804 65.7888 88.9655 66.3879 89.9905 66.7769L92.5267 67.7395C96.3048 69.1734 100.529 67.2736 101.963 63.4956L104.611 56.5177C106.539 58.4896 107.261 61.4775 106.219 64.224Z" fill="#3E4FBA"/>
<path d="M30.8315 239.758L29.9445 239.422C23.5251 236.985 20.2963 229.806 22.7353 223.38L77.7382 78.4611C80.1746 72.0417 87.356 68.8063 93.7754 71.2427L94.6624 71.5794C101.082 74.0158 104.308 81.2013 101.872 87.6207L46.8688 232.54C44.4298 238.966 37.2509 242.195 30.8315 239.758Z" fill="#C92E41"/>
<path d="M24.5533 224.988L82.3293 72.7617C82.9328 71.1716 84.7595 70.3991 86.3359 71.1177C87.7703 71.7749 88.3985 73.4867 87.8374 74.965L32.2035 221.547C31.0414 224.609 27.6152 226.15 24.5533 224.988Z" fill="#EC313A"/>
<path d="M104.445 80.8399L44.2927 239.327C43.2777 242.002 40.2865 243.347 37.6123 242.332L23.1637 236.848C20.4895 235.833 19.1442 232.842 20.1592 230.168L20.4609 229.373C30.9596 233.004 42.5204 227.657 46.4905 217.197L100.865 73.9335L101.443 74.153C104.117 75.168 105.46 78.1657 104.445 80.8399Z" fill="#7F133B"/>
<path d="M84.3866 113.27L73.6899 109.21C68.9525 107.412 66.5651 102.116 68.3656 97.3722L68.6125 96.7217C70.413 91.9778 75.7157 89.5929 80.453 91.3909L91.1498 95.4508C95.8937 97.2513 98.272 102.551 96.4715 107.295L96.2246 107.946C94.4241 112.69 89.1305 115.071 84.3866 113.27Z" fill="#3E4FBA"/>
<path d="M87.1615 93.9371L86.3535 96.0659C85.75 97.656 83.9734 98.455 82.3899 97.854L69.9716 93.1407L70.7796 91.0119C71.3831 89.4218 73.1597 88.6228 74.7498 89.2263L87.1615 93.9371Z" fill="#91D4FF"/>
<path d="M98.6386 101.586L94.06 113.649C93.4565 115.239 91.6799 116.038 90.0899 115.435L67.9866 107.046C66.3966 106.442 65.5975 104.665 66.201 103.075L67.1661 100.533L84.7554 107.208C86.3455 107.812 88.1221 107.013 88.7256 105.423L92.3391 95.9022L96.853 97.6154C98.4431 98.2189 99.2421 99.9955 98.6386 101.586Z" fill="#393954"/>
<path d="M100.714 54.3093L99.7085 56.9572C98.529 60.065 95.0482 61.6305 91.9404 60.4509C91.0468 60.1118 90.2922 59.5848 89.6828 58.9326L90.007 58.0784C91.4409 54.3004 95.6673 52.394 99.4454 53.828L100.714 54.3093Z" fill="#91D4FF"/>
<path d="M156.141 140.767L134.863 199.187C133.894 201.84 130.953 203.212 128.299 202.243L125.268 201.137C121.808 199.418 120.121 195.328 121.47 191.615C122.828 187.899 126.753 185.855 130.506 186.761L144.768 147.621C145.359 146.003 144.525 144.221 142.908 143.63L137.731 141.74L140.207 134.96L148.302 137.912L155.659 140.592L156.141 140.767Z" fill="#393954"/>
<path d="M76.6688 285.156C76.9119 285.249 77.0087 285.549 76.8598 285.763L70.2802 295.255C69.3081 296.668 67.0904 295.856 67.2494 294.15L68.3126 282.654C68.3457 282.388 68.6129 282.219 68.856 282.311L72.7592 283.733L76.6688 285.156Z" fill="#30262D"/>
<path d="M88.1688 267.414L79.6117 284.176C78.8764 285.618 77.1809 286.283 75.6622 285.729L72.8548 284.709L72.0219 284.408L69.217 283.381C67.6983 282.827 66.8253 281.225 67.1902 279.65L71.4211 261.313L79.3851 264.215L80.2114 264.514L88.1688 267.414Z" fill="#FFB33A"/>
<path d="M88.1688 267.414L79.6117 284.176C78.8764 285.618 77.181 286.283 75.6623 285.729L72.8548 284.709L72.0219 284.408L69.217 283.381C67.7903 282.862 66.9332 281.416 67.1365 279.93L69.6523 280.847L70.4761 281.152L73.2901 282.175C74.8088 282.729 76.3712 282.435 76.9236 281.495L81.977 270.002L75.4135 267.609L74.5872 267.31L70.3949 265.779L71.4211 261.313L79.3851 264.215L80.2114 264.514L88.1688 267.414Z" fill="#FA872C"/>
<path d="M70.3949 265.779L71.4211 261.313L88.1688 267.414L86.0838 271.501L70.3949 265.779Z" fill="#30262D"/>
<path d="M149.775 96.6388L145.095 109.506C143.767 113.143 139.739 115.02 136.095 113.689L133.658 112.802C130.02 111.474 128.143 107.447 129.471 103.809L134.156 90.9513C135.478 87.311 139.505 85.4343 143.152 86.7583L145.589 87.6457C149.233 88.9763 151.103 93.001 149.775 96.6388Z" fill="#4FA2FB"/>
<path d="M149.775 96.6388L145.095 109.506C143.767 113.143 139.739 115.02 136.101 113.692L133.658 112.802C130.02 111.474 128.143 107.447 129.471 103.809L131.703 97.6725C132.406 98.3753 133.261 98.9331 134.252 99.294L136.696 100.184C140.333 101.512 144.361 99.6353 145.689 95.9975L148.138 89.2672C150.012 91.1435 150.742 93.9916 149.775 96.6388Z" fill="#3E4FBA"/>
<path d="M79.7237 265.937L78.8778 265.631C72.6847 263.371 69.4997 256.532 71.7535 250.336L122.64 110.657C124.907 104.467 131.746 101.282 137.935 103.533L138.788 103.842C144.974 106.1 148.166 112.941 145.912 119.137L95.0161 258.82C92.7583 265.006 85.9102 268.195 79.7237 265.937Z" fill="#FFB33A"/>
<path d="M73.5176 251.848L126.977 105.132C127.536 103.601 129.278 102.833 130.799 103.501C132.184 104.109 132.808 105.752 132.285 107.17L80.8099 248.459C79.7346 251.411 76.4671 252.93 73.5176 251.848Z" fill="#FFC97B"/>
<path d="M148.295 112.6L92.6353 265.35C91.693 267.932 88.8425 269.263 86.261 268.321L72.3405 263.248C69.759 262.306 68.4279 259.455 69.3701 256.874L69.6528 256.109C79.7693 259.46 90.7845 254.184 94.4611 244.101L144.77 106.022L145.325 106.225C147.9 107.165 149.238 110.018 148.295 112.6Z" fill="#FA872C"/>
<path d="M129.471 143.957L119.162 140.202C114.593 138.536 112.235 133.477 113.899 128.914L114.132 128.281C115.796 123.718 120.849 121.358 125.418 123.025L135.727 126.78C140.296 128.446 142.649 133.496 140.983 138.066L140.752 138.692C139.092 143.264 134.033 145.621 129.471 143.957Z" fill="#3E4FBA"/>
<path d="M131.883 125.381L131.136 127.428C130.577 128.96 128.886 129.753 127.354 129.194L115.388 124.833L116.135 122.787C116.694 121.255 118.386 120.461 119.917 121.02L131.883 125.381Z" fill="#91D4FF"/>
<path d="M142.985 132.571L138.754 144.195C138.195 145.727 136.497 146.518 134.965 145.96L113.661 138.197C112.129 137.638 111.345 135.942 111.897 134.408L112.792 131.951L129.747 138.138C131.281 138.691 132.971 137.904 133.53 136.372L136.869 127.198L141.228 128.785C142.76 129.344 143.547 131.033 142.985 132.571Z" fill="#393954"/>
<path d="M144.366 87.204L143.436 89.7527C142.343 92.7507 139.037 94.2921 136.039 93.1994C135.18 92.8883 134.441 92.3976 133.851 91.7751L134.156 90.9513C135.478 87.311 139.505 85.4343 143.152 86.7583L144.366 87.204Z" fill="#91D4FF"/>
</svg>
