<svg width="300" height="338" viewBox="0 0 300 338" fill="none" xmlns="http://www.w3.org/2000/svg">
<path fill-rule="evenodd" clip-rule="evenodd" d="M91.2322 43.7157C100.117 35.3238 110.248 28.2379 121.32 22.7648C127.76 19.5798 134.52 16.9413 141.537 14.9105C142.803 14.5438 144.078 14.1969 145.36 13.8701L145.359 13.8711C153.749 11.7354 162.482 10.4614 171.46 10.1501C172.93 10.0901 174.4 10.0601 175.87 10.0601C177.749 10.0601 179.618 10.1021 181.476 10.1853C209.35 11.4328 234.816 21.9357 254.85 38.6701C275.57 55.9801 290.52 79.94 296.4 107.24C298.23 115.65 299.17 124.39 299.17 133.34C299.17 167.032 285.667 197.563 263.773 219.826L275.912 232.216C277.935 230.217 279.902 228.151 281.81 226.02C283.74 223.87 287.05 223.68 289.21 225.61C291.37 227.54 291.55 230.85 289.62 233.01C261.33 264.604 220.945 282.872 178.61 283.264V305.62H199.84C216.85 305.62 230.63 319.41 230.63 336.41V337.58H116.11V336.41C116.11 319.41 129.89 305.62 146.9 305.62H168.13V283.003C131.26 280.826 96.9071 265.427 70.5701 239.09C42.0801 210.61 26.4001 172.74 26.4001 132.45C26.4001 87.7501 46.0601 45.62 80.3301 16.86C82.5501 15 85.8601 15.29 87.7201 17.5C89.5801 19.72 89.2802 23.0301 87.0701 24.8901C84.4503 27.0877 81.9223 29.3693 79.4887 31.7292L91.2322 43.7157ZM200.306 254.222C215.879 251.096 230.384 245.04 243.23 236.66C243.316 236.604 243.401 236.548 243.486 236.492L243.66 236.378C243.798 236.287 243.936 236.195 244.073 236.104C248.275 233.307 252.296 230.259 256.114 226.983L268.184 239.303C242.949 260.763 210.698 272.79 177.22 272.79C99.8302 272.79 36.8801 209.83 36.8801 132.45C36.8801 97.8005 49.569 64.816 72.2424 39.298L83.9267 51.2246C65.5037 71.8347 53.9088 98.6758 52.6958 128.2C52.6256 129.908 52.5901 131.625 52.5901 133.35C52.5901 174.595 72.8439 211.11 103.95 233.492L103.958 233.497C124.195 248.06 149.03 256.64 175.87 256.64H175.88H175.89C177.31 256.64 178.725 256.616 180.134 256.568C187.016 256.336 193.755 255.539 200.306 254.222Z" fill="black" fill-opacity="0.15"/>
<path d="M44.17 229.03C15.69 200.54 0 162.67 0 122.38C0 77.6799 19.66 35.55 53.94 6.78997C56.15 4.92997 59.46 5.21994 61.32 7.43994C63.18 9.64994 62.89 12.9599 60.67 14.8199C28.77 41.5799 10.48 80.7899 10.48 122.38C10.48 199.77 73.43 262.72 150.82 262.72C190.68 262.72 228.8 245.68 255.41 215.95C257.35 213.8 260.66 213.61 262.81 215.54C264.97 217.48 265.15 220.78 263.22 222.94C234.63 254.88 193.66 273.2 150.82 273.2C110.53 273.2 72.66 257.51 44.17 229.03Z" fill="#30262D"/>
<path d="M141.74 267.5H152.21V307.35H141.74V267.5Z" fill="#30262D"/>
<path d="M40.26 23.53L47.74 16.2L255.08 227.83L247.59 235.17L40.26 23.53Z" fill="#30262D"/>
<path d="M71.91 27.46C92.02 11.16 117.39 1.05002 145.06 0.0800171C146.54 0.0200171 148.01 0 149.48 0C179.53 0 207.08 10.76 228.45 28.6C249.18 45.92 264.12 69.87 270 97.18C271.83 105.58 272.78 114.32 272.78 123.28C272.78 166.53 250.52 204.57 216.83 226.59C197.48 239.22 174.34 246.58 149.48 246.58C100.64 246.58 58.44 218.16 38.49 176.99C30.61 160.75 26.2 142.52 26.2 123.28C26.2 84.59 44.02 50.06 71.91 27.46Z" fill="#28B3C6"/>
<path d="M168.38 45.6801C180.72 31.2201 205.75 32.3301 224.29 48.1601C242.83 63.9801 247.85 88.5301 235.51 102.98C223.18 117.44 198.14 116.33 179.61 100.5C161.07 84.6801 156.04 60.1301 168.38 45.6801Z" fill="#58E3BB"/>
<path d="M118.96 3.81006C101.34 25.1301 90.75 52.48 90.75 82.3C90.75 150.4 145.95 205.6 214.04 205.6C224.58 205.6 234.8 204.27 244.56 201.78C221.95 229.14 187.76 246.58 149.49 246.58C81.39 246.58 26.19 191.38 26.19 123.28C26.19 65.7301 65.63 17.3901 118.96 3.81006Z" fill="#2788B1"/>
<path d="M94.36 13C66.72 35.59 49.08 69.95 49.08 108.44C49.08 127.69 53.5 145.91 61.37 162.16C81.32 203.33 123.52 231.74 172.36 231.74C192.14 231.74 210.82 227.07 227.37 218.81C206.14 236.14 179.04 246.58 149.49 246.58C81.39 246.58 26.19 191.38 26.19 123.28C26.19 75.01 53.95 33.23 94.36 13Z" fill="#286E99"/>
<path d="M71.91 27.46C73.17 39.34 80 50.7299 90.49 56.6099C99.96 61.9099 112.24 63.43 118.71 72.17C121.36 75.74 122.66 80.11 123.71 84.42C125.9 93.22 126.57 104.17 119.34 109.66C109.99 116.76 94.23 109.18 85.86 117.41C82.27 120.97 81.36 126.45 81.58 131.5C81.83 137.8 83.49 144.02 86.43 149.61C88.66 153.85 91.64 157.74 93.37 162.24C95.09 166.71 95.36 172.18 92.44 175.99C88.43 181.16 80.48 181.01 74.33 178.8C68.19 176.59 62.45 172.83 55.93 172.27C49.8 171.74 44.08 174.09 38.49 176.99C30.61 160.75 26.2 142.52 26.2 123.28C26.2 84.59 44.02 50.06 71.91 27.46Z" fill="#57C15B"/>
<path d="M26.39 116.68C26.41 116.15 26.45 115.63 26.49 115.1C26.6 113.38 26.74 111.65 26.93 109.97C27 109.44 27.04 108.94 27.1 108.42C27.36 106.27 27.65 104.13 28.03 102.01C28.03 101.99 28.05 101.95 28.05 101.92C28.4 99.86 28.83 97.85 29.29 95.83C29.41 95.28 29.54 94.74 29.66 94.19C30.06 92.59 30.46 91.04 30.93 89.46C31.05 88.96 31.2 88.45 31.35 87.97C31.94 85.95 32.59 83.98 33.28 82.02C33.34 81.81 33.43 81.62 33.51 81.41C33.77 80.72 34.02 80.03 34.29 79.33C34.67 78.3 35.09 77.27 35.51 76.27C35.74 75.72 35.97 75.15 36.2 74.6C36.83 73.15 37.46 71.75 38.13 70.34C38.37 69.85 38.6 69.37 38.83 68.91C39.71 67.08 40.66 65.27 41.65 63.51C41.81 63.21 41.98 62.9 42.17 62.6C42.99 61.13 43.85 59.68 44.76 58.25C45.07 57.71 45.41 57.18 45.74 56.68C46.58 55.37 47.44 54.07 48.35 52.81C48.62 52.39 48.92 51.97 49.21 51.55C50.39 49.93 51.59 48.31 52.83 46.76C53.08 46.42 53.35 46.13 53.6 45.81C54.63 44.53 55.68 43.29 56.78 42.05C57.16 41.61 57.58 41.15 57.97 40.71C59.05 39.51 60.16 38.33 61.3 37.16C61.59 36.86 61.88 36.57 62.18 36.25C63.61 34.82 65.08 33.41 66.59 32.03C66.87 31.8 67.14 31.54 67.41 31.31C68.69 30.18 69.97 29.06 71.3 27.99C71.51 27.82 71.72 27.65 71.91 27.49C73.17 39.36 80 50.73 90.49 56.61C91.37 57.1 92.27 57.56 93.17 57.98C91.6 65.84 90.74 73.97 90.74 82.3C90.74 93.08 92.15 103.54 94.73 113.5C91.39 113.97 88.3 115.02 85.86 117.41C82.27 120.97 81.36 126.45 81.58 131.5C81.83 137.8 83.49 144.02 86.43 149.61C88.66 153.85 91.64 157.74 93.37 162.24C95.09 166.71 95.36 172.18 92.44 175.99C88.43 181.16 80.48 181.01 74.33 178.8C68.19 176.59 62.45 172.83 55.93 172.27C49.8 171.74 44.08 174.09 38.49 176.99C36.56 173.02 34.86 168.94 33.37 164.76C33.22 164.34 33.09 163.92 32.95 163.5C32.44 162.07 31.98 160.62 31.54 159.17C31.47 158.98 31.41 158.77 31.35 158.58C31.18 157.97 31.01 157.38 30.84 156.78C30.42 155.28 30.03 153.77 29.65 152.24C29.48 151.56 29.33 150.87 29.16 150.18C28.85 148.71 28.55 147.21 28.26 145.72C28.13 145.01 28 144.29 27.88 143.58C27.63 142.04 27.42 140.51 27.23 138.95C27.14 138.28 27.04 137.59 26.96 136.91C26.77 135.19 26.64 133.47 26.51 131.72C26.47 131.22 26.43 130.7 26.39 130.17C26.26 127.9 26.2 125.59 26.2 123.28C26.2 121.07 26.28 118.86 26.39 116.68Z" fill="#31996D"/>
<path d="M26.2 123.28C26.2 121.08 26.28 118.89 26.39 116.71C26.39 116.69 26.39 116.67 26.39 116.65C26.41 116.13 26.45 115.61 26.49 115.1C26.6 113.38 26.74 111.65 26.93 109.97C27 109.44 27.04 108.94 27.1 108.42C27.25 107.2 27.41 105.98 27.59 104.76C27.73 103.8 27.89 102.84 28.06 101.89C28.41 99.84 28.83 97.84 29.29 95.83C29.41 95.28 29.54 94.74 29.66 94.19H29.67C30.06 92.59 30.46 91.04 30.93 89.46C31.05 88.96 31.2 88.45 31.35 87.97C31.9 86.07 32.52 84.22 33.16 82.38C33.25 82.15 33.33 81.91 33.41 81.68C33.44 81.59 33.48 81.51 33.51 81.41C33.77 80.72 34.02 80.03 34.29 79.33C34.67 78.3 35.09 77.27 35.51 76.27C35.74 75.72 35.97 75.15 36.2 74.6C36.83 73.16 37.46 71.75 38.13 70.35C38.13 70.34 38.14 70.33 38.14 70.32C38.37 69.84 38.6 69.37 38.83 68.91C39.67 67.17 40.57 65.46 41.5 63.78C41.65 63.51 41.81 63.23 41.96 62.96C42.03 62.84 42.1 62.72 42.17 62.6C42.99 61.13 43.85 59.68 44.76 58.25C45.07 57.71 45.4 57.19 45.74 56.69C45.74 56.68 45.75 56.67 45.75 56.66C46.59 55.36 47.45 54.07 48.35 52.81C48.44 52.67 48.54 52.53 48.63 52.4C48.92 51.99 49.2 51.59 49.49 51.18C50.52 49.77 51.56 48.37 52.64 47.01C52.99 46.56 53.36 46.12 53.72 45.68C54.71 44.44 55.72 43.25 56.78 42.05C57.16 41.61 57.58 41.15 57.97 40.71C59 39.56 60.06 38.44 61.14 37.32C61.67 36.77 62.22 36.23 62.77 35.69C63.73 34.73 64.72 33.79 65.72 32.86C66.39 32.24 67.07 31.63 67.75 31.02C68.87 30.03 70 29.05 71.16 28.11C71.41 27.91 71.66 27.7 71.91 27.5C72.18 30.01 72.71 32.5 73.46 34.93C58.17 55.45 49.08 80.87 49.08 108.44C49.08 127.69 53.5 145.91 61.37 162.16C63.87 167.3 66.71 172.25 69.87 176.96C65.33 174.94 60.85 172.69 55.93 172.27C49.8 171.74 44.08 174.09 38.49 176.99C36.56 173.02 34.86 168.95 33.37 164.78C33.35 164.72 33.33 164.67 33.31 164.61C33.19 164.24 33.07 163.87 32.95 163.5C32.44 162.07 31.98 160.62 31.54 159.17C31.48 159 31.42 158.8 31.36 158.63C31.32 158.49 31.29 158.35 31.25 158.21C31.11 157.73 30.98 157.26 30.84 156.78C30.42 155.29 30.03 153.78 29.65 152.26C29.46 151.46 29.28 150.67 29.1 149.86C28.84 148.63 28.59 147.39 28.34 146.14C28.17 145.24 28.01 144.34 27.86 143.43C27.62 141.94 27.41 140.46 27.23 138.95C27.18 138.55 27.12 138.14 27.07 137.74C27.03 137.42 26.98 137.1 26.94 136.78C26.76 135.1 26.64 133.43 26.51 131.73C26.48 131.16 26.41 130.59 26.38 130.01C26.26 127.79 26.2 125.53 26.2 123.28Z" fill="#165E55"/>
<path d="M179.66 159.51C182.83 149.29 191.3 138.64 201.87 140.26C211.09 141.68 218.85 152.19 227.68 149.08C236.74 145.89 235.51 133.05 237.59 123.65C240.41 111.02 252.12 101.92 264.58 98.42C266.37 97.91 268.19 97.4899 270 97.1799C271.83 105.58 272.78 114.32 272.78 123.28C272.78 166.53 250.52 204.57 216.83 226.59C210.87 211.96 209.98 193.68 197.08 184.81C190.79 180.48 181.86 178.55 179.11 171.44C177.64 167.66 178.44 163.39 179.66 159.51Z" fill="#57C15B"/>
<path d="M210.2 205.5C211.48 205.54 212.75 205.6 214.04 205.6C224.58 205.6 234.8 204.27 244.56 201.78C243.17 203.46 241.73 205.11 240.26 206.72C240.22 206.75 240.19 206.79 240.16 206.83C238.73 208.38 237.25 209.89 235.74 211.37C235.63 211.48 235.51 211.59 235.4 211.7C233.9 213.16 232.36 214.59 230.79 215.97C230.69 216.05 230.6 216.13 230.51 216.21C226.2 219.96 221.61 223.4 216.81 226.53C214.1 219.86 212.43 212.44 210.2 205.5Z" fill="#31996D"/>
<path d="M115.23 147.18C120.64 147.18 125.03 151.58 125.03 156.99C125.03 162.41 120.64 166.8 115.23 166.8C109.81 166.8 105.42 162.41 105.42 156.99C105.42 151.58 109.81 147.18 115.23 147.18Z" fill="#28B3C6"/>
<path d="M26.39 116.68C26.41 116.15 26.45 115.63 26.49 115.1C26.6 113.38 26.74 111.65 26.93 109.97C27 109.44 27.04 108.94 27.1 108.42C27.36 106.27 27.65 104.13 28.03 102.01C28.03 101.99 28.05 101.95 28.05 101.92C28.4 99.8601 28.83 97.8501 29.29 95.8301C29.41 95.2801 29.54 94.7401 29.66 94.1901C30.06 92.5901 30.46 91.0401 30.93 89.4601C31.05 88.9601 31.2 88.4501 31.35 87.9701C31.94 85.9501 32.59 83.9801 33.28 82.0201C33.34 81.8101 33.43 81.6201 33.51 81.4101C33.77 80.7201 34.02 80.0301 34.29 79.3301C38.07 82.4601 42.34 85.0101 46.9 86.8401C50.28 88.1801 53.83 89.1901 56.84 91.2301C59.84 93.2701 62.24 96.7301 61.74 100.33C60.85 106.74 52.43 108.77 48.71 114.05C41.73 123.89 54 138.35 48.64 149.13C45.83 154.74 39.25 157.18 33.18 158.75C32.63 158.9 32.08 159.05 31.54 159.17C31.47 158.98 31.41 158.77 31.35 158.58C31.18 157.97 31.01 157.38 30.84 156.78C30.42 155.28 30.03 153.77 29.65 152.24C29.48 151.56 29.33 150.87 29.16 150.18C28.85 148.71 28.55 147.21 28.26 145.72C28.13 145.01 28 144.29 27.88 143.58C27.63 142.04 27.42 140.51 27.23 138.95C27.14 138.28 27.04 137.59 26.96 136.91C26.77 135.19 26.64 133.47 26.51 131.72C26.47 131.22 26.43 130.7 26.39 130.17C26.26 127.9 26.2 125.59 26.2 123.28C26.2 121.07 26.28 118.86 26.39 116.68Z" fill="#258076"/>
<path d="M26.39 116.68C26.41 116.15 26.45 115.63 26.49 115.1C26.6 113.38 26.74 111.65 26.93 109.97C27 109.44 27.04 108.94 27.1 108.42C27.36 106.27 27.65 104.13 28.03 102.01C28.03 101.99 28.05 101.95 28.05 101.92C28.4 99.8601 28.83 97.8501 29.29 95.8301C29.41 95.2801 29.54 94.7401 29.66 94.1901C30.06 92.5901 30.46 91.0401 30.93 89.4601C31.05 88.9601 31.2 88.4501 31.35 87.9701C31.94 85.9501 32.59 83.9801 33.28 82.0201C33.34 81.8101 33.43 81.6201 33.51 81.4101C33.77 80.7201 34.02 80.0301 34.29 79.3301C38.07 82.4601 42.34 85.0101 46.9 86.8401C50.28 88.1801 53.83 89.1901 56.84 91.2301C59.84 93.2701 62.24 96.7301 61.74 100.33C60.85 106.74 52.43 108.77 48.71 114.05C41.73 123.89 54 138.35 48.64 149.13C45.83 154.74 39.25 157.18 33.18 158.75C32.63 158.9 32.08 159.05 31.54 159.17C31.47 158.98 31.41 158.77 31.35 158.58C31.18 157.97 31.01 157.38 30.84 156.78C30.42 155.28 30.03 153.77 29.65 152.24C29.48 151.56 29.33 150.87 29.16 150.18C28.85 148.71 28.55 147.21 28.26 145.72C28.13 145.01 28 144.29 27.88 143.58C27.63 142.04 27.42 140.51 27.23 138.95C27.14 138.28 27.04 137.59 26.96 136.91C26.77 135.19 26.64 133.47 26.51 131.72C26.47 131.22 26.43 130.7 26.39 130.17C26.26 127.9 26.2 125.59 26.2 123.28C26.2 121.07 26.28 118.86 26.39 116.68Z" fill="#258076"/>
<path d="M26.94 136.78C26.76 135.1 26.64 133.42 26.51 131.72C26.48 131.15 26.41 130.58 26.38 130.01C26.26 127.79 26.2 125.53 26.2 123.28C26.2 122.18 26.22 121.08 26.25 119.98C26.29 118.92 26.33 117.87 26.38 116.82C26.38 116.79 26.38 116.75 26.39 116.71C26.39 116.68 26.39 116.67 26.39 116.65C26.41 116.13 26.45 115.61 26.49 115.1C26.6 113.38 26.74 111.65 26.93 109.97C27 109.44 27.04 108.94 27.1 108.42C27.25 107.2 27.41 105.98 27.59 104.77C27.59 104.76 27.59 104.75 27.59 104.74C27.74 103.78 27.89 102.83 28.06 101.89C28.41 99.8401 28.83 97.8401 29.29 95.8301C29.41 95.2801 29.54 94.7401 29.66 94.1901C30.06 92.5901 30.46 91.0401 30.93 89.4601C31.05 88.9601 31.2 88.4501 31.35 87.9701C31.9 86.0701 32.52 84.2201 33.16 82.3801C33.25 82.1501 33.33 81.9101 33.41 81.6801C33.44 81.5901 33.48 81.5101 33.51 81.4101C33.77 80.7201 34.02 80.0301 34.29 79.3301C38.07 82.4601 42.34 85.0101 46.9 86.8401C48.17 87.3401 49.45 87.8001 50.73 88.2801C49.65 94.8401 49.08 101.57 49.08 108.44C49.08 110.1 49.16 111.75 49.22 113.39C49.05 113.61 48.87 113.82 48.71 114.05C41.73 123.89 54 138.35 48.64 149.13C45.83 154.74 39.25 157.18 33.18 158.75C32.63 158.9 32.08 159.05 31.54 159.17C31.48 159 31.42 158.8 31.36 158.63C31.32 158.49 31.29 158.36 31.25 158.22C31.11 157.74 30.98 157.26 30.84 156.78C30.42 155.29 30.03 153.78 29.65 152.26C29.46 151.46 29.28 150.67 29.1 149.86C28.84 148.63 28.59 147.38 28.34 146.14C28.17 145.24 28.01 144.34 27.86 143.43C27.62 141.94 27.41 140.46 27.23 138.95C27.18 138.55 27.12 138.14 27.07 137.74C27.03 137.42 26.98 137.1 26.94 136.78Z" fill="#104941"/>
<path d="M216.8 226.52C216.45 225.63 216.11 224.74 215.78 223.84C219.74 222.35 223.62 220.68 227.37 218.81C224 221.56 220.46 224.12 216.8 226.52Z" fill="#257F76"/>
<path d="M249.99 139.11C253.15 139.11 255.72 142.1 255.72 145.78C255.72 149.47 253.15 152.46 249.99 152.46C246.82 152.46 244.26 149.47 244.26 145.78C244.26 142.1 246.82 139.11 249.99 139.11Z" fill="#8AD65C"/>
<path d="M201.95 155.21C205.11 155.21 207.68 158.19 207.68 161.88C207.68 165.57 205.11 168.56 201.95 168.56C198.79 168.56 196.22 165.57 196.22 161.88C196.22 158.19 198.79 155.21 201.95 155.21Z" fill="#8AD65C"/>
<path d="M111.06 87.1799C114.22 87.1799 116.79 90.17 116.79 93.85C116.79 97.54 114.22 100.53 111.06 100.53C107.89 100.53 105.33 97.54 105.33 93.85C105.33 90.17 107.89 87.1799 111.06 87.1799Z" fill="#8AD65C"/>
<path d="M248.24 161.88C252.97 161.88 256.82 166.36 256.82 171.88C256.82 177.4 252.97 181.87 248.24 181.87C243.5 181.87 239.66 177.4 239.66 171.88C239.66 166.36 243.5 161.88 248.24 161.88Z" fill="#8AD65C"/>
<path d="M67.12 59.3401C71.86 59.3401 75.7 63.8201 75.7 69.3401C75.7 74.8601 71.86 79.3301 67.12 79.3301C62.38 79.3301 58.54 74.8601 58.54 69.3401C58.54 63.8201 62.38 59.3401 67.12 59.3401Z" fill="#257F76"/>
<path d="M78.68 82.53C80.88 82.53 82.66 84.61 82.66 87.18C82.66 89.74 80.88 91.82 78.68 91.82C76.47 91.82 74.69 89.74 74.69 87.18C74.69 84.61 76.47 82.53 78.68 82.53Z" fill="#257F76"/>
<path d="M62.42 120.55C64.62 120.55 66.41 122.63 66.41 125.19C66.41 127.76 64.62 129.84 62.42 129.84C60.22 129.84 58.43 127.76 58.43 125.19C58.43 122.63 60.22 120.55 62.42 120.55Z" fill="#257F76"/>
<path d="M253.23 135.34C255.02 135.34 256.47 137.02 256.47 139.11C256.47 141.19 255.02 142.88 253.23 142.88C251.44 142.88 249.99 141.19 249.99 139.11C249.99 137.02 251.44 135.34 253.23 135.34Z" fill="#8AD65C"/>
<path d="M144.92 0.480042C144.96 0.350042 145 0.210017 145.06 0.0800171C146.54 0.0200171 148.01 0 149.48 0C179.53 0 207.08 10.76 228.45 28.6C220.26 29.17 212.29 33.25 207.29 39.78C204.24 43.75 201.91 48.82 197.25 50.6C194.16 51.8 190.67 51.26 187.54 50.2C175.37 46.13 166.88 35.33 159.15 25.07C155.59 20.36 152.04 15.66 148.49 10.95C146.18 7.88001 143.74 4.14004 144.92 0.480042Z" fill="#57C15B"/>
<path d="M208.28 38.6301C207.95 39.0201 207.6 39.3801 207.29 39.7801C204.24 43.7501 201.91 48.8201 197.25 50.6001C194.16 51.8001 190.67 51.2601 187.54 50.2001C182.09 48.3801 177.38 45.2001 173.14 41.3301C182.38 34.6301 195.57 33.8001 208.28 38.6301Z" fill="#8AD65C"/>
<path d="M89.71 326.35C89.71 309.34 103.49 295.56 120.5 295.56H173.44C190.45 295.56 204.23 309.34 204.23 326.35V327.52H89.71V326.35Z" fill="#30262D"/>
</svg>
