<svg width="262" height="333" viewBox="0 0 262 333" fill="none" xmlns="http://www.w3.org/2000/svg">
<path fill-rule="evenodd" clip-rule="evenodd" d="M190.893 34.4559C203.914 28.1722 219.577 27.6921 233.583 34.5099C252.733 43.8199 263.053 63.97 260.803 83.98C259.873 92.22 250.783 96.85 243.323 93.23L224.6 84.1163L223.093 89.0099L220.366 97.8414C221.792 99.1326 223.185 100.459 224.543 101.82C238.951 116.277 249.487 134.567 254.511 155.018C254.574 155.261 254.635 155.505 254.693 155.75C256.933 165.13 258.013 174.97 257.773 185.09C257.731 186.903 257.645 188.707 257.517 190.5C255.306 221.861 240.416 249.721 217.942 268.987L221.303 279.91L233.643 319.84C234.903 323.95 233.343 328.54 229.533 330.97C225.003 333.88 218.923 332.55 216.003 327.99L196.463 297.48L189.633 286.807C178.291 291.796 165.983 294.992 153.066 296.035C151.127 296.194 149.177 296.302 147.213 296.36L147.028 296.364C146.382 296.382 145.734 296.395 145.085 296.402C144.642 296.407 144.198 296.41 143.753 296.41C127.424 296.41 111.901 292.993 97.861 286.814L91.0134 297.51L71.5034 327.99C68.5934 332.55 62.5134 333.88 57.9433 330.97C54.1633 328.54 52.6132 323.95 53.8732 319.84L66.1633 279.98L69.5505 268.991C45.1528 248.079 29.7033 217.02 29.7033 182.36C29.7033 148.848 44.1479 118.715 67.1523 97.8481L65.3234 91.9199L63.7116 86.6873L45.5134 97.46C38.0832 101.86 28.6833 97.3799 27.1633 88.8899C23.6657 69.3833 32.3212 48.8878 50.3664 38.1818L50.4033 38.1599C64.987 29.526 82.2353 29.3423 96.4633 36.1432C96.5671 35.8271 96.623 35.4899 96.623 35.1399V29.48C96.623 18.7699 105.323 10.0599 116.033 10.0599H171.473C182.183 10.0599 190.893 18.7699 190.893 29.48V34.4559ZM90.153 71.0345V75.7454L90.8532 76.84L92.9963 80.1863C108.282 72.5782 125.517 68.2999 143.753 68.2999C161.977 68.2999 179.207 72.5773 194.494 80.1799L196.983 76.2899L197.363 75.6968V70.8586L181.403 63.09C174.246 59.6128 172.456 50.5721 177.125 44.5203C175.582 41.738 174.703 38.5394 174.703 35.1399V29.48C174.703 27.6899 173.253 26.24 171.473 26.24H116.033C114.243 26.24 112.803 27.6899 112.803 29.48V35.1399C112.803 39.1818 111.56 42.9396 109.436 46.0513C112.42 51.5438 110.586 58.9347 104.773 62.3799L90.153 71.0345Z" fill="black" fill-opacity="0.15"/>
<path d="M203.133 320.9C198.603 323.81 192.523 322.49 189.603 317.92L170.063 287.41L146.213 250.14C145.253 248.62 144.443 246.87 143.893 245.06C140.493 234.12 146.633 222.51 157.573 219.14C168.513 215.78 180.123 221.89 183.523 232.86L194.913 269.84L207.243 309.77C208.503 313.88 206.943 318.47 203.133 320.9Z" fill="#A2224E"/>
<path d="M90.8234 245.06C90.2734 246.87 89.4334 248.62 88.4934 250.14L64.6234 287.44L45.1034 317.92C42.1934 322.49 36.1134 323.81 31.5534 320.9C27.7634 318.47 26.2134 313.88 27.4734 309.77L39.7634 269.91L51.1834 232.86C54.5834 221.89 66.2034 215.78 77.1334 219.14C88.0734 222.51 94.2234 234.12 90.8234 245.06Z" fill="#A2224E"/>
<path d="M90.8234 245.06C90.2734 246.87 89.4334 248.62 88.4934 250.14L64.6234 287.44C62.9334 286.57 61.2834 285.66 59.6334 284.7C52.4834 280.49 45.8134 275.54 39.7634 269.91L51.1834 232.86C54.5834 221.89 66.2034 215.78 77.1334 219.14C88.0734 222.51 94.2234 234.12 90.8234 245.06Z" fill="#7C1439"/>
<path d="M194.913 269.84C187.503 276.77 179.123 282.69 170.063 287.41L146.213 250.14C145.253 248.62 144.443 246.87 143.893 245.06C140.493 234.12 146.633 222.51 157.573 219.14C168.513 215.78 180.123 221.89 183.523 232.86L194.913 269.84Z" fill="#7C1439"/>
<path d="M187.143 126.32H170.963V47.72C170.963 45.94 169.513 44.48 167.723 44.48C157.013 44.48 148.313 35.78 148.313 25.07V19.41C148.313 17.63 146.853 16.17 145.073 16.17H89.6334C87.8434 16.17 86.4034 17.63 86.4034 19.41V25.07C86.4034 35.78 77.6934 44.48 66.9934 44.48C65.2034 44.48 63.7534 45.94 63.7534 47.72V126.32H47.5734V47.72C47.5734 37.02 56.2834 28.31 66.9934 28.31C68.7734 28.31 70.2234 26.86 70.2234 25.07V19.41C70.2234 8.7 78.9334 0 89.6334 0H145.073C155.783 0 164.493 8.7 164.493 19.41V25.07C164.493 26.86 165.943 28.31 167.723 28.31C178.423 28.31 187.143 37.02 187.143 47.72V126.32Z" fill="#4C484A"/>
<path d="M207.243 44.68L196.693 78.95L183.523 121.59C180.123 132.56 168.513 138.67 157.573 135.31C146.633 131.94 140.493 120.33 143.893 109.39C144.443 107.58 145.253 105.83 146.213 104.31L170.583 66.23L189.603 36.53C192.523 31.96 198.603 30.64 203.133 33.55C206.943 35.98 208.503 40.57 207.243 44.68Z" fill="#4C484A"/>
<path d="M207.243 44.68L196.693 78.95L170.583 66.23L189.603 36.53C192.523 31.96 198.603 30.64 203.133 33.55C206.943 35.98 208.503 40.57 207.243 44.68Z" fill="#2D2C2C"/>
<path d="M77.1334 135.31C66.2034 138.67 54.5834 132.56 51.1834 121.59L38.9234 81.86L27.4734 44.68C26.2134 40.57 27.7634 35.98 31.5534 33.55C36.1134 30.64 42.1934 31.96 45.1034 36.53L64.4534 66.78L88.4934 104.31C89.4334 105.83 90.2734 107.58 90.8234 109.39C94.2234 120.33 88.0734 131.94 77.1334 135.31Z" fill="#4C484A"/>
<path d="M64.4534 66.78L38.9234 81.86L27.4734 44.68C26.2134 40.57 27.7634 35.98 31.5534 33.55C36.1134 30.64 42.1934 31.96 45.1034 36.53L64.4534 66.78Z" fill="#2D2C2C"/>
<path d="M231.413 172.29C231.413 235.29 180.343 286.35 117.353 286.35C96.2934 286.35 76.5534 280.65 59.6334 270.68C25.9134 250.88 3.30338 214.22 3.30338 172.29C3.30338 109.29 54.3534 58.24 117.353 58.24C148.903 58.24 177.473 71.05 198.143 91.76C218.723 112.4 231.413 140.87 231.413 172.29Z" fill="#E3415B"/>
<path d="M231.373 175.03C229.973 235.12 180.893 284.52 120.813 286.29C120.333 286.31 119.843 286.32 119.373 286.33C90.0834 286.83 73.4334 252.85 91.3634 229.69L166.443 132.72C184.383 109.53 221.483 117.16 228.293 145.68C230.533 155.07 231.613 164.9 231.373 175.03Z" fill="#BD2956"/>
<path d="M155.003 53.03C147.243 49.25 145.803 38.94 152.043 33C166.413 19.32 188.303 15.25 207.183 24.44C226.333 33.76 236.653 53.9 234.403 73.92C233.473 82.15 224.383 86.78 216.933 83.16L155.003 53.03Z" fill="#FFD466"/>
<path d="M216.933 83.16L200.053 74.94C206.143 77.91 214.223 72.78 215.603 64.77C218.593 47.42 213.083 30.72 200.783 21.89C202.953 22.59 205.083 23.42 207.183 24.44C226.333 33.76 236.653 53.9 234.403 73.92C233.473 82.15 224.383 86.79 216.933 83.16Z" fill="#F38A27"/>
<path d="M168.143 36.11C167.403 30.76 171.183 25.78 176.533 25.05L190.073 23.21C195.423 22.48 200.393 26.26 201.123 31.61C201.863 36.96 198.073 41.94 192.723 42.67L179.193 44.51C173.843 45.24 168.873 41.46 168.143 36.11Z" fill="#FFE180"/>
<path d="M19.1134 87.4C11.6834 91.79 2.28337 87.32 0.763374 78.83C-2.73663 59.3 5.9334 38.8 24.0034 28.1C42.3234 17.25 64.8234 19.73 80.2834 32.64C86.6534 37.95 85.5034 48.09 78.3734 52.31L19.1134 87.4Z" fill="#FFD466"/>
<path d="M78.3734 52.31L62.2234 61.87C68.0434 58.43 68.2134 48.86 62.2934 43.29C49.4634 31.23 32.4834 26.64 18.3534 32.03C20.1234 30.61 21.9934 29.29 24.0034 28.1C42.3234 17.25 64.8234 19.73 80.2834 32.64C86.6534 37.95 85.5034 48.09 78.3734 52.31Z" fill="#F38A27"/>
<path d="M12.2234 67.11C7.3534 64.77 5.29337 58.87 7.63337 54.01L13.5434 41.71C15.8834 36.84 21.7834 34.77 26.6534 37.1C31.5234 39.44 33.5834 45.33 31.2434 50.2L25.3334 62.52C22.9834 67.39 17.0934 69.45 12.2234 67.11Z" fill="#FFE180"/>
<path d="M205.523 172.29C205.523 220.99 166.053 260.46 117.353 260.46C101.083 260.46 85.8134 256.06 72.7434 248.36C57.3734 239.33 44.9434 225.74 37.3734 209.44C32.1034 198.17 29.1934 185.56 29.1934 172.29C29.1934 123.59 68.6634 84.12 117.353 84.12C137.933 84.12 156.863 91.18 171.873 103.02C174.653 105.15 177.303 107.51 179.833 110.04C195.723 125.99 205.523 147.99 205.523 172.29Z" fill="white"/>
<path d="M205.473 175.3C204.003 219.81 168.683 256.82 124.273 260.2C105.413 261.63 87.6434 257.14 72.7434 248.36C60.4634 241.15 50.0733 231.04 42.5333 218.97C39.2933 213.78 40.4634 206.99 45.2534 203.2L164.053 109.21C168.743 105.5 175.523 105.74 179.763 109.96C179.783 109.99 179.813 110.01 179.833 110.04C196.373 126.65 206.323 149.81 205.473 175.3Z" fill="#DFDFDF"/>
<path d="M116.783 187.35C114.753 187.35 112.733 186.73 111.023 185.54C108.333 183.65 106.723 180.57 106.723 177.28V112.16C106.723 107.69 110.343 104.07 114.803 104.07C119.283 104.07 122.893 107.69 122.893 112.16V168.52L167.793 152.02C171.993 150.48 176.633 152.63 178.173 156.83C179.713 161.02 177.563 165.67 173.373 167.21L120.253 186.73C119.123 187.14 117.953 187.35 116.783 187.35Z" fill="#4C484A"/>
</svg>
